<?xml version="1.0" encoding="UTF-8" standalone="no"?><svg xmlns="http://www.w3.org/2000/svg" xmlns:xlink="http://www.w3.org/1999/xlink" contentStyleType="text/css" height="1595px" preserveAspectRatio="none" style="width:6054px;height:1595px;background:#FFFFFF;" version="1.1" viewBox="0 0 6054 1595" width="6054px" zoomAndPan="magnify"><defs/><g><!--MD5=[a1725912838dd78567c3c7e73f983603]
entity ##1533395--><!--MD5=[b21928812db19a5cf5820f52d804235a]
entity ##1533397--><!--MD5=[abd70d998cb2e3382df4adaa492f7171]
class low_level_gameplay--><g id="elem_low_level_gameplay"><rect codeLine="35" fill="#F1F1F1" height="194.6719" id="low_level_gameplay" rx="2.5" ry="2.5" style="stroke:#181818;stroke-width:0.5;" width="343" x="2060.594" y="7"/><ellipse cx="2156.844" cy="23" fill="#ADD1B2" rx="11" ry="11" style="stroke:#181818;stroke-width:1.0;"/><path d="M2159.1878,18.6719 C2158.2503,18.2344 2157.6565,18.0938 2156.7815,18.0938 C2154.1565,18.0938 2152.1565,20.1719 2152.1565,22.8906 L2152.1565,24.0156 C2152.1565,26.5938 2154.2659,28.4844 2157.1565,28.4844 C2158.3753,28.4844 2159.5315,28.1875 2160.2815,27.6406 C2160.8596,27.2344 2161.1878,26.7813 2161.1878,26.3906 C2161.1878,25.9375 2160.7971,25.5469 2160.3284,25.5469 C2160.1096,25.5469 2159.9065,25.625 2159.719,25.8125 C2159.2659,26.2969 2159.2659,26.2969 2159.0784,26.3906 C2158.6565,26.6563 2157.969,26.7813 2157.2034,26.7813 C2155.1565,26.7813 2153.8596,25.6875 2153.8596,23.9844 L2153.8596,22.8906 C2153.8596,21.1094 2155.1096,19.7969 2156.844,19.7969 C2157.4221,19.7969 2158.0315,19.9531 2158.5003,20.2031 C2158.9846,20.4844 2159.1565,20.7031 2159.2503,21.1094 C2159.3128,21.5156 2159.344,21.6406 2159.4846,21.7656 C2159.6253,21.9063 2159.8596,22.0156 2160.0784,22.0156 C2160.344,22.0156 2160.6096,21.875 2160.7815,21.6563 C2160.8909,21.5 2160.9221,21.3125 2160.9221,20.8906 L2160.9221,19.4688 C2160.9221,19.0313 2160.9065,18.9063 2160.8128,18.75 C2160.6565,18.4844 2160.3753,18.3438 2160.0784,18.3438 C2159.7815,18.3438 2159.5784,18.4375 2159.3596,18.75 L2159.1878,18.6719 Z " fill="#000000"/><text fill="#000000" font-family="sans-serif" font-size="14" lengthAdjust="spacing" textLength="142" x="2177.344" y="27.8467">low_level_gameplay</text><line style="stroke:#181818;stroke-width:0.5;" x1="2061.594" x2="2402.594" y1="39" y2="39"/><polygon fill="none" points="2071.594,45,2075.594,49,2071.594,53,2067.594,49" style="stroke:#B38D22;stroke-width:1.0;"/><text fill="#000000" font-family="sans-serif" font-size="14" lengthAdjust="spacing" textLength="259" x="2080.594" y="55.9951">std::vector&lt;std::string&gt; commands</text><polygon fill="none" points="2071.594,61.2969,2075.594,65.2969,2071.594,69.2969,2067.594,65.2969" style="stroke:#B38D22;stroke-width:1.0;"/><text fill="#000000" font-family="sans-serif" font-size="14" lengthAdjust="spacing" textLength="243" x="2080.594" y="72.292">std::vector&lt;std::string&gt; answers;</text><polygon fill="none" points="2071.594,77.5938,2075.594,81.5938,2071.594,85.5938,2067.594,81.5938" style="stroke:#B38D22;stroke-width:1.0;"/><text fill="#000000" font-family="sans-serif" font-size="14" lengthAdjust="spacing" textLength="148" x="2080.594" y="88.5889">std::string greetings</text><polygon fill="none" points="2071.594,93.8906,2075.594,97.8906,2071.594,101.8906,2067.594,97.8906" style="stroke:#B38D22;stroke-width:1.0;"/><text fill="#000000" font-family="sans-serif" font-size="14" lengthAdjust="spacing" textLength="119" x="2080.594" y="104.8857">std::string name</text><polygon fill="none" points="2071.594,110.1875,2075.594,114.1875,2071.594,118.1875,2067.594,114.1875" style="stroke:#B38D22;stroke-width:1.0;"/><text fill="#000000" font-family="sans-serif" font-size="14" lengthAdjust="spacing" textLength="92" x="2080.594" y="121.1826">bool outflag;</text><polygon fill="none" points="2071.594,126.4844,2075.594,130.4844,2071.594,134.4844,2067.594,130.4844" style="stroke:#B38D22;stroke-width:1.0;"/><text fill="#000000" font-family="sans-serif" font-size="14" lengthAdjust="spacing" textLength="85" x="2080.594" y="137.4795">int clearscr;</text><ellipse cx="2071.594" cy="147.7813" fill="none" rx="3" ry="3" style="stroke:#038048;stroke-width:1.0;"/><text fill="#000000" font-family="sans-serif" font-size="14" lengthAdjust="spacing" textLength="290" x="2080.594" y="153.7764">std::vector&lt;std::string&gt; post_greetings</text><line style="stroke:#181818;stroke-width:0.5;" x1="2061.594" x2="2402.594" y1="161.0781" y2="161.0781"/><ellipse cx="2071.594" cy="172.0781" fill="#84BE84" rx="3" ry="3" style="stroke:#038048;stroke-width:1.0;"/><text fill="#000000" font-family="sans-serif" font-size="14" lengthAdjust="spacing" textLength="317" x="2080.594" y="178.0732">virtual void execute(int number, Hero *hero)</text><ellipse cx="2071.594" cy="188.375" fill="#84BE84" rx="3" ry="3" style="stroke:#038048;stroke-width:1.0;"/><text fill="#000000" font-family="sans-serif" font-size="14" lengthAdjust="spacing" textLength="182" x="2080.594" y="194.3701">int gameplay(Hero *hero)</text></g><!--MD5=[c537c34ecedf2635f440713bf3c697c3]
class high_level_gameplay--><g id="elem_high_level_gameplay"><rect codeLine="47" fill="#F1F1F1" height="64.2969" id="high_level_gameplay" rx="2.5" ry="2.5" style="stroke:#181818;stroke-width:0.5;" width="299" x="1950.594" y="457.5"/><ellipse cx="2021.344" cy="473.5" fill="#ADD1B2" rx="11" ry="11" style="stroke:#181818;stroke-width:1.0;"/><path d="M2023.6878,469.1719 C2022.7503,468.7344 2022.1565,468.5938 2021.2815,468.5938 C2018.6565,468.5938 2016.6565,470.6719 2016.6565,473.3906 L2016.6565,474.5156 C2016.6565,477.0938 2018.7659,478.9844 2021.6565,478.9844 C2022.8753,478.9844 2024.0315,478.6875 2024.7815,478.1406 C2025.3596,477.7344 2025.6878,477.2813 2025.6878,476.8906 C2025.6878,476.4375 2025.2971,476.0469 2024.8284,476.0469 C2024.6096,476.0469 2024.4065,476.125 2024.219,476.3125 C2023.7659,476.7969 2023.7659,476.7969 2023.5784,476.8906 C2023.1565,477.1563 2022.469,477.2813 2021.7034,477.2813 C2019.6565,477.2813 2018.3596,476.1875 2018.3596,474.4844 L2018.3596,473.3906 C2018.3596,471.6094 2019.6096,470.2969 2021.344,470.2969 C2021.9221,470.2969 2022.5315,470.4531 2023.0003,470.7031 C2023.4846,470.9844 2023.6565,471.2031 2023.7503,471.6094 C2023.8128,472.0156 2023.844,472.1406 2023.9846,472.2656 C2024.1253,472.4063 2024.3596,472.5156 2024.5784,472.5156 C2024.844,472.5156 2025.1096,472.375 2025.2815,472.1563 C2025.3909,472 2025.4221,471.8125 2025.4221,471.3906 L2025.4221,469.9688 C2025.4221,469.5313 2025.4065,469.4063 2025.3128,469.25 C2025.1565,468.9844 2024.8753,468.8438 2024.5784,468.8438 C2024.2815,468.8438 2024.0784,468.9375 2023.8596,469.25 L2023.6878,469.1719 Z " fill="#000000"/><text fill="#000000" font-family="sans-serif" font-size="14" lengthAdjust="spacing" textLength="149" x="2041.844" y="478.3467">high_level_gameplay</text><line style="stroke:#181818;stroke-width:0.5;" x1="1951.594" x2="2248.594" y1="489.5" y2="489.5"/><polygon fill="none" points="1961.594,495.5,1965.594,499.5,1961.594,503.5,1957.594,499.5" style="stroke:#B38D22;stroke-width:1.0;"/><text fill="#000000" font-family="sans-serif" font-size="14" lengthAdjust="spacing" textLength="273" x="1970.594" y="506.4951">std::vector&lt;lowlevel*&gt; lowcommands</text><line style="stroke:#181818;stroke-width:0.5;" x1="1951.594" x2="2248.594" y1="513.7969" y2="513.7969"/></g><!--MD5=[7ba5768608ab52cb39da7e5668075600]
class forge--><g id="elem_forge"><rect codeLine="51" fill="#F1F1F1" height="64.2969" id="forge" rx="2.5" ry="2.5" style="stroke:#181818;stroke-width:0.5;" width="358" x="278.094" y="1007.5"/><ellipse cx="433.344" cy="1023.5" fill="#ADD1B2" rx="11" ry="11" style="stroke:#181818;stroke-width:1.0;"/><path d="M435.6878,1019.1719 C434.7503,1018.7344 434.1565,1018.5938 433.2815,1018.5938 C430.6565,1018.5938 428.6565,1020.6719 428.6565,1023.3906 L428.6565,1024.5156 C428.6565,1027.0938 430.7659,1028.9844 433.6565,1028.9844 C434.8753,1028.9844 436.0315,1028.6875 436.7815,1028.1406 C437.3596,1027.7344 437.6878,1027.2813 437.6878,1026.8906 C437.6878,1026.4375 437.2971,1026.0469 436.8284,1026.0469 C436.6096,1026.0469 436.4065,1026.125 436.219,1026.3125 C435.7659,1026.7969 435.7659,1026.7969 435.5784,1026.8906 C435.1565,1027.1563 434.469,1027.2813 433.7034,1027.2813 C431.6565,1027.2813 430.3596,1026.1875 430.3596,1024.4844 L430.3596,1023.3906 C430.3596,1021.6094 431.6096,1020.2969 433.344,1020.2969 C433.9221,1020.2969 434.5315,1020.4531 435.0003,1020.7031 C435.4846,1020.9844 435.6565,1021.2031 435.7503,1021.6094 C435.8128,1022.0156 435.844,1022.1406 435.9846,1022.2656 C436.1253,1022.4063 436.3596,1022.5156 436.5784,1022.5156 C436.844,1022.5156 437.1096,1022.375 437.2815,1022.1563 C437.3909,1022 437.4221,1021.8125 437.4221,1021.3906 L437.4221,1019.9688 C437.4221,1019.5313 437.4065,1019.4063 437.3128,1019.25 C437.1565,1018.9844 436.8753,1018.8438 436.5784,1018.8438 C436.2815,1018.8438 436.0784,1018.9375 435.8596,1019.25 L435.6878,1019.1719 Z " fill="#000000"/><text fill="#000000" font-family="sans-serif" font-size="14" lengthAdjust="spacing" textLength="39" x="453.844" y="1028.3467">forge</text><line style="stroke:#181818;stroke-width:0.5;" x1="279.094" x2="635.094" y1="1039.5" y2="1039.5"/><line style="stroke:#181818;stroke-width:0.5;" x1="279.094" x2="635.094" y1="1047.5" y2="1047.5"/><ellipse cx="289.094" cy="1058.5" fill="#84BE84" rx="3" ry="3" style="stroke:#038048;stroke-width:1.0;"/><text fill="#000000" font-family="sans-serif" font-size="14" lengthAdjust="spacing" textLength="332" x="298.094" y="1064.4951">void execute(int number, Hero *hero) override</text></g><!--MD5=[b66c46f79aa3923247c6d0f7784d45f1]
class shop--><g id="elem_shop"><rect codeLine="55" fill="#F1F1F1" height="64.2969" id="shop" rx="2.5" ry="2.5" style="stroke:#181818;stroke-width:0.5;" width="358" x="671.094" y="1007.5"/><ellipse cx="828.344" cy="1023.5" fill="#ADD1B2" rx="11" ry="11" style="stroke:#181818;stroke-width:1.0;"/><path d="M830.6877,1019.1719 C829.7502,1018.7344 829.1565,1018.5938 828.2815,1018.5938 C825.6565,1018.5938 823.6565,1020.6719 823.6565,1023.3906 L823.6565,1024.5156 C823.6565,1027.0938 825.7659,1028.9844 828.6565,1028.9844 C829.8752,1028.9844 831.0315,1028.6875 831.7815,1028.1406 C832.3596,1027.7344 832.6877,1027.2813 832.6877,1026.8906 C832.6877,1026.4375 832.2971,1026.0469 831.8284,1026.0469 C831.6096,1026.0469 831.4065,1026.125 831.219,1026.3125 C830.7659,1026.7969 830.7659,1026.7969 830.5784,1026.8906 C830.1565,1027.1563 829.469,1027.2813 828.7034,1027.2813 C826.6565,1027.2813 825.3596,1026.1875 825.3596,1024.4844 L825.3596,1023.3906 C825.3596,1021.6094 826.6096,1020.2969 828.344,1020.2969 C828.9221,1020.2969 829.5315,1020.4531 830.0002,1020.7031 C830.4846,1020.9844 830.6565,1021.2031 830.7502,1021.6094 C830.8127,1022.0156 830.844,1022.1406 830.9846,1022.2656 C831.1252,1022.4063 831.3596,1022.5156 831.5784,1022.5156 C831.844,1022.5156 832.1096,1022.375 832.2815,1022.1563 C832.3909,1022 832.4221,1021.8125 832.4221,1021.3906 L832.4221,1019.9688 C832.4221,1019.5313 832.4065,1019.4063 832.3127,1019.25 C832.1565,1018.9844 831.8752,1018.8438 831.5784,1018.8438 C831.2815,1018.8438 831.0784,1018.9375 830.8596,1019.25 L830.6877,1019.1719 Z " fill="#000000"/><text fill="#000000" font-family="sans-serif" font-size="14" lengthAdjust="spacing" textLength="35" x="848.844" y="1028.3467">shop</text><line style="stroke:#181818;stroke-width:0.5;" x1="672.094" x2="1028.094" y1="1039.5" y2="1039.5"/><line style="stroke:#181818;stroke-width:0.5;" x1="672.094" x2="1028.094" y1="1047.5" y2="1047.5"/><ellipse cx="682.094" cy="1058.5" fill="#84BE84" rx="3" ry="3" style="stroke:#038048;stroke-width:1.0;"/><text fill="#000000" font-family="sans-serif" font-size="14" lengthAdjust="spacing" textLength="332" x="691.094" y="1064.4951">void execute(int number, Hero *hero) override</text></g><!--MD5=[ba1befc50e6de48c221bc2393455d8f9]
class library--><g id="elem_library"><rect codeLine="59" fill="#F1F1F1" height="64.2969" id="library" rx="2.5" ry="2.5" style="stroke:#181818;stroke-width:0.5;" width="358" x="1064.094" y="1007.5"/><ellipse cx="1215.844" cy="1023.5" fill="#ADD1B2" rx="11" ry="11" style="stroke:#181818;stroke-width:1.0;"/><path d="M1218.1878,1019.1719 C1217.2503,1018.7344 1216.6565,1018.5938 1215.7815,1018.5938 C1213.1565,1018.5938 1211.1565,1020.6719 1211.1565,1023.3906 L1211.1565,1024.5156 C1211.1565,1027.0938 1213.2659,1028.9844 1216.1565,1028.9844 C1217.3753,1028.9844 1218.5315,1028.6875 1219.2815,1028.1406 C1219.8596,1027.7344 1220.1878,1027.2813 1220.1878,1026.8906 C1220.1878,1026.4375 1219.7971,1026.0469 1219.3284,1026.0469 C1219.1096,1026.0469 1218.9065,1026.125 1218.719,1026.3125 C1218.2659,1026.7969 1218.2659,1026.7969 1218.0784,1026.8906 C1217.6565,1027.1563 1216.969,1027.2813 1216.2034,1027.2813 C1214.1565,1027.2813 1212.8596,1026.1875 1212.8596,1024.4844 L1212.8596,1023.3906 C1212.8596,1021.6094 1214.1096,1020.2969 1215.844,1020.2969 C1216.4221,1020.2969 1217.0315,1020.4531 1217.5003,1020.7031 C1217.9846,1020.9844 1218.1565,1021.2031 1218.2503,1021.6094 C1218.3128,1022.0156 1218.344,1022.1406 1218.4846,1022.2656 C1218.6253,1022.4063 1218.8596,1022.5156 1219.0784,1022.5156 C1219.344,1022.5156 1219.6096,1022.375 1219.7815,1022.1563 C1219.8909,1022 1219.9221,1021.8125 1219.9221,1021.3906 L1219.9221,1019.9688 C1219.9221,1019.5313 1219.9065,1019.4063 1219.8128,1019.25 C1219.6565,1018.9844 1219.3753,1018.8438 1219.0784,1018.8438 C1218.7815,1018.8438 1218.5784,1018.9375 1218.3596,1019.25 L1218.1878,1019.1719 Z " fill="#000000"/><text fill="#000000" font-family="sans-serif" font-size="14" lengthAdjust="spacing" textLength="46" x="1236.344" y="1028.3467">library</text><line style="stroke:#181818;stroke-width:0.5;" x1="1065.094" x2="1421.094" y1="1039.5" y2="1039.5"/><line style="stroke:#181818;stroke-width:0.5;" x1="1065.094" x2="1421.094" y1="1047.5" y2="1047.5"/><ellipse cx="1075.094" cy="1058.5" fill="#84BE84" rx="3" ry="3" style="stroke:#038048;stroke-width:1.0;"/><text fill="#000000" font-family="sans-serif" font-size="14" lengthAdjust="spacing" textLength="332" x="1084.094" y="1064.4951">void execute(int number, Hero *hero) override</text></g><!--MD5=[6465e5d94f0b70b9e572742fe94501e7]
class equipment--><g id="elem_equipment"><rect codeLine="63" fill="#F1F1F1" height="64.2969" id="equipment" rx="2.5" ry="2.5" style="stroke:#181818;stroke-width:0.5;" width="358" x="1457.094" y="1007.5"/><ellipse cx="1592.344" cy="1023.5" fill="#ADD1B2" rx="11" ry="11" style="stroke:#181818;stroke-width:1.0;"/><path d="M1594.6878,1019.1719 C1593.7503,1018.7344 1593.1565,1018.5938 1592.2815,1018.5938 C1589.6565,1018.5938 1587.6565,1020.6719 1587.6565,1023.3906 L1587.6565,1024.5156 C1587.6565,1027.0938 1589.7659,1028.9844 1592.6565,1028.9844 C1593.8753,1028.9844 1595.0315,1028.6875 1595.7815,1028.1406 C1596.3596,1027.7344 1596.6878,1027.2813 1596.6878,1026.8906 C1596.6878,1026.4375 1596.2971,1026.0469 1595.8284,1026.0469 C1595.6096,1026.0469 1595.4065,1026.125 1595.219,1026.3125 C1594.7659,1026.7969 1594.7659,1026.7969 1594.5784,1026.8906 C1594.1565,1027.1563 1593.469,1027.2813 1592.7034,1027.2813 C1590.6565,1027.2813 1589.3596,1026.1875 1589.3596,1024.4844 L1589.3596,1023.3906 C1589.3596,1021.6094 1590.6096,1020.2969 1592.344,1020.2969 C1592.9221,1020.2969 1593.5315,1020.4531 1594.0003,1020.7031 C1594.4846,1020.9844 1594.6565,1021.2031 1594.7503,1021.6094 C1594.8128,1022.0156 1594.844,1022.1406 1594.9846,1022.2656 C1595.1253,1022.4063 1595.3596,1022.5156 1595.5784,1022.5156 C1595.844,1022.5156 1596.1096,1022.375 1596.2815,1022.1563 C1596.3909,1022 1596.4221,1021.8125 1596.4221,1021.3906 L1596.4221,1019.9688 C1596.4221,1019.5313 1596.4065,1019.4063 1596.3128,1019.25 C1596.1565,1018.9844 1595.8753,1018.8438 1595.5784,1018.8438 C1595.2815,1018.8438 1595.0784,1018.9375 1594.8596,1019.25 L1594.6878,1019.1719 Z " fill="#000000"/><text fill="#000000" font-family="sans-serif" font-size="14" lengthAdjust="spacing" textLength="79" x="1612.844" y="1028.3467">equipment</text><line style="stroke:#181818;stroke-width:0.5;" x1="1458.094" x2="1814.094" y1="1039.5" y2="1039.5"/><line style="stroke:#181818;stroke-width:0.5;" x1="1458.094" x2="1814.094" y1="1047.5" y2="1047.5"/><ellipse cx="1468.094" cy="1058.5" fill="#84BE84" rx="3" ry="3" style="stroke:#038048;stroke-width:1.0;"/><text fill="#000000" font-family="sans-serif" font-size="14" lengthAdjust="spacing" textLength="332" x="1477.094" y="1064.4951">void execute(int number, Hero *hero) override</text></g><!--MD5=[3026d852bb0876305595206c59471727]
class battle--><g id="elem_battle"><rect codeLine="68" fill="#F1F1F1" height="113.1875" id="battle" rx="2.5" ry="2.5" style="stroke:#181818;stroke-width:0.5;" width="358" x="1850.094" y="983"/><ellipse cx="2002.344" cy="999" fill="#ADD1B2" rx="11" ry="11" style="stroke:#181818;stroke-width:1.0;"/><path d="M2004.6878,994.6719 C2003.7503,994.2344 2003.1565,994.0938 2002.2815,994.0938 C1999.6565,994.0938 1997.6565,996.1719 1997.6565,998.8906 L1997.6565,1000.0156 C1997.6565,1002.5938 1999.7659,1004.4844 2002.6565,1004.4844 C2003.8753,1004.4844 2005.0315,1004.1875 2005.7815,1003.6406 C2006.3596,1003.2344 2006.6878,1002.7813 2006.6878,1002.3906 C2006.6878,1001.9375 2006.2971,1001.5469 2005.8284,1001.5469 C2005.6096,1001.5469 2005.4065,1001.625 2005.219,1001.8125 C2004.7659,1002.2969 2004.7659,1002.2969 2004.5784,1002.3906 C2004.1565,1002.6563 2003.469,1002.7813 2002.7034,1002.7813 C2000.6565,1002.7813 1999.3596,1001.6875 1999.3596,999.9844 L1999.3596,998.8906 C1999.3596,997.1094 2000.6096,995.7969 2002.344,995.7969 C2002.9221,995.7969 2003.5315,995.9531 2004.0003,996.2031 C2004.4846,996.4844 2004.6565,996.7031 2004.7503,997.1094 C2004.8128,997.5156 2004.844,997.6406 2004.9846,997.7656 C2005.1253,997.9063 2005.3596,998.0156 2005.5784,998.0156 C2005.844,998.0156 2006.1096,997.875 2006.2815,997.6563 C2006.3909,997.5 2006.4221,997.3125 2006.4221,996.8906 L2006.4221,995.4688 C2006.4221,995.0313 2006.4065,994.9063 2006.3128,994.75 C2006.1565,994.4844 2005.8753,994.3438 2005.5784,994.3438 C2005.2815,994.3438 2005.0784,994.4375 2004.8596,994.75 L2004.6878,994.6719 Z " fill="#000000"/><text fill="#000000" font-family="sans-serif" font-size="14" lengthAdjust="spacing" textLength="45" x="2022.844" y="1003.8467">battle</text><line style="stroke:#181818;stroke-width:0.5;" x1="1851.094" x2="2207.094" y1="1015" y2="1015"/><rect fill="none" height="6" style="stroke:#C82930;stroke-width:1.0;" width="6" x="1858.094" y="1023"/><text fill="#000000" font-family="sans-serif" font-size="14" lengthAdjust="spacing" textLength="163" x="1870.094" y="1031.9951">Location location_data</text><rect fill="none" height="6" style="stroke:#C82930;stroke-width:1.0;" width="6" x="1858.094" y="1039.2969"/><text fill="#000000" font-family="sans-serif" font-size="14" lengthAdjust="spacing" textLength="131" x="1870.094" y="1048.292">Location* location</text><line style="stroke:#181818;stroke-width:0.5;" x1="1851.094" x2="2207.094" y1="1055.5938" y2="1055.5938"/><rect fill="#F24D5C" height="6" style="stroke:#C82930;stroke-width:1.0;" width="6" x="1858.094" y="1063.5938"/><text fill="#000000" font-family="sans-serif" font-size="14" lengthAdjust="spacing" textLength="292" x="1870.094" y="1072.5889">bool Attack(int atk_rate, int evade_rate)</text><ellipse cx="1861.094" cy="1082.8906" fill="#84BE84" rx="3" ry="3" style="stroke:#038048;stroke-width:1.0;"/><text fill="#000000" font-family="sans-serif" font-size="14" lengthAdjust="spacing" textLength="332" x="1870.094" y="1088.8857">void execute(int number, Hero *hero) override</text></g><!--MD5=[09b78c6047db83a9355d1ba77fb814fc]
class attack_spell--><g id="elem_attack_spell"><rect codeLine="76" fill="#F1F1F1" height="64.2969" id="attack_spell" rx="2.5" ry="2.5" style="stroke:#181818;stroke-width:0.5;" width="358" x="758.094" y="1188.5"/><ellipse cx="888.844" cy="1204.5" fill="#ADD1B2" rx="11" ry="11" style="stroke:#181818;stroke-width:1.0;"/><path d="M891.1877,1200.1719 C890.2502,1199.7344 889.6565,1199.5938 888.7815,1199.5938 C886.1565,1199.5938 884.1565,1201.6719 884.1565,1204.3906 L884.1565,1205.5156 C884.1565,1208.0938 886.2659,1209.9844 889.1565,1209.9844 C890.3752,1209.9844 891.5315,1209.6875 892.2815,1209.1406 C892.8596,1208.7344 893.1877,1208.2813 893.1877,1207.8906 C893.1877,1207.4375 892.7971,1207.0469 892.3284,1207.0469 C892.1096,1207.0469 891.9065,1207.125 891.719,1207.3125 C891.2659,1207.7969 891.2659,1207.7969 891.0784,1207.8906 C890.6565,1208.1563 889.969,1208.2813 889.2034,1208.2813 C887.1565,1208.2813 885.8596,1207.1875 885.8596,1205.4844 L885.8596,1204.3906 C885.8596,1202.6094 887.1096,1201.2969 888.844,1201.2969 C889.4221,1201.2969 890.0315,1201.4531 890.5002,1201.7031 C890.9846,1201.9844 891.1565,1202.2031 891.2502,1202.6094 C891.3127,1203.0156 891.344,1203.1406 891.4846,1203.2656 C891.6252,1203.4063 891.8596,1203.5156 892.0784,1203.5156 C892.344,1203.5156 892.6096,1203.375 892.7815,1203.1563 C892.8909,1203 892.9221,1202.8125 892.9221,1202.3906 L892.9221,1200.9688 C892.9221,1200.5313 892.9065,1200.4063 892.8127,1200.25 C892.6565,1199.9844 892.3752,1199.8438 892.0784,1199.8438 C891.7815,1199.8438 891.5784,1199.9375 891.3596,1200.25 L891.1877,1200.1719 Z " fill="#000000"/><text fill="#000000" font-family="sans-serif" font-size="14" lengthAdjust="spacing" textLength="88" x="909.344" y="1209.3467">attack_spell</text><line style="stroke:#181818;stroke-width:0.5;" x1="759.094" x2="1115.094" y1="1220.5" y2="1220.5"/><line style="stroke:#181818;stroke-width:0.5;" x1="759.094" x2="1115.094" y1="1228.5" y2="1228.5"/><ellipse cx="769.094" cy="1239.5" fill="#84BE84" rx="3" ry="3" style="stroke:#038048;stroke-width:1.0;"/><text fill="#000000" font-family="sans-serif" font-size="14" lengthAdjust="spacing" textLength="332" x="778.094" y="1245.4951">void execute(int number, Hero *hero) override</text></g><!--MD5=[f126f6e1b8de651b71cbc5cba5a356cb]
class attack_target--><g id="elem_attack_target"><rect codeLine="80" fill="#F1F1F1" height="64.2969" id="attack_target" rx="2.5" ry="2.5" style="stroke:#181818;stroke-width:0.5;" width="358" x="2549.094" y="1188.5"/><ellipse cx="2673.844" cy="1204.5" fill="#ADD1B2" rx="11" ry="11" style="stroke:#181818;stroke-width:1.0;"/><path d="M2676.1878,1200.1719 C2675.2503,1199.7344 2674.6565,1199.5938 2673.7815,1199.5938 C2671.1565,1199.5938 2669.1565,1201.6719 2669.1565,1204.3906 L2669.1565,1205.5156 C2669.1565,1208.0938 2671.2659,1209.9844 2674.1565,1209.9844 C2675.3753,1209.9844 2676.5315,1209.6875 2677.2815,1209.1406 C2677.8596,1208.7344 2678.1878,1208.2813 2678.1878,1207.8906 C2678.1878,1207.4375 2677.7971,1207.0469 2677.3284,1207.0469 C2677.1096,1207.0469 2676.9065,1207.125 2676.719,1207.3125 C2676.2659,1207.7969 2676.2659,1207.7969 2676.0784,1207.8906 C2675.6565,1208.1563 2674.969,1208.2813 2674.2034,1208.2813 C2672.1565,1208.2813 2670.8596,1207.1875 2670.8596,1205.4844 L2670.8596,1204.3906 C2670.8596,1202.6094 2672.1096,1201.2969 2673.844,1201.2969 C2674.4221,1201.2969 2675.0315,1201.4531 2675.5003,1201.7031 C2675.9846,1201.9844 2676.1565,1202.2031 2676.2503,1202.6094 C2676.3128,1203.0156 2676.344,1203.1406 2676.4846,1203.2656 C2676.6253,1203.4063 2676.8596,1203.5156 2677.0784,1203.5156 C2677.344,1203.5156 2677.6096,1203.375 2677.7815,1203.1563 C2677.8909,1203 2677.9221,1202.8125 2677.9221,1202.3906 L2677.9221,1200.9688 C2677.9221,1200.5313 2677.9065,1200.4063 2677.8128,1200.25 C2677.6565,1199.9844 2677.3753,1199.8438 2677.0784,1199.8438 C2676.7815,1199.8438 2676.5784,1199.9375 2676.3596,1200.25 L2676.1878,1200.1719 Z " fill="#000000"/><text fill="#000000" font-family="sans-serif" font-size="14" lengthAdjust="spacing" textLength="100" x="2694.344" y="1209.3467">attack_target</text><line style="stroke:#181818;stroke-width:0.5;" x1="2550.094" x2="2906.094" y1="1220.5" y2="1220.5"/><line style="stroke:#181818;stroke-width:0.5;" x1="2550.094" x2="2906.094" y1="1228.5" y2="1228.5"/><ellipse cx="2560.094" cy="1239.5" fill="#84BE84" rx="3" ry="3" style="stroke:#038048;stroke-width:1.0;"/><text fill="#000000" font-family="sans-serif" font-size="14" lengthAdjust="spacing" textLength="332" x="2569.094" y="1245.4951">void execute(int number, Hero *hero) override</text></g><!--MD5=[b6dcce5e5ef3c84b0b048d11301373dd]
class Game--><g id="elem_Game"><rect codeLine="101" fill="#F1F1F1" height="64.2969" id="Game" rx="2.5" ry="2.5" style="stroke:#181818;stroke-width:0.5;" width="358" x="1689.094" y="818"/><ellipse cx="1842.844" cy="834" fill="#ADD1B2" rx="11" ry="11" style="stroke:#181818;stroke-width:1.0;"/><path d="M1845.1878,829.6719 C1844.2503,829.2344 1843.6565,829.0938 1842.7815,829.0938 C1840.1565,829.0938 1838.1565,831.1719 1838.1565,833.8906 L1838.1565,835.0156 C1838.1565,837.5938 1840.2659,839.4844 1843.1565,839.4844 C1844.3753,839.4844 1845.5315,839.1875 1846.2815,838.6406 C1846.8596,838.2344 1847.1878,837.7813 1847.1878,837.3906 C1847.1878,836.9375 1846.7971,836.5469 1846.3284,836.5469 C1846.1096,836.5469 1845.9065,836.625 1845.719,836.8125 C1845.2659,837.2969 1845.2659,837.2969 1845.0784,837.3906 C1844.6565,837.6563 1843.969,837.7813 1843.2034,837.7813 C1841.1565,837.7813 1839.8596,836.6875 1839.8596,834.9844 L1839.8596,833.8906 C1839.8596,832.1094 1841.1096,830.7969 1842.844,830.7969 C1843.4221,830.7969 1844.0315,830.9531 1844.5003,831.2031 C1844.9846,831.4844 1845.1565,831.7031 1845.2503,832.1094 C1845.3128,832.5156 1845.344,832.6406 1845.4846,832.7656 C1845.6253,832.9063 1845.8596,833.0156 1846.0784,833.0156 C1846.344,833.0156 1846.6096,832.875 1846.7815,832.6563 C1846.8909,832.5 1846.9221,832.3125 1846.9221,831.8906 L1846.9221,830.4688 C1846.9221,830.0313 1846.9065,829.9063 1846.8128,829.75 C1846.6565,829.4844 1846.3753,829.3438 1846.0784,829.3438 C1845.7815,829.3438 1845.5784,829.4375 1845.3596,829.75 L1845.1878,829.6719 Z " fill="#000000"/><text fill="#000000" font-family="sans-serif" font-size="14" lengthAdjust="spacing" textLength="42" x="1863.344" y="838.8467">Game</text><line style="stroke:#181818;stroke-width:0.5;" x1="1690.094" x2="2046.094" y1="850" y2="850"/><line style="stroke:#181818;stroke-width:0.5;" x1="1690.094" x2="2046.094" y1="858" y2="858"/><ellipse cx="1700.094" cy="869" fill="#84BE84" rx="3" ry="3" style="stroke:#038048;stroke-width:1.0;"/><text fill="#000000" font-family="sans-serif" font-size="14" lengthAdjust="spacing" textLength="332" x="1709.094" y="874.9951">void execute(int number, Hero *hero) override</text></g><!--MD5=[c3e90ddf025068297a002399d3e6c720]
class levelup--><g id="elem_levelup"><rect codeLine="85" fill="#F1F1F1" height="64.2969" id="levelup" rx="2.5" ry="2.5" style="stroke:#181818;stroke-width:0.5;" width="358" x="2243.094" y="1007.5"/><ellipse cx="2391.844" cy="1023.5" fill="#ADD1B2" rx="11" ry="11" style="stroke:#181818;stroke-width:1.0;"/><path d="M2394.1878,1019.1719 C2393.2503,1018.7344 2392.6565,1018.5938 2391.7815,1018.5938 C2389.1565,1018.5938 2387.1565,1020.6719 2387.1565,1023.3906 L2387.1565,1024.5156 C2387.1565,1027.0938 2389.2659,1028.9844 2392.1565,1028.9844 C2393.3753,1028.9844 2394.5315,1028.6875 2395.2815,1028.1406 C2395.8596,1027.7344 2396.1878,1027.2813 2396.1878,1026.8906 C2396.1878,1026.4375 2395.7971,1026.0469 2395.3284,1026.0469 C2395.1096,1026.0469 2394.9065,1026.125 2394.719,1026.3125 C2394.2659,1026.7969 2394.2659,1026.7969 2394.0784,1026.8906 C2393.6565,1027.1563 2392.969,1027.2813 2392.2034,1027.2813 C2390.1565,1027.2813 2388.8596,1026.1875 2388.8596,1024.4844 L2388.8596,1023.3906 C2388.8596,1021.6094 2390.1096,1020.2969 2391.844,1020.2969 C2392.4221,1020.2969 2393.0315,1020.4531 2393.5003,1020.7031 C2393.9846,1020.9844 2394.1565,1021.2031 2394.2503,1021.6094 C2394.3128,1022.0156 2394.344,1022.1406 2394.4846,1022.2656 C2394.6253,1022.4063 2394.8596,1022.5156 2395.0784,1022.5156 C2395.344,1022.5156 2395.6096,1022.375 2395.7815,1022.1563 C2395.8909,1022 2395.9221,1021.8125 2395.9221,1021.3906 L2395.9221,1019.9688 C2395.9221,1019.5313 2395.9065,1019.4063 2395.8128,1019.25 C2395.6565,1018.9844 2395.3753,1018.8438 2395.0784,1018.8438 C2394.7815,1018.8438 2394.5784,1018.9375 2394.3596,1019.25 L2394.1878,1019.1719 Z " fill="#000000"/><text fill="#000000" font-family="sans-serif" font-size="14" lengthAdjust="spacing" textLength="52" x="2412.344" y="1028.3467">levelup</text><line style="stroke:#181818;stroke-width:0.5;" x1="2244.094" x2="2600.094" y1="1039.5" y2="1039.5"/><line style="stroke:#181818;stroke-width:0.5;" x1="2244.094" x2="2600.094" y1="1047.5" y2="1047.5"/><ellipse cx="2254.094" cy="1058.5" fill="#84BE84" rx="3" ry="3" style="stroke:#038048;stroke-width:1.0;"/><text fill="#000000" font-family="sans-serif" font-size="14" lengthAdjust="spacing" textLength="332" x="2263.094" y="1064.4951">void execute(int number, Hero *hero) override</text></g><!--MD5=[f79bc37f2572586b8dd34ea930a858c2]
class make_save--><g id="elem_make_save"><rect codeLine="89" fill="#F1F1F1" height="64.2969" id="make_save" rx="2.5" ry="2.5" style="stroke:#181818;stroke-width:0.5;" width="358" x="2636.094" y="1007.5"/><ellipse cx="2771.344" cy="1023.5" fill="#ADD1B2" rx="11" ry="11" style="stroke:#181818;stroke-width:1.0;"/><path d="M2773.6878,1019.1719 C2772.7503,1018.7344 2772.1565,1018.5938 2771.2815,1018.5938 C2768.6565,1018.5938 2766.6565,1020.6719 2766.6565,1023.3906 L2766.6565,1024.5156 C2766.6565,1027.0938 2768.7659,1028.9844 2771.6565,1028.9844 C2772.8753,1028.9844 2774.0315,1028.6875 2774.7815,1028.1406 C2775.3596,1027.7344 2775.6878,1027.2813 2775.6878,1026.8906 C2775.6878,1026.4375 2775.2971,1026.0469 2774.8284,1026.0469 C2774.6096,1026.0469 2774.4065,1026.125 2774.219,1026.3125 C2773.7659,1026.7969 2773.7659,1026.7969 2773.5784,1026.8906 C2773.1565,1027.1563 2772.469,1027.2813 2771.7034,1027.2813 C2769.6565,1027.2813 2768.3596,1026.1875 2768.3596,1024.4844 L2768.3596,1023.3906 C2768.3596,1021.6094 2769.6096,1020.2969 2771.344,1020.2969 C2771.9221,1020.2969 2772.5315,1020.4531 2773.0003,1020.7031 C2773.4846,1020.9844 2773.6565,1021.2031 2773.7503,1021.6094 C2773.8128,1022.0156 2773.844,1022.1406 2773.9846,1022.2656 C2774.1253,1022.4063 2774.3596,1022.5156 2774.5784,1022.5156 C2774.844,1022.5156 2775.1096,1022.375 2775.2815,1022.1563 C2775.3909,1022 2775.4221,1021.8125 2775.4221,1021.3906 L2775.4221,1019.9688 C2775.4221,1019.5313 2775.4065,1019.4063 2775.3128,1019.25 C2775.1565,1018.9844 2774.8753,1018.8438 2774.5784,1018.8438 C2774.2815,1018.8438 2774.0784,1018.9375 2773.8596,1019.25 L2773.6878,1019.1719 Z " fill="#000000"/><text fill="#000000" font-family="sans-serif" font-size="14" lengthAdjust="spacing" textLength="79" x="2791.844" y="1028.3467">make_save</text><line style="stroke:#181818;stroke-width:0.5;" x1="2637.094" x2="2993.094" y1="1039.5" y2="1039.5"/><line style="stroke:#181818;stroke-width:0.5;" x1="2637.094" x2="2993.094" y1="1047.5" y2="1047.5"/><ellipse cx="2647.094" cy="1058.5" fill="#84BE84" rx="3" ry="3" style="stroke:#038048;stroke-width:1.0;"/><text fill="#000000" font-family="sans-serif" font-size="14" lengthAdjust="spacing" textLength="332" x="2656.094" y="1064.4951">void execute(int number, Hero *hero) override</text></g><!--MD5=[7c8749bc6a4f5e454677f8d5c80a2093]
class choose_hero--><g id="elem_choose_hero"><rect codeLine="93" fill="#F1F1F1" height="64.2969" id="choose_hero" rx="2.5" ry="2.5" style="stroke:#181818;stroke-width:0.5;" width="358" x="3100.094" y="457.5"/><ellipse cx="3229.344" cy="473.5" fill="#ADD1B2" rx="11" ry="11" style="stroke:#181818;stroke-width:1.0;"/><path d="M3231.6878,469.1719 C3230.7503,468.7344 3230.1565,468.5938 3229.2815,468.5938 C3226.6565,468.5938 3224.6565,470.6719 3224.6565,473.3906 L3224.6565,474.5156 C3224.6565,477.0938 3226.7659,478.9844 3229.6565,478.9844 C3230.8753,478.9844 3232.0315,478.6875 3232.7815,478.1406 C3233.3596,477.7344 3233.6878,477.2813 3233.6878,476.8906 C3233.6878,476.4375 3233.2971,476.0469 3232.8284,476.0469 C3232.6096,476.0469 3232.4065,476.125 3232.219,476.3125 C3231.7659,476.7969 3231.7659,476.7969 3231.5784,476.8906 C3231.1565,477.1563 3230.469,477.2813 3229.7034,477.2813 C3227.6565,477.2813 3226.3596,476.1875 3226.3596,474.4844 L3226.3596,473.3906 C3226.3596,471.6094 3227.6096,470.2969 3229.344,470.2969 C3229.9221,470.2969 3230.5315,470.4531 3231.0003,470.7031 C3231.4846,470.9844 3231.6565,471.2031 3231.7503,471.6094 C3231.8128,472.0156 3231.844,472.1406 3231.9846,472.2656 C3232.1253,472.4063 3232.3596,472.5156 3232.5784,472.5156 C3232.844,472.5156 3233.1096,472.375 3233.2815,472.1563 C3233.3909,472 3233.4221,471.8125 3233.4221,471.3906 L3233.4221,469.9688 C3233.4221,469.5313 3233.4065,469.4063 3233.3128,469.25 C3233.1565,468.9844 3232.8753,468.8438 3232.5784,468.8438 C3232.2815,468.8438 3232.0784,468.9375 3231.8596,469.25 L3231.6878,469.1719 Z " fill="#000000"/><text fill="#000000" font-family="sans-serif" font-size="14" lengthAdjust="spacing" textLength="91" x="3249.844" y="478.3467">choose_hero</text><line style="stroke:#181818;stroke-width:0.5;" x1="3101.094" x2="3457.094" y1="489.5" y2="489.5"/><line style="stroke:#181818;stroke-width:0.5;" x1="3101.094" x2="3457.094" y1="497.5" y2="497.5"/><ellipse cx="3111.094" cy="508.5" fill="#84BE84" rx="3" ry="3" style="stroke:#038048;stroke-width:1.0;"/><text fill="#000000" font-family="sans-serif" font-size="14" lengthAdjust="spacing" textLength="332" x="3120.094" y="514.4951">void execute(int number, Hero *hero) override</text></g><!--MD5=[4953b10886624cd7b0e20a42bc989e3c]
class choose_save--><g id="elem_choose_save"><rect codeLine="97" fill="#F1F1F1" height="64.2969" id="choose_save" rx="2.5" ry="2.5" style="stroke:#181818;stroke-width:0.5;" width="358" x="3493.094" y="457.5"/><ellipse cx="3622.844" cy="473.5" fill="#ADD1B2" rx="11" ry="11" style="stroke:#181818;stroke-width:1.0;"/><path d="M3625.1878,469.1719 C3624.2503,468.7344 3623.6565,468.5938 3622.7815,468.5938 C3620.1565,468.5938 3618.1565,470.6719 3618.1565,473.3906 L3618.1565,474.5156 C3618.1565,477.0938 3620.2659,478.9844 3623.1565,478.9844 C3624.3753,478.9844 3625.5315,478.6875 3626.2815,478.1406 C3626.8596,477.7344 3627.1878,477.2813 3627.1878,476.8906 C3627.1878,476.4375 3626.7971,476.0469 3626.3284,476.0469 C3626.1096,476.0469 3625.9065,476.125 3625.719,476.3125 C3625.2659,476.7969 3625.2659,476.7969 3625.0784,476.8906 C3624.6565,477.1563 3623.969,477.2813 3623.2034,477.2813 C3621.1565,477.2813 3619.8596,476.1875 3619.8596,474.4844 L3619.8596,473.3906 C3619.8596,471.6094 3621.1096,470.2969 3622.844,470.2969 C3623.4221,470.2969 3624.0315,470.4531 3624.5003,470.7031 C3624.9846,470.9844 3625.1565,471.2031 3625.2503,471.6094 C3625.3128,472.0156 3625.344,472.1406 3625.4846,472.2656 C3625.6253,472.4063 3625.8596,472.5156 3626.0784,472.5156 C3626.344,472.5156 3626.6096,472.375 3626.7815,472.1563 C3626.8909,472 3626.9221,471.8125 3626.9221,471.3906 L3626.9221,469.9688 C3626.9221,469.5313 3626.9065,469.4063 3626.8128,469.25 C3626.6565,468.9844 3626.3753,468.8438 3626.0784,468.8438 C3625.7815,468.8438 3625.5784,468.9375 3625.3596,469.25 L3625.1878,469.1719 Z " fill="#000000"/><text fill="#000000" font-family="sans-serif" font-size="14" lengthAdjust="spacing" textLength="90" x="3643.344" y="478.3467">choose_save</text><line style="stroke:#181818;stroke-width:0.5;" x1="3494.094" x2="3850.094" y1="489.5" y2="489.5"/><line style="stroke:#181818;stroke-width:0.5;" x1="3494.094" x2="3850.094" y1="497.5" y2="497.5"/><ellipse cx="3504.094" cy="508.5" fill="#84BE84" rx="3" ry="3" style="stroke:#038048;stroke-width:1.0;"/><text fill="#000000" font-family="sans-serif" font-size="14" lengthAdjust="spacing" textLength="332" x="3513.094" y="514.4951">void execute(int number, Hero *hero) override</text></g><!--MD5=[91479ea48b7ac5e240af5b8b7c66443f]
class location--><g id="elem_location"><rect codeLine="105" fill="#F1F1F1" height="129.4844" id="location" rx="2.5" ry="2.5" style="stroke:#181818;stroke-width:0.5;" width="334" x="1862.094" y="1156"/><ellipse cx="1995.844" cy="1172" fill="#ADD1B2" rx="11" ry="11" style="stroke:#181818;stroke-width:1.0;"/><path d="M1998.1878,1167.6719 C1997.2503,1167.2344 1996.6565,1167.0938 1995.7815,1167.0938 C1993.1565,1167.0938 1991.1565,1169.1719 1991.1565,1171.8906 L1991.1565,1173.0156 C1991.1565,1175.5938 1993.2659,1177.4844 1996.1565,1177.4844 C1997.3753,1177.4844 1998.5315,1177.1875 1999.2815,1176.6406 C1999.8596,1176.2344 2000.1878,1175.7813 2000.1878,1175.3906 C2000.1878,1174.9375 1999.7971,1174.5469 1999.3284,1174.5469 C1999.1096,1174.5469 1998.9065,1174.625 1998.719,1174.8125 C1998.2659,1175.2969 1998.2659,1175.2969 1998.0784,1175.3906 C1997.6565,1175.6563 1996.969,1175.7813 1996.2034,1175.7813 C1994.1565,1175.7813 1992.8596,1174.6875 1992.8596,1172.9844 L1992.8596,1171.8906 C1992.8596,1170.1094 1994.1096,1168.7969 1995.844,1168.7969 C1996.4221,1168.7969 1997.0315,1168.9531 1997.5003,1169.2031 C1997.9846,1169.4844 1998.1565,1169.7031 1998.2503,1170.1094 C1998.3128,1170.5156 1998.344,1170.6406 1998.4846,1170.7656 C1998.6253,1170.9063 1998.8596,1171.0156 1999.0784,1171.0156 C1999.344,1171.0156 1999.6096,1170.875 1999.7815,1170.6563 C1999.8909,1170.5 1999.9221,1170.3125 1999.9221,1169.8906 L1999.9221,1168.4688 C1999.9221,1168.0313 1999.9065,1167.9063 1999.8128,1167.75 C1999.6565,1167.4844 1999.3753,1167.3438 1999.0784,1167.3438 C1998.7815,1167.3438 1998.5784,1167.4375 1998.3596,1167.75 L1998.1878,1167.6719 Z " fill="#000000"/><text fill="#000000" font-family="sans-serif" font-size="14" lengthAdjust="spacing" textLength="58" x="2016.344" y="1176.8467">location</text><line style="stroke:#181818;stroke-width:0.5;" x1="1863.094" x2="2195.094" y1="1188" y2="1188"/><ellipse cx="1873.094" cy="1199" fill="none" rx="3" ry="3" style="stroke:#038048;stroke-width:1.0;"/><text fill="#000000" font-family="sans-serif" font-size="14" lengthAdjust="spacing" textLength="119" x="1882.094" y="1204.9951">std::string name</text><ellipse cx="1873.094" cy="1215.2969" fill="none" rx="3" ry="3" style="stroke:#038048;stroke-width:1.0;"/><text fill="#000000" font-family="sans-serif" font-size="14" lengthAdjust="spacing" textLength="79" x="1882.094" y="1221.292">int amount</text><ellipse cx="1873.094" cy="1231.5938" fill="none" rx="3" ry="3" style="stroke:#038048;stroke-width:1.0;"/><text fill="#000000" font-family="sans-serif" font-size="14" lengthAdjust="spacing" textLength="308" x="1882.094" y="1237.5889">std::vector&lt;std::vector&lt;Monster&gt;&gt; levels</text><ellipse cx="1873.094" cy="1247.8906" fill="none" rx="3" ry="3" style="stroke:#038048;stroke-width:1.0;"/><text fill="#000000" font-family="sans-serif" font-size="14" lengthAdjust="spacing" textLength="186" x="1882.094" y="1253.8857">std::vector&lt;int&gt; treasure</text><line style="stroke:#181818;stroke-width:0.5;" x1="1863.094" x2="2195.094" y1="1261.1875" y2="1261.1875"/><ellipse cx="1873.094" cy="1272.1875" fill="#84BE84" rx="3" ry="3" style="stroke:#038048;stroke-width:1.0;"/><text fill="#000000" font-family="sans-serif" font-size="14" lengthAdjust="spacing" textLength="175" x="1882.094" y="1278.1826">void generate_location()</text></g><!--MD5=[d2c4278637bdc93ab6ebd71329cfa63c]
class Monster--><g id="elem_Monster"><rect codeLine="113" fill="#F1F1F1" height="243.5625" id="Monster" rx="2.5" ry="2.5" style="stroke:#181818;stroke-width:0.5;" width="145" x="1956.594" y="1345"/><ellipse cx="1995.894" cy="1361" fill="#ADD1B2" rx="11" ry="11" style="stroke:#181818;stroke-width:1.0;"/><path d="M1998.2378,1356.6719 C1997.3003,1356.2344 1996.7065,1356.0938 1995.8315,1356.0938 C1993.2065,1356.0938 1991.2065,1358.1719 1991.2065,1360.8906 L1991.2065,1362.0156 C1991.2065,1364.5938 1993.3159,1366.4844 1996.2065,1366.4844 C1997.4253,1366.4844 1998.5815,1366.1875 1999.3315,1365.6406 C1999.9096,1365.2344 2000.2378,1364.7813 2000.2378,1364.3906 C2000.2378,1363.9375 1999.8471,1363.5469 1999.3784,1363.5469 C1999.1596,1363.5469 1998.9565,1363.625 1998.769,1363.8125 C1998.3159,1364.2969 1998.3159,1364.2969 1998.1284,1364.3906 C1997.7065,1364.6563 1997.019,1364.7813 1996.2534,1364.7813 C1994.2065,1364.7813 1992.9096,1363.6875 1992.9096,1361.9844 L1992.9096,1360.8906 C1992.9096,1359.1094 1994.1596,1357.7969 1995.894,1357.7969 C1996.4721,1357.7969 1997.0815,1357.9531 1997.5503,1358.2031 C1998.0346,1358.4844 1998.2065,1358.7031 1998.3003,1359.1094 C1998.3628,1359.5156 1998.394,1359.6406 1998.5346,1359.7656 C1998.6753,1359.9063 1998.9096,1360.0156 1999.1284,1360.0156 C1999.394,1360.0156 1999.6596,1359.875 1999.8315,1359.6563 C1999.9409,1359.5 1999.9721,1359.3125 1999.9721,1358.8906 L1999.9721,1357.4688 C1999.9721,1357.0313 1999.9565,1356.9063 1999.8628,1356.75 C1999.7065,1356.4844 1999.4253,1356.3438 1999.1284,1356.3438 C1998.8315,1356.3438 1998.6284,1356.4375 1998.4096,1356.75 L1998.2378,1356.6719 Z " fill="#000000"/><text fill="#000000" font-family="sans-serif" font-size="14" lengthAdjust="spacing" textLength="59" x="2015.294" y="1365.8467">Monster</text><line style="stroke:#181818;stroke-width:0.5;" x1="1957.594" x2="2100.594" y1="1377" y2="1377"/><ellipse cx="1967.594" cy="1388" fill="none" rx="3" ry="3" style="stroke:#038048;stroke-width:1.0;"/><text fill="#000000" font-family="sans-serif" font-size="14" lengthAdjust="spacing" textLength="119" x="1976.594" y="1393.9951">std::string name</text><ellipse cx="1967.594" cy="1404.2969" fill="none" rx="3" ry="3" style="stroke:#038048;stroke-width:1.0;"/><text fill="#000000" font-family="sans-serif" font-size="14" lengthAdjust="spacing" textLength="70" x="1976.594" y="1410.292">int health</text><ellipse cx="1967.594" cy="1420.5938" fill="none" rx="3" ry="3" style="stroke:#038048;stroke-width:1.0;"/><text fill="#000000" font-family="sans-serif" font-size="14" lengthAdjust="spacing" textLength="67" x="1976.594" y="1426.5889">int evade</text><ellipse cx="1967.594" cy="1436.8906" fill="none" rx="3" ry="3" style="stroke:#038048;stroke-width:1.0;"/><text fill="#000000" font-family="sans-serif" font-size="14" lengthAdjust="spacing" textLength="71" x="1976.594" y="1442.8857">int attack</text><ellipse cx="1967.594" cy="1453.1875" fill="none" rx="3" ry="3" style="stroke:#038048;stroke-width:1.0;"/><text fill="#000000" font-family="sans-serif" font-size="14" lengthAdjust="spacing" textLength="81" x="1976.594" y="1459.1826">int damage</text><ellipse cx="1967.594" cy="1469.4844" fill="none" rx="3" ry="3" style="stroke:#038048;stroke-width:1.0;"/><text fill="#000000" font-family="sans-serif" font-size="14" lengthAdjust="spacing" textLength="73" x="1976.594" y="1475.4795">int money</text><ellipse cx="1967.594" cy="1485.7813" fill="none" rx="3" ry="3" style="stroke:#038048;stroke-width:1.0;"/><text fill="#000000" font-family="sans-serif" font-size="14" lengthAdjust="spacing" textLength="51" x="1976.594" y="1491.7764">int exp</text><ellipse cx="1967.594" cy="1502.0781" fill="none" rx="3" ry="3" style="stroke:#038048;stroke-width:1.0;"/><text fill="#000000" font-family="sans-serif" font-size="14" lengthAdjust="spacing" textLength="58" x="1976.594" y="1508.0732">int level</text><ellipse cx="1967.594" cy="1518.375" fill="none" rx="3" ry="3" style="stroke:#038048;stroke-width:1.0;"/><text fill="#000000" font-family="sans-serif" font-size="14" lengthAdjust="spacing" textLength="49" x="1976.594" y="1524.3701">int diff</text><ellipse cx="1967.594" cy="1534.6719" fill="none" rx="3" ry="3" style="stroke:#038048;stroke-width:1.0;"/><text fill="#000000" font-family="sans-serif" font-size="14" lengthAdjust="spacing" textLength="71" x="1976.594" y="1540.667">bool dead</text><line style="stroke:#181818;stroke-width:0.5;" x1="1957.594" x2="2100.594" y1="1547.9688" y2="1547.9688"/><ellipse cx="1967.594" cy="1558.9688" fill="#84BE84" rx="3" ry="3" style="stroke:#038048;stroke-width:1.0;"/><text fill="#000000" font-family="sans-serif" font-size="14" lengthAdjust="spacing" textLength="94" x="1976.594" y="1564.9639">void rebuild()</text><ellipse cx="1967.594" cy="1575.2656" fill="#84BE84" rx="3" ry="3" style="stroke:#038048;stroke-width:1.0;"/><text fill="#000000" font-family="sans-serif" font-size="14" lengthAdjust="spacing" textLength="117" x="1976.594" y="1581.2607">std::string info()</text></g><!--MD5=[666ab4d123c8a4db535fefed801ea066]
class Hero--><g id="elem_Hero"><rect codeLine="128" fill="#F1F1F1" height="455.4219" id="Hero" rx="2.5" ry="2.5" style="stroke:#181818;stroke-width:0.5;" width="209" x="3886.594" y="262"/><ellipse cx="3969.844" cy="278" fill="#ADD1B2" rx="11" ry="11" style="stroke:#181818;stroke-width:1.0;"/><path d="M3972.1878,273.6719 C3971.2503,273.2344 3970.6565,273.0938 3969.7815,273.0938 C3967.1565,273.0938 3965.1565,275.1719 3965.1565,277.8906 L3965.1565,279.0156 C3965.1565,281.5938 3967.2659,283.4844 3970.1565,283.4844 C3971.3753,283.4844 3972.5315,283.1875 3973.2815,282.6406 C3973.8596,282.2344 3974.1878,281.7813 3974.1878,281.3906 C3974.1878,280.9375 3973.7971,280.5469 3973.3284,280.5469 C3973.1096,280.5469 3972.9065,280.625 3972.719,280.8125 C3972.2659,281.2969 3972.2659,281.2969 3972.0784,281.3906 C3971.6565,281.6563 3970.969,281.7813 3970.2034,281.7813 C3968.1565,281.7813 3966.8596,280.6875 3966.8596,278.9844 L3966.8596,277.8906 C3966.8596,276.1094 3968.1096,274.7969 3969.844,274.7969 C3970.4221,274.7969 3971.0315,274.9531 3971.5003,275.2031 C3971.9846,275.4844 3972.1565,275.7031 3972.2503,276.1094 C3972.3128,276.5156 3972.344,276.6406 3972.4846,276.7656 C3972.6253,276.9063 3972.8596,277.0156 3973.0784,277.0156 C3973.344,277.0156 3973.6096,276.875 3973.7815,276.6563 C3973.8909,276.5 3973.9221,276.3125 3973.9221,275.8906 L3973.9221,274.4688 C3973.9221,274.0313 3973.9065,273.9063 3973.8128,273.75 C3973.6565,273.4844 3973.3753,273.3438 3973.0784,273.3438 C3972.7815,273.3438 3972.5784,273.4375 3972.3596,273.75 L3972.1878,273.6719 Z " fill="#000000"/><text fill="#000000" font-family="sans-serif" font-size="14" lengthAdjust="spacing" textLength="34" x="3990.344" y="282.8467">Hero</text><line style="stroke:#181818;stroke-width:0.5;" x1="3887.594" x2="4094.594" y1="294" y2="294"/><rect fill="none" height="6" style="stroke:#C82930;stroke-width:1.0;" width="6" x="3894.594" y="302"/><text fill="#000000" font-family="sans-serif" font-size="14" lengthAdjust="spacing" textLength="183" x="3906.594" y="310.9951">std::string name_stat[10]</text><ellipse cx="3897.594" cy="321.2969" fill="none" rx="3" ry="3" style="stroke:#038048;stroke-width:1.0;"/><text fill="#000000" font-family="sans-serif" font-size="14" lengthAdjust="spacing" textLength="119" x="3906.594" y="327.292">std::string name</text><ellipse cx="3897.594" cy="337.5938" fill="none" rx="3" ry="3" style="stroke:#038048;stroke-width:1.0;"/><text fill="#000000" font-family="sans-serif" font-size="14" lengthAdjust="spacing" textLength="180" x="3906.594" y="343.5889">std::string name_stats[4]</text><ellipse cx="3897.594" cy="353.8906" fill="none" rx="3" ry="3" style="stroke:#038048;stroke-width:1.0;"/><text fill="#000000" font-family="sans-serif" font-size="14" lengthAdjust="spacing" textLength="70" x="3906.594" y="359.8857">int health</text><ellipse cx="3897.594" cy="370.1875" fill="none" rx="3" ry="3" style="stroke:#038048;stroke-width:1.0;"/><text fill="#000000" font-family="sans-serif" font-size="14" lengthAdjust="spacing" textLength="63" x="3906.594" y="376.1826">int mana</text><ellipse cx="3897.594" cy="386.4844" fill="none" rx="3" ry="3" style="stroke:#038048;stroke-width:1.0;"/><text fill="#000000" font-family="sans-serif" font-size="14" lengthAdjust="spacing" textLength="122" x="3906.594" y="392.4795">int phys_damage</text><ellipse cx="3897.594" cy="402.7813" fill="none" rx="3" ry="3" style="stroke:#038048;stroke-width:1.0;"/><text fill="#000000" font-family="sans-serif" font-size="14" lengthAdjust="spacing" textLength="122" x="3906.594" y="408.7764">int spell_damage</text><ellipse cx="3897.594" cy="419.0781" fill="none" rx="3" ry="3" style="stroke:#038048;stroke-width:1.0;"/><text fill="#000000" font-family="sans-serif" font-size="14" lengthAdjust="spacing" textLength="78" x="3906.594" y="425.0732">int stats[4]</text><ellipse cx="3897.594" cy="435.375" fill="none" rx="3" ry="3" style="stroke:#038048;stroke-width:1.0;"/><text fill="#000000" font-family="sans-serif" font-size="14" lengthAdjust="spacing" textLength="73" x="3906.594" y="441.3701">int money</text><ellipse cx="3897.594" cy="451.6719" fill="none" rx="3" ry="3" style="stroke:#038048;stroke-width:1.0;"/><text fill="#000000" font-family="sans-serif" font-size="14" lengthAdjust="spacing" textLength="51" x="3906.594" y="457.667">int exp</text><ellipse cx="3897.594" cy="467.9688" fill="none" rx="3" ry="3" style="stroke:#038048;stroke-width:1.0;"/><text fill="#000000" font-family="sans-serif" font-size="14" lengthAdjust="spacing" textLength="58" x="3906.594" y="473.9639">int level</text><ellipse cx="3897.594" cy="484.2656" fill="none" rx="3" ry="3" style="stroke:#038048;stroke-width:1.0;"/><text fill="#000000" font-family="sans-serif" font-size="14" lengthAdjust="spacing" textLength="103" x="3906.594" y="490.2607">bool level_cap</text><ellipse cx="3897.594" cy="500.5625" fill="none" rx="3" ry="3" style="stroke:#038048;stroke-width:1.0;"/><text fill="#000000" font-family="sans-serif" font-size="14" lengthAdjust="spacing" textLength="57" x="3906.594" y="506.5576">int cave</text><ellipse cx="3897.594" cy="516.8594" fill="none" rx="3" ry="3" style="stroke:#038048;stroke-width:1.0;"/><text fill="#000000" font-family="sans-serif" font-size="14" lengthAdjust="spacing" textLength="68" x="3906.594" y="522.8545">int revive</text><ellipse cx="3897.594" cy="533.1563" fill="none" rx="3" ry="3" style="stroke:#038048;stroke-width:1.0;"/><text fill="#000000" font-family="sans-serif" font-size="14" lengthAdjust="spacing" textLength="104" x="3906.594" y="539.1514">long long time</text><ellipse cx="3897.594" cy="549.4531" fill="none" rx="3" ry="3" style="stroke:#038048;stroke-width:1.0;"/><text fill="#000000" font-family="sans-serif" font-size="14" lengthAdjust="spacing" textLength="135" x="3906.594" y="555.4482">Equipment Loot[5]</text><ellipse cx="3897.594" cy="565.75" fill="none" rx="3" ry="3" style="stroke:#038048;stroke-width:1.0;"/><text fill="#000000" font-family="sans-serif" font-size="14" lengthAdjust="spacing" textLength="81" x="3906.594" y="571.7451">int stat[10]</text><line style="stroke:#181818;stroke-width:0.5;" x1="3887.594" x2="4094.594" y1="579.0469" y2="579.0469"/><rect fill="#F24D5C" height="6" style="stroke:#C82930;stroke-width:1.0;" width="6" x="3894.594" y="587.0469"/><text fill="#000000" font-family="sans-serif" font-size="14" lengthAdjust="spacing" textLength="63" x="3906.594" y="596.042">int hlth()</text><rect fill="#F24D5C" height="6" style="stroke:#C82930;stroke-width:1.0;" width="6" x="3894.594" y="603.3438"/><text fill="#000000" font-family="sans-serif" font-size="14" lengthAdjust="spacing" textLength="57" x="3906.594" y="612.3389">int mn()</text><rect fill="#F24D5C" height="6" style="stroke:#C82930;stroke-width:1.0;" width="6" x="3894.594" y="619.6406"/><text fill="#000000" font-family="sans-serif" font-size="14" lengthAdjust="spacing" textLength="100" x="3906.594" y="628.6357">int physdmg()</text><rect fill="#F24D5C" height="6" style="stroke:#C82930;stroke-width:1.0;" width="6" x="3894.594" y="635.9375"/><text fill="#000000" font-family="sans-serif" font-size="14" lengthAdjust="spacing" textLength="87" x="3906.594" y="644.9326">int spldmg()</text><rect fill="#F24D5C" height="6" style="stroke:#C82930;stroke-width:1.0;" width="6" x="3894.594" y="652.2344"/><text fill="#000000" font-family="sans-serif" font-size="14" lengthAdjust="spacing" textLength="60" x="3906.594" y="661.2295">int evd()</text><rect fill="#F24D5C" height="6" style="stroke:#C82930;stroke-width:1.0;" width="6" x="3894.594" y="668.5313"/><text fill="#000000" font-family="sans-serif" font-size="14" lengthAdjust="spacing" textLength="58" x="3906.594" y="677.5264">int atk()</text><rect fill="#F24D5C" height="6" style="stroke:#C82930;stroke-width:1.0;" width="6" x="3894.594" y="684.8281"/><text fill="#000000" font-family="sans-serif" font-size="14" lengthAdjust="spacing" textLength="87" x="3906.594" y="693.8232">int hlthrgn()</text><rect fill="#F24D5C" height="6" style="stroke:#C82930;stroke-width:1.0;" width="6" x="3894.594" y="701.125"/><text fill="#000000" font-family="sans-serif" font-size="14" lengthAdjust="spacing" textLength="81" x="3906.594" y="710.1201">int mnrgn()</text></g><!--MD5=[ffbe56a7748d828ba7d90b566e12a2a0]
class Equipment--><g id="elem_Equipment"><rect codeLine="156" fill="#F1F1F1" height="145.7813" id="Equipment" rx="2.5" ry="2.5" style="stroke:#181818;stroke-width:0.5;" width="153" x="3913.594" y="777"/><ellipse cx="3947.494" cy="793" fill="#ADD1B2" rx="11" ry="11" style="stroke:#181818;stroke-width:1.0;"/><path d="M3949.8378,788.6719 C3948.9003,788.2344 3948.3065,788.0938 3947.4315,788.0938 C3944.8065,788.0938 3942.8065,790.1719 3942.8065,792.8906 L3942.8065,794.0156 C3942.8065,796.5938 3944.9159,798.4844 3947.8065,798.4844 C3949.0253,798.4844 3950.1815,798.1875 3950.9315,797.6406 C3951.5096,797.2344 3951.8378,796.7813 3951.8378,796.3906 C3951.8378,795.9375 3951.4471,795.5469 3950.9784,795.5469 C3950.7596,795.5469 3950.5565,795.625 3950.369,795.8125 C3949.9159,796.2969 3949.9159,796.2969 3949.7284,796.3906 C3949.3065,796.6563 3948.619,796.7813 3947.8534,796.7813 C3945.8065,796.7813 3944.5096,795.6875 3944.5096,793.9844 L3944.5096,792.8906 C3944.5096,791.1094 3945.7596,789.7969 3947.494,789.7969 C3948.0721,789.7969 3948.6815,789.9531 3949.1503,790.2031 C3949.6346,790.4844 3949.8065,790.7031 3949.9003,791.1094 C3949.9628,791.5156 3949.994,791.6406 3950.1346,791.7656 C3950.2753,791.9063 3950.5096,792.0156 3950.7284,792.0156 C3950.994,792.0156 3951.2596,791.875 3951.4315,791.6563 C3951.5409,791.5 3951.5721,791.3125 3951.5721,790.8906 L3951.5721,789.4688 C3951.5721,789.0313 3951.5565,788.9063 3951.4628,788.75 C3951.3065,788.4844 3951.0253,788.3438 3950.7284,788.3438 C3950.4315,788.3438 3950.2284,788.4375 3950.0096,788.75 L3949.8378,788.6719 Z " fill="#000000"/><text fill="#000000" font-family="sans-serif" font-size="14" lengthAdjust="spacing" textLength="79" x="3965.694" y="797.8467">Equipment</text><line style="stroke:#181818;stroke-width:0.5;" x1="3914.594" x2="4065.594" y1="809" y2="809"/><ellipse cx="3924.594" cy="820" fill="none" rx="3" ry="3" style="stroke:#038048;stroke-width:1.0;"/><text fill="#000000" font-family="sans-serif" font-size="14" lengthAdjust="spacing" textLength="58" x="3933.594" y="825.9951">int type</text><ellipse cx="3924.594" cy="836.2969" fill="none" rx="3" ry="3" style="stroke:#038048;stroke-width:1.0;"/><text fill="#000000" font-family="sans-serif" font-size="14" lengthAdjust="spacing" textLength="50" x="3933.594" y="842.292">int tier</text><ellipse cx="3924.594" cy="852.5938" fill="none" rx="3" ry="3" style="stroke:#038048;stroke-width:1.0;"/><text fill="#000000" font-family="sans-serif" font-size="14" lengthAdjust="spacing" textLength="63" x="3933.594" y="858.5889">int rarity</text><line style="stroke:#181818;stroke-width:0.5;" x1="3914.594" x2="4065.594" y1="865.8906" y2="865.8906"/><ellipse cx="3924.594" cy="876.8906" fill="#84BE84" rx="3" ry="3" style="stroke:#038048;stroke-width:1.0;"/><text fill="#000000" font-family="sans-serif" font-size="14" lengthAdjust="spacing" textLength="117" x="3933.594" y="882.8857">std::string info()</text><ellipse cx="3924.594" cy="893.1875" fill="#84BE84" rx="3" ry="3" style="stroke:#038048;stroke-width:1.0;"/><text fill="#000000" font-family="sans-serif" font-size="14" lengthAdjust="spacing" textLength="127" x="3933.594" y="899.1826">std::string Stats()</text><ellipse cx="3924.594" cy="909.4844" fill="#84BE84" rx="3" ry="3" style="stroke:#038048;stroke-width:1.0;"/><text fill="#000000" font-family="sans-serif" font-size="14" lengthAdjust="spacing" textLength="65" x="3933.594" y="915.4795">int cost()</text></g><!--MD5=[6217f3c7f04bca5e5c5e6d8dd5796cd1]
class passive--><g id="elem_passive"><rect codeLine="165" fill="#F1F1F1" height="129.4844" id="passive" rx="2.5" ry="2.5" style="stroke:#181818;stroke-width:0.5;" width="447" x="4101.594" y="785.5"/><ellipse cx="4294.344" cy="801.5" fill="#ADD1B2" rx="11" ry="11" style="stroke:#181818;stroke-width:1.0;"/><path d="M4296.6878,797.1719 C4295.7503,796.7344 4295.1565,796.5938 4294.2815,796.5938 C4291.6565,796.5938 4289.6565,798.6719 4289.6565,801.3906 L4289.6565,802.5156 C4289.6565,805.0938 4291.7659,806.9844 4294.6565,806.9844 C4295.8753,806.9844 4297.0315,806.6875 4297.7815,806.1406 C4298.3596,805.7344 4298.6878,805.2813 4298.6878,804.8906 C4298.6878,804.4375 4298.2971,804.0469 4297.8284,804.0469 C4297.6096,804.0469 4297.4065,804.125 4297.219,804.3125 C4296.7659,804.7969 4296.7659,804.7969 4296.5784,804.8906 C4296.1565,805.1563 4295.469,805.2813 4294.7034,805.2813 C4292.6565,805.2813 4291.3596,804.1875 4291.3596,802.4844 L4291.3596,801.3906 C4291.3596,799.6094 4292.6096,798.2969 4294.344,798.2969 C4294.9221,798.2969 4295.5315,798.4531 4296.0003,798.7031 C4296.4846,798.9844 4296.6565,799.2031 4296.7503,799.6094 C4296.8128,800.0156 4296.844,800.1406 4296.9846,800.2656 C4297.1253,800.4063 4297.3596,800.5156 4297.5784,800.5156 C4297.844,800.5156 4298.1096,800.375 4298.2815,800.1563 C4298.3909,800 4298.4221,799.8125 4298.4221,799.3906 L4298.4221,797.9688 C4298.4221,797.5313 4298.4065,797.4063 4298.3128,797.25 C4298.1565,796.9844 4297.8753,796.8438 4297.5784,796.8438 C4297.2815,796.8438 4297.0784,796.9375 4296.8596,797.25 L4296.6878,797.1719 Z " fill="#000000"/><text fill="#000000" font-family="sans-serif" font-size="14" lengthAdjust="spacing" textLength="53" x="4314.844" y="806.3467">passive</text><line style="stroke:#181818;stroke-width:0.5;" x1="4102.594" x2="4547.594" y1="817.5" y2="817.5"/><ellipse cx="4112.594" cy="828.5" fill="none" rx="3" ry="3" style="stroke:#038048;stroke-width:1.0;"/><text fill="#000000" font-family="sans-serif" font-size="14" lengthAdjust="spacing" textLength="119" x="4121.594" y="834.4951">std::string name</text><ellipse cx="4112.594" cy="844.7969" fill="none" rx="3" ry="3" style="stroke:#038048;stroke-width:1.0;"/><text fill="#000000" font-family="sans-serif" font-size="14" lengthAdjust="spacing" textLength="161" x="4121.594" y="850.792">std::string description</text><ellipse cx="4112.594" cy="861.0938" fill="none" rx="3" ry="3" style="stroke:#038048;stroke-width:1.0;"/><text fill="#000000" font-family="sans-serif" font-size="14" lengthAdjust="spacing" textLength="80" x="4121.594" y="867.0889">int number</text><line style="stroke:#181818;stroke-width:0.5;" x1="4102.594" x2="4547.594" y1="874.3906" y2="874.3906"/><ellipse cx="4112.594" cy="885.3906" fill="#84BE84" rx="3" ry="3" style="stroke:#038048;stroke-width:1.0;"/><text fill="#000000" font-family="sans-serif" font-size="14" lengthAdjust="spacing" textLength="421" x="4121.594" y="891.3857">virtual int attack_event(bool result, bool dead, Hero *hero)</text><ellipse cx="4112.594" cy="901.6875" fill="#84BE84" rx="3" ry="3" style="stroke:#038048;stroke-width:1.0;"/><text fill="#000000" font-family="sans-serif" font-size="14" lengthAdjust="spacing" textLength="177" x="4121.594" y="907.6826">std::string passive_info()</text></g><!--MD5=[61c03328dda0cbe3e99c39385142c74c]
class mage--><g id="elem_mage"><rect codeLine="173" fill="#F1F1F1" height="64.2969" id="mage" rx="2.5" ry="2.5" style="stroke:#181818;stroke-width:0.5;" width="462" x="4591.094" y="1007.5"/><ellipse cx="4797.844" cy="1023.5" fill="#ADD1B2" rx="11" ry="11" style="stroke:#181818;stroke-width:1.0;"/><path d="M4800.1878,1019.1719 C4799.2503,1018.7344 4798.6565,1018.5938 4797.7815,1018.5938 C4795.1565,1018.5938 4793.1565,1020.6719 4793.1565,1023.3906 L4793.1565,1024.5156 C4793.1565,1027.0938 4795.2659,1028.9844 4798.1565,1028.9844 C4799.3753,1028.9844 4800.5315,1028.6875 4801.2815,1028.1406 C4801.8596,1027.7344 4802.1878,1027.2813 4802.1878,1026.8906 C4802.1878,1026.4375 4801.7971,1026.0469 4801.3284,1026.0469 C4801.1096,1026.0469 4800.9065,1026.125 4800.719,1026.3125 C4800.2659,1026.7969 4800.2659,1026.7969 4800.0784,1026.8906 C4799.6565,1027.1563 4798.969,1027.2813 4798.2034,1027.2813 C4796.1565,1027.2813 4794.8596,1026.1875 4794.8596,1024.4844 L4794.8596,1023.3906 C4794.8596,1021.6094 4796.1096,1020.2969 4797.844,1020.2969 C4798.4221,1020.2969 4799.0315,1020.4531 4799.5003,1020.7031 C4799.9846,1020.9844 4800.1565,1021.2031 4800.2503,1021.6094 C4800.3128,1022.0156 4800.344,1022.1406 4800.4846,1022.2656 C4800.6253,1022.4063 4800.8596,1022.5156 4801.0784,1022.5156 C4801.344,1022.5156 4801.6096,1022.375 4801.7815,1022.1563 C4801.8909,1022 4801.9221,1021.8125 4801.9221,1021.3906 L4801.9221,1019.9688 C4801.9221,1019.5313 4801.9065,1019.4063 4801.8128,1019.25 C4801.6565,1018.9844 4801.3753,1018.8438 4801.0784,1018.8438 C4800.7815,1018.8438 4800.5784,1018.9375 4800.3596,1019.25 L4800.1878,1019.1719 Z " fill="#000000"/><text fill="#000000" font-family="sans-serif" font-size="14" lengthAdjust="spacing" textLength="40" x="4818.344" y="1028.3467">mage</text><line style="stroke:#181818;stroke-width:0.5;" x1="4592.094" x2="5052.094" y1="1039.5" y2="1039.5"/><line style="stroke:#181818;stroke-width:0.5;" x1="4592.094" x2="5052.094" y1="1047.5" y2="1047.5"/><ellipse cx="4602.094" cy="1058.5" fill="#84BE84" rx="3" ry="3" style="stroke:#038048;stroke-width:1.0;"/><text fill="#000000" font-family="sans-serif" font-size="14" lengthAdjust="spacing" textLength="436" x="4611.094" y="1064.4951">int attack_event(bool result, bool dead, Hero *hero) override</text></g><!--MD5=[5f11dffd4ef4cdc44cec747face9a3d7]
class warrior--><g id="elem_warrior"><rect codeLine="177" fill="#F1F1F1" height="64.2969" id="warrior" rx="2.5" ry="2.5" style="stroke:#181818;stroke-width:0.5;" width="462" x="5088.094" y="1007.5"/><ellipse cx="5289.844" cy="1023.5" fill="#ADD1B2" rx="11" ry="11" style="stroke:#181818;stroke-width:1.0;"/><path d="M5292.1878,1019.1719 C5291.2503,1018.7344 5290.6565,1018.5938 5289.7815,1018.5938 C5287.1565,1018.5938 5285.1565,1020.6719 5285.1565,1023.3906 L5285.1565,1024.5156 C5285.1565,1027.0938 5287.2659,1028.9844 5290.1565,1028.9844 C5291.3753,1028.9844 5292.5315,1028.6875 5293.2815,1028.1406 C5293.8596,1027.7344 5294.1878,1027.2813 5294.1878,1026.8906 C5294.1878,1026.4375 5293.7971,1026.0469 5293.3284,1026.0469 C5293.1096,1026.0469 5292.9065,1026.125 5292.719,1026.3125 C5292.2659,1026.7969 5292.2659,1026.7969 5292.0784,1026.8906 C5291.6565,1027.1563 5290.969,1027.2813 5290.2034,1027.2813 C5288.1565,1027.2813 5286.8596,1026.1875 5286.8596,1024.4844 L5286.8596,1023.3906 C5286.8596,1021.6094 5288.1096,1020.2969 5289.844,1020.2969 C5290.4221,1020.2969 5291.0315,1020.4531 5291.5003,1020.7031 C5291.9846,1020.9844 5292.1565,1021.2031 5292.2503,1021.6094 C5292.3128,1022.0156 5292.344,1022.1406 5292.4846,1022.2656 C5292.6253,1022.4063 5292.8596,1022.5156 5293.0784,1022.5156 C5293.344,1022.5156 5293.6096,1022.375 5293.7815,1022.1563 C5293.8909,1022 5293.9221,1021.8125 5293.9221,1021.3906 L5293.9221,1019.9688 C5293.9221,1019.5313 5293.9065,1019.4063 5293.8128,1019.25 C5293.6565,1018.9844 5293.3753,1018.8438 5293.0784,1018.8438 C5292.7815,1018.8438 5292.5784,1018.9375 5292.3596,1019.25 L5292.1878,1019.1719 Z " fill="#000000"/><text fill="#000000" font-family="sans-serif" font-size="14" lengthAdjust="spacing" textLength="50" x="5310.344" y="1028.3467">warrior</text><line style="stroke:#181818;stroke-width:0.5;" x1="5089.094" x2="5549.094" y1="1039.5" y2="1039.5"/><line style="stroke:#181818;stroke-width:0.5;" x1="5089.094" x2="5549.094" y1="1047.5" y2="1047.5"/><ellipse cx="5099.094" cy="1058.5" fill="#84BE84" rx="3" ry="3" style="stroke:#038048;stroke-width:1.0;"/><text fill="#000000" font-family="sans-serif" font-size="14" lengthAdjust="spacing" textLength="436" x="5108.094" y="1064.4951">int attack_event(bool result, bool dead, Hero *hero) override</text></g><!--MD5=[63857911172388eeaac1df6890c1cd67]
class berserk--><g id="elem_berserk"><rect codeLine="181" fill="#F1F1F1" height="64.2969" id="berserk" rx="2.5" ry="2.5" style="stroke:#181818;stroke-width:0.5;" width="462" x="5585.094" y="1007.5"/><ellipse cx="5783.844" cy="1023.5" fill="#ADD1B2" rx="11" ry="11" style="stroke:#181818;stroke-width:1.0;"/><path d="M5786.1878,1019.1719 C5785.2503,1018.7344 5784.6565,1018.5938 5783.7815,1018.5938 C5781.1565,1018.5938 5779.1565,1020.6719 5779.1565,1023.3906 L5779.1565,1024.5156 C5779.1565,1027.0938 5781.2659,1028.9844 5784.1565,1028.9844 C5785.3753,1028.9844 5786.5315,1028.6875 5787.2815,1028.1406 C5787.8596,1027.7344 5788.1878,1027.2813 5788.1878,1026.8906 C5788.1878,1026.4375 5787.7971,1026.0469 5787.3284,1026.0469 C5787.1096,1026.0469 5786.9065,1026.125 5786.719,1026.3125 C5786.2659,1026.7969 5786.2659,1026.7969 5786.0784,1026.8906 C5785.6565,1027.1563 5784.969,1027.2813 5784.2034,1027.2813 C5782.1565,1027.2813 5780.8596,1026.1875 5780.8596,1024.4844 L5780.8596,1023.3906 C5780.8596,1021.6094 5782.1096,1020.2969 5783.844,1020.2969 C5784.4221,1020.2969 5785.0315,1020.4531 5785.5003,1020.7031 C5785.9846,1020.9844 5786.1565,1021.2031 5786.2503,1021.6094 C5786.3128,1022.0156 5786.344,1022.1406 5786.4846,1022.2656 C5786.6253,1022.4063 5786.8596,1022.5156 5787.0784,1022.5156 C5787.344,1022.5156 5787.6096,1022.375 5787.7815,1022.1563 C5787.8909,1022 5787.9221,1021.8125 5787.9221,1021.3906 L5787.9221,1019.9688 C5787.9221,1019.5313 5787.9065,1019.4063 5787.8128,1019.25 C5787.6565,1018.9844 5787.3753,1018.8438 5787.0784,1018.8438 C5786.7815,1018.8438 5786.5784,1018.9375 5786.3596,1019.25 L5786.1878,1019.1719 Z " fill="#000000"/><text fill="#000000" font-family="sans-serif" font-size="14" lengthAdjust="spacing" textLength="56" x="5804.344" y="1028.3467">berserk</text><line style="stroke:#181818;stroke-width:0.5;" x1="5586.094" x2="6046.094" y1="1039.5" y2="1039.5"/><line style="stroke:#181818;stroke-width:0.5;" x1="5586.094" x2="6046.094" y1="1047.5" y2="1047.5"/><ellipse cx="5596.094" cy="1058.5" fill="#84BE84" rx="3" ry="3" style="stroke:#038048;stroke-width:1.0;"/><text fill="#000000" font-family="sans-serif" font-size="14" lengthAdjust="spacing" textLength="436" x="5605.094" y="1064.4951">int attack_event(bool result, bool dead, Hero *hero) override</text></g><!--MD5=[0f6ec47e3ee5cfdce30a0a5e63afbfdf]
class warlock--><g id="elem_warlock"><rect codeLine="185" fill="#F1F1F1" height="64.2969" id="warlock" rx="2.5" ry="2.5" style="stroke:#181818;stroke-width:0.5;" width="462" x="3100.094" y="1007.5"/><ellipse cx="3299.344" cy="1023.5" fill="#ADD1B2" rx="11" ry="11" style="stroke:#181818;stroke-width:1.0;"/><path d="M3301.6878,1019.1719 C3300.7503,1018.7344 3300.1565,1018.5938 3299.2815,1018.5938 C3296.6565,1018.5938 3294.6565,1020.6719 3294.6565,1023.3906 L3294.6565,1024.5156 C3294.6565,1027.0938 3296.7659,1028.9844 3299.6565,1028.9844 C3300.8753,1028.9844 3302.0315,1028.6875 3302.7815,1028.1406 C3303.3596,1027.7344 3303.6878,1027.2813 3303.6878,1026.8906 C3303.6878,1026.4375 3303.2971,1026.0469 3302.8284,1026.0469 C3302.6096,1026.0469 3302.4065,1026.125 3302.219,1026.3125 C3301.7659,1026.7969 3301.7659,1026.7969 3301.5784,1026.8906 C3301.1565,1027.1563 3300.469,1027.2813 3299.7034,1027.2813 C3297.6565,1027.2813 3296.3596,1026.1875 3296.3596,1024.4844 L3296.3596,1023.3906 C3296.3596,1021.6094 3297.6096,1020.2969 3299.344,1020.2969 C3299.9221,1020.2969 3300.5315,1020.4531 3301.0003,1020.7031 C3301.4846,1020.9844 3301.6565,1021.2031 3301.7503,1021.6094 C3301.8128,1022.0156 3301.844,1022.1406 3301.9846,1022.2656 C3302.1253,1022.4063 3302.3596,1022.5156 3302.5784,1022.5156 C3302.844,1022.5156 3303.1096,1022.375 3303.2815,1022.1563 C3303.3909,1022 3303.4221,1021.8125 3303.4221,1021.3906 L3303.4221,1019.9688 C3303.4221,1019.5313 3303.4065,1019.4063 3303.3128,1019.25 C3303.1565,1018.9844 3302.8753,1018.8438 3302.5784,1018.8438 C3302.2815,1018.8438 3302.0784,1018.9375 3301.8596,1019.25 L3301.6878,1019.1719 Z " fill="#000000"/><text fill="#000000" font-family="sans-serif" font-size="14" lengthAdjust="spacing" textLength="55" x="3319.844" y="1028.3467">warlock</text><line style="stroke:#181818;stroke-width:0.5;" x1="3101.094" x2="3561.094" y1="1039.5" y2="1039.5"/><line style="stroke:#181818;stroke-width:0.5;" x1="3101.094" x2="3561.094" y1="1047.5" y2="1047.5"/><ellipse cx="3111.094" cy="1058.5" fill="#84BE84" rx="3" ry="3" style="stroke:#038048;stroke-width:1.0;"/><text fill="#000000" font-family="sans-serif" font-size="14" lengthAdjust="spacing" textLength="436" x="3120.094" y="1064.4951">int attack_event(bool result, bool dead, Hero *hero) override</text></g><!--MD5=[2984910382dca44b3ddbbec1a960e591]
class rogue--><g id="elem_rogue"><rect codeLine="189" fill="#F1F1F1" height="64.2969" id="rogue" rx="2.5" ry="2.5" style="stroke:#181818;stroke-width:0.5;" width="462" x="3597.094" y="1007.5"/><ellipse cx="3803.344" cy="1023.5" fill="#ADD1B2" rx="11" ry="11" style="stroke:#181818;stroke-width:1.0;"/><path d="M3805.6878,1019.1719 C3804.7503,1018.7344 3804.1565,1018.5938 3803.2815,1018.5938 C3800.6565,1018.5938 3798.6565,1020.6719 3798.6565,1023.3906 L3798.6565,1024.5156 C3798.6565,1027.0938 3800.7659,1028.9844 3803.6565,1028.9844 C3804.8753,1028.9844 3806.0315,1028.6875 3806.7815,1028.1406 C3807.3596,1027.7344 3807.6878,1027.2813 3807.6878,1026.8906 C3807.6878,1026.4375 3807.2971,1026.0469 3806.8284,1026.0469 C3806.6096,1026.0469 3806.4065,1026.125 3806.219,1026.3125 C3805.7659,1026.7969 3805.7659,1026.7969 3805.5784,1026.8906 C3805.1565,1027.1563 3804.469,1027.2813 3803.7034,1027.2813 C3801.6565,1027.2813 3800.3596,1026.1875 3800.3596,1024.4844 L3800.3596,1023.3906 C3800.3596,1021.6094 3801.6096,1020.2969 3803.344,1020.2969 C3803.9221,1020.2969 3804.5315,1020.4531 3805.0003,1020.7031 C3805.4846,1020.9844 3805.6565,1021.2031 3805.7503,1021.6094 C3805.8128,1022.0156 3805.844,1022.1406 3805.9846,1022.2656 C3806.1253,1022.4063 3806.3596,1022.5156 3806.5784,1022.5156 C3806.844,1022.5156 3807.1096,1022.375 3807.2815,1022.1563 C3807.3909,1022 3807.4221,1021.8125 3807.4221,1021.3906 L3807.4221,1019.9688 C3807.4221,1019.5313 3807.4065,1019.4063 3807.3128,1019.25 C3807.1565,1018.9844 3806.8753,1018.8438 3806.5784,1018.8438 C3806.2815,1018.8438 3806.0784,1018.9375 3805.8596,1019.25 L3805.6878,1019.1719 Z " fill="#000000"/><text fill="#000000" font-family="sans-serif" font-size="14" lengthAdjust="spacing" textLength="41" x="3823.844" y="1028.3467">rogue</text><line style="stroke:#181818;stroke-width:0.5;" x1="3598.094" x2="4058.094" y1="1039.5" y2="1039.5"/><line style="stroke:#181818;stroke-width:0.5;" x1="3598.094" x2="4058.094" y1="1047.5" y2="1047.5"/><ellipse cx="3608.094" cy="1058.5" fill="#84BE84" rx="3" ry="3" style="stroke:#038048;stroke-width:1.0;"/><text fill="#000000" font-family="sans-serif" font-size="14" lengthAdjust="spacing" textLength="436" x="3617.094" y="1064.4951">int attack_event(bool result, bool dead, Hero *hero) override</text></g><!--MD5=[d5c21e7de48d336fad5c0945def98db1]
class archer--><g id="elem_archer"><rect codeLine="193" fill="#F1F1F1" height="64.2969" id="archer" rx="2.5" ry="2.5" style="stroke:#181818;stroke-width:0.5;" width="462" x="4094.094" y="1007.5"/><ellipse cx="4297.844" cy="1023.5" fill="#ADD1B2" rx="11" ry="11" style="stroke:#181818;stroke-width:1.0;"/><path d="M4300.1878,1019.1719 C4299.2503,1018.7344 4298.6565,1018.5938 4297.7815,1018.5938 C4295.1565,1018.5938 4293.1565,1020.6719 4293.1565,1023.3906 L4293.1565,1024.5156 C4293.1565,1027.0938 4295.2659,1028.9844 4298.1565,1028.9844 C4299.3753,1028.9844 4300.5315,1028.6875 4301.2815,1028.1406 C4301.8596,1027.7344 4302.1878,1027.2813 4302.1878,1026.8906 C4302.1878,1026.4375 4301.7971,1026.0469 4301.3284,1026.0469 C4301.1096,1026.0469 4300.9065,1026.125 4300.719,1026.3125 C4300.2659,1026.7969 4300.2659,1026.7969 4300.0784,1026.8906 C4299.6565,1027.1563 4298.969,1027.2813 4298.2034,1027.2813 C4296.1565,1027.2813 4294.8596,1026.1875 4294.8596,1024.4844 L4294.8596,1023.3906 C4294.8596,1021.6094 4296.1096,1020.2969 4297.844,1020.2969 C4298.4221,1020.2969 4299.0315,1020.4531 4299.5003,1020.7031 C4299.9846,1020.9844 4300.1565,1021.2031 4300.2503,1021.6094 C4300.3128,1022.0156 4300.344,1022.1406 4300.4846,1022.2656 C4300.6253,1022.4063 4300.8596,1022.5156 4301.0784,1022.5156 C4301.344,1022.5156 4301.6096,1022.375 4301.7815,1022.1563 C4301.8909,1022 4301.9221,1021.8125 4301.9221,1021.3906 L4301.9221,1019.9688 C4301.9221,1019.5313 4301.9065,1019.4063 4301.8128,1019.25 C4301.6565,1018.9844 4301.3753,1018.8438 4301.0784,1018.8438 C4300.7815,1018.8438 4300.5784,1018.9375 4300.3596,1019.25 L4300.1878,1019.1719 Z " fill="#000000"/><text fill="#000000" font-family="sans-serif" font-size="14" lengthAdjust="spacing" textLength="46" x="4318.344" y="1028.3467">archer</text><line style="stroke:#181818;stroke-width:0.5;" x1="4095.094" x2="4555.094" y1="1039.5" y2="1039.5"/><line style="stroke:#181818;stroke-width:0.5;" x1="4095.094" x2="4555.094" y1="1047.5" y2="1047.5"/><ellipse cx="4105.094" cy="1058.5" fill="#84BE84" rx="3" ry="3" style="stroke:#038048;stroke-width:1.0;"/><text fill="#000000" font-family="sans-serif" font-size="14" lengthAdjust="spacing" textLength="436" x="4114.094" y="1064.4951">int attack_event(bool result, bool dead, Hero *hero) override</text></g><!--MD5=[bfad6224f16331e25c8d1fade7766d0c]
reverse link low_level_gameplay to high_level_gameplay--><g id="link_low_level_gameplay_high_level_gameplay"><path codeLine="1" d="M2192.184,221.3 C2164.084,302.82 2128.474,406.16 2110.904,457.14 " fill="none" id="low_level_gameplay-backto-high_level_gameplay" style="stroke:#181818;stroke-width:1.0;"/><polygon fill="none" points="2185.654,218.77,2198.784,202.15,2198.884,223.34,2185.654,218.77" style="stroke:#181818;stroke-width:1.0;"/></g><!--MD5=[1b1e067986bdfb5ba05a87c1f9db8d79]
reverse link low_level_gameplay to forge--><g id="link_low_level_gameplay_forge"><path codeLine="2" d="M2040.654,201.3 C1778.994,258.15 1169.144,145.59 967.094,262 C659.645,439.14 503.976,885.286 466.274,1007.261 " fill="none" id="low_level_gameplay-backto-forge" style="stroke:#FF0000;stroke-width:1.0;"/><polygon fill="none" points="2039.294,194.43,2060.374,196.51,2042.594,208.03,2039.294,194.43" style="stroke:#FF0000;stroke-width:1.0;"/></g><!--MD5=[bb0afc011a56c9b013b790c03b110645]
reverse link low_level_gameplay to shop--><g id="link_low_level_gameplay_shop"><path codeLine="3" d="M2040.934,201.11 C1862.744,240.09 1474.834,184.77 1347.094,262 C1046.101,443.98 895.638,885.698 859.062,1007.147 " fill="none" id="low_level_gameplay-backto-shop" style="stroke:#FF0000;stroke-width:1.0;"/><polygon fill="none" points="2039.474,194.26,2060.574,196.17,2042.894,207.84,2039.474,194.26" style="stroke:#FF0000;stroke-width:1.0;"/></g><!--MD5=[e9a133f286c487d7459b30f8c1fa65db]
reverse link low_level_gameplay to library--><g id="link_low_level_gameplay_library"><path codeLine="4" d="M2041.254,201.44 C1883.684,246.31 1811.954,173.35 1685.094,262 C1406.314,456.81 1280.844,887.493 1250.574,1007.132 " fill="none" id="low_level_gameplay-backto-library" style="stroke:#FF0000;stroke-width:1.0;"/><polygon fill="none" points="2039.204,194.74,2060.384,195.53,2043.334,208.12,2039.204,194.74" style="stroke:#FF0000;stroke-width:1.0;"/></g><!--MD5=[d0dc3ac3be080f6bdc5c7db760db9d94]
reverse link low_level_gameplay to equipment--><g id="link_low_level_gameplay_equipment"><path codeLine="5" d="M2042.174,202.11 C1986.194,231.13 1938.304,256.72 1933.094,262 C1752.564,444.64 1747.434,531.8 1671.094,777 C1646.044,857.47 1638.924,957.355 1636.894,1007.176 " fill="none" id="low_level_gameplay-backto-equipment" style="stroke:#FF0000;stroke-width:1.0;"/><polygon fill="none" points="2039.204,195.77,2060.184,192.81,2045.634,208.21,2039.204,195.77" style="stroke:#FF0000;stroke-width:1.0;"/></g><!--MD5=[9648fef21d3cbb385ba04971c3e7e5d5]
reverse link high_level_gameplay to battle--><g id="link_high_level_gameplay_battle"><path codeLine="6" d="M2099.314,541.76 C2097.304,623.224 2090.074,786.928 2064.094,923 C2060.304,942.861 2054.394,964.16 2048.504,982.991 " fill="none" id="high_level_gameplay-backto-battle" style="stroke:#0000FF;stroke-width:1.0;"/><polygon fill="none" points="2092.324,541.59,2099.744,521.75,2106.314,541.89,2092.324,541.59" style="stroke:#0000FF;stroke-width:1.0;"/></g><!--MD5=[1bfb67b43a9e9db263146c0426719325]
reverse link low_level_gameplay to attack_spell--><g id="link_low_level_gameplay_attack_spell"><path codeLine="7" d="M2040.724,200.7 C1811.224,238.68 708.358,173.23 578.094,262 C250.2791,485.4 6,791.361 260.094,1096 C322.367,1170.661 579.083,1200.306 757.841,1211.997 " fill="none" id="low_level_gameplay-backto-attack_spell" style="stroke:#FFFF00;stroke-width:1.0;"/><polygon fill="none" points="2039.404,193.83,2060.404,196.62,2042.244,207.53,2039.404,193.83" style="stroke:#FFFF00;stroke-width:1.0;"/></g><!--MD5=[9aa9006fa7d90b2c899d0c78f08a3fb6]
reverse link low_level_gameplay to attack_target--><g id="link_low_level_gameplay_attack_target"><path codeLine="8" d="M2420.894,199.06 C2450.634,217.83 2479.844,238.96 2505.094,262 C2794.274,525.88 2893.174,609.698 3011.094,983 C3026.224,1030.89 3038.604,1053.982 3011.094,1096 C2981.364,1141.411 2930.884,1170.219 2880.714,1188.455 " fill="none" id="low_level_gameplay-backto-attack_target" style="stroke:#FFFF00;stroke-width:1.0;"/><polygon fill="none" points="2417.224,205.02,2403.854,188.58,2424.554,193.09,2417.224,205.02" style="stroke:#FFFF00;stroke-width:1.0;"/></g><!--MD5=[47aa8678bd84794fb74cae8cac2893db]
reverse link battle to attack_spell--><g id="link_battle_attack_spell"><path codeLine="9" d="M1837.104,1094.939 C1835.424,1095.299 1833.754,1095.653 1832.094,1096 C1586.234,1147.341 1297.784,1182.773 1116.211,1202.112 " fill="none" id="battle-backto-attack_spell" style="stroke:#181818;stroke-width:1.0;"/><polygon fill="none" points="1850.044,1092.07,1843.3204,1089.4636,1838.3285,1094.6676,1845.0521,1097.274,1850.044,1092.07" style="stroke:#181818;stroke-width:1.0;"/></g><!--MD5=[b62ba88de7bdd604f08744522f3a2ad4]
reverse link battle to attack_target--><g id="link_battle_attack_target"><path codeLine="10" d="M2220.914,1094.892 C2222.314,1095.264 2223.704,1095.633 2225.094,1096 C2350.604,1129.168 2494.534,1164.205 2596.184,1188.453 " fill="none" id="battle-backto-attack_target" style="stroke:#181818;stroke-width:1.0;"/><polygon fill="none" points="2208.204,1091.494,2212.9617,1096.9129,2219.7936,1094.6053,2215.0359,1089.1864,2208.204,1091.494" style="stroke:#181818;stroke-width:1.0;"/></g><!--MD5=[f8915a4f0b9349e1da9875c2fe0d748a]
reverse link high_level_gameplay to Game--><g id="link_high_level_gameplay_Game"><path codeLine="11" d="M2068.884,538.73 C2020.504,613.485 1928.774,755.231 1888.234,817.885 " fill="none" id="high_level_gameplay-backto-Game" style="stroke:#0000FF;stroke-width:1.0;"/><polygon fill="none" points="2063.164,534.68,2079.914,521.69,2074.924,542.28,2063.164,534.68" style="stroke:#0000FF;stroke-width:1.0;"/></g><!--MD5=[cba82b0412e9dd9cf0017a405f81e1d5]
reverse link low_level_gameplay to levelup--><g id="link_low_level_gameplay_levelup"><path codeLine="12" d="M2258.444,221.92 C2261.404,235.42 2264.344,249.01 2267.094,262 C2328.274,551.15 2396.024,902.315 2416.144,1007.379 " fill="none" id="low_level_gameplay-backto-levelup" style="stroke:#FFFF00;stroke-width:1.0;"/><polygon fill="none" points="2251.574,223.3,2254.104,202.27,2265.244,220.28,2251.574,223.3" style="stroke:#FFFF00;stroke-width:1.0;"/></g><!--MD5=[469c96cb24580dfdab6147604eac699b]
reverse link low_level_gameplay to make_save--><g id="link_low_level_gameplay_make_save"><path codeLine="13" d="M2310.674,219.02 C2320.354,233.41 2330.024,248 2339.094,262 C2524.144,547.66 2734.524,901.912 2796.814,1007.453 " fill="none" id="low_level_gameplay-backto-make_save" style="stroke:#FFFF00;stroke-width:1.0;"/><polygon fill="none" points="2304.744,222.74,2299.344,202.25,2316.344,214.9,2304.744,222.74" style="stroke:#FFFF00;stroke-width:1.0;"/></g><!--MD5=[a27453deac0bcd27a1cf9c57d634b56f]
reverse link low_level_gameplay to choose_hero--><g id="link_low_level_gameplay_choose_hero"><path codeLine="14" d="M2423.574,126.78 C2636.294,152.9 2964.174,201.31 3073.094,262 C3159.224,309.99 3228.694,407.36 3260.424,457.35 " fill="none" id="low_level_gameplay-backto-choose_hero" style="stroke:#008000;stroke-width:1.0;"/><polygon fill="none" points="2422.684,133.72,2403.674,124.36,2424.374,119.82,2422.684,133.72" style="stroke:#008000;stroke-width:1.0;"/></g><!--MD5=[99eff9b64bbcb35cf9613f94d77130e0]
reverse link low_level_gameplay to choose_save--><g id="link_low_level_gameplay_choose_save"><path codeLine="15" d="M2424.034,113.04 C2726.374,127.66 3297.414,167.2 3475.094,262 C3560.614,307.63 3625.864,406.52 3655.144,457.19 " fill="none" id="low_level_gameplay-backto-choose_save" style="stroke:#008000;stroke-width:1.0;"/><polygon fill="none" points="2423.274,120.01,2403.634,112.07,2423.944,106.03,2423.274,120.01" style="stroke:#008000;stroke-width:1.0;"/></g><!--MD5=[7f563b41751e6e64b6ad55dc128a10db]
reverse link Game to battle--><g id="link_Game_battle"><path codeLine="16" d="M1903.714,892.486 C1926.504,919.026 1956.344,953.779 1981.204,982.722 " fill="none" id="Game-backto-battle" style="stroke:#181818;stroke-width:1.0;"/><polygon fill="none" points="1895.044,882.383,1895.9148,889.5413,1902.8574,891.4907,1901.9866,884.3324,1895.044,882.383" style="stroke:#181818;stroke-width:1.0;"/></g><!--MD5=[b50bad0a6b322f0d0a42da38c4b48718]
reverse link Game to forge--><g id="link_Game_forge"><path codeLine="17" d="M1675.754,861.902 C1434.944,877.837 1010.61,913.472 653.094,983 C620.635,989.312 585.741,998.417 554.52,1007.433 " fill="none" id="Game-backto-forge" style="stroke:#181818;stroke-width:1.0;"/><polygon fill="none" points="1688.854,861.043,1682.6033,857.4473,1676.8801,861.8342,1683.1308,865.4299,1688.854,861.043" style="stroke:#181818;stroke-width:1.0;"/></g><!--MD5=[a3c79fc4cc3220c78f6ab71bc6081d74]
reverse link Game to shop--><g id="link_Game_shop"><path codeLine="18" d="M1676.064,875.376 C1508.704,898.154 1259.974,935.714 1046.094,983 C1014.929,989.89 981.378,998.82 950.997,1007.495 " fill="none" id="Game-backto-shop" style="stroke:#181818;stroke-width:1.0;"/><polygon fill="none" points="1688.974,873.625,1682.4919,870.4656,1677.0824,875.2339,1683.5645,878.3934,1688.974,873.625" style="stroke:#181818;stroke-width:1.0;"/></g><!--MD5=[6a83892e676a1d1d229f1da27de8724d]
reverse link Game to library--><g id="link_Game_library"><path codeLine="19" d="M1752.074,885.807 C1635.734,920.708 1458.284,973.944 1346.594,1007.451 " fill="none" id="Game-backto-library" style="stroke:#181818;stroke-width:1.0;"/><polygon fill="none" points="1764.534,882.067,1757.6366,879.9633,1753.0419,885.5211,1759.9393,887.6248,1764.534,882.067" style="stroke:#181818;stroke-width:1.0;"/></g><!--MD5=[ec46c7af935e516da145ebfb30b68ddb]
reverse link Game to equipment--><g id="link_Game_equipment"><path codeLine="20" d="M1819.284,890.444 C1776.264,925.212 1714.434,975.19 1674.754,1007.253 " fill="none" id="Game-backto-equipment" style="stroke:#181818;stroke-width:1.0;"/><polygon fill="none" points="1829.524,882.172,1822.3432,882.8322,1820.1907,889.7146,1827.3716,889.0544,1829.524,882.172" style="stroke:#181818;stroke-width:1.0;"/></g><!--MD5=[e067ec3664aa790014e28f657cd90b77]
reverse link Game to levelup--><g id="link_Game_levelup"><path codeLine="21" d="M1972.494,886.335 C2075.554,921.215 2231.604,974.03 2330.124,1007.373 " fill="none" id="Game-backto-levelup" style="stroke:#181818;stroke-width:1.0;"/><polygon fill="none" points="1959.884,882.067,1964.2834,887.7806,1971.2496,885.9171,1966.8502,880.2035,1959.884,882.067" style="stroke:#181818;stroke-width:1.0;"/></g><!--MD5=[6f3c3b3d1825bec96e1f1b04a1fe635d]
reverse link Game to make_save--><g id="link_Game_make_save"><path codeLine="22" d="M2060.294,879.38 C2212.444,903.155 2429.914,940.047 2618.094,983 C2648.924,990.037 2682.134,998.89 2712.334,1007.444 " fill="none" id="Game-backto-make_save" style="stroke:#181818;stroke-width:1.0;"/><polygon fill="none" points="2047.164,877.335,2052.4772,882.2104,2059.0211,879.1811,2053.7079,874.3057,2047.164,877.335" style="stroke:#181818;stroke-width:1.0;"/></g><!--MD5=[a23ffe802c89e037946b0a1defc55189]
reverse link battle to location--><g id="link_battle_location"><path codeLine="23" d="M2029.094,1109.305 C2029.094,1124.573 2029.094,1140.69 2029.094,1155.745 " fill="none" id="battle-backto-location" style="stroke:#181818;stroke-width:1.0;"/><polygon fill="none" points="2029.094,1096.156,2025.094,1102.156,2029.094,1108.156,2033.094,1102.156,2029.094,1096.156" style="stroke:#181818;stroke-width:1.0;"/></g><!--MD5=[01bd4432c93d57c7617936e57cce24e5]
reverse link location to Monster--><g id="link_location_Monster"><path codeLine="24" d="M2029.094,1298.387 C2029.094,1313.203 2029.094,1329.056 2029.094,1344.883 " fill="none" id="location-backto-Monster" style="stroke:#181818;stroke-width:1.0;"/><polygon fill="#181818" points="2029.094,1285.101,2025.094,1291.101,2029.094,1297.101,2033.094,1291.101,2029.094,1285.101" style="stroke:#181818;stroke-width:1.0;"/></g><!--MD5=[0405f8612b51faf148f3495b39169715]
reverse link low_level_gameplay to Hero--><g id="link_low_level_gameplay_Hero"><path codeLine="25" d="M2408.964,113.08 C2807.114,131.48 3748.444,182.86 3868.094,262 C3874.534,266.26 3880.664,270.97 3886.494,276.06 " fill="none" id="low_level_gameplay-backto-Hero" style="stroke:#181818;stroke-width:1.0;stroke-dasharray:7.0,7.0;"/><polygon fill="#181818" points="2403.724,112.84,2412.5319,117.2468,2408.7188,113.0683,2412.8973,109.2552,2403.724,112.84" style="stroke:#181818;stroke-width:1.0;"/></g><!--MD5=[9623f8f6266fe2e78619c480a61cd7a4]
reverse link Hero to Equipment--><g id="link_Hero_Equipment"><path codeLine="26" d="M3990.424,730.39 C3990.374,746.851 3990.334,762.539 3990.294,776.8 " fill="none" id="Hero-backto-Equipment" style="stroke:#181818;stroke-width:1.0;"/><polygon fill="none" points="3990.464,717.035,3986.4469,723.0235,3990.4297,729.035,3994.4468,723.0464,3990.464,717.035" style="stroke:#181818;stroke-width:1.0;"/></g><!--MD5=[ee8df7982179aa99fe97aa10ebe4c05f]
reverse link passive to mage--><g id="link_passive_mage"><path codeLine="27" d="M4512.894,921.849 C4591.254,951.413 4678.204,984.214 4739.884,1007.484 " fill="none" id="passive-backto-mage" style="stroke:#FF0000;stroke-width:1.0;"/><polygon fill="none" points="4509.944,928.219,4493.704,914.61,4514.884,915.12,4509.944,928.219" style="stroke:#FF0000;stroke-width:1.0;"/></g><!--MD5=[1e528b8c29773aef182e7e4657e502f6]
reverse link passive to warrior--><g id="link_passive_warrior"><path codeLine="28" d="M4568.644,891.245 C4714.664,916.083 4903.874,949.512 5071.094,983 C5108.294,990.451 5148.494,999.159 5185.474,1007.439 " fill="none" id="passive-backto-warrior" style="stroke:#FF0000;stroke-width:1.0;"/><polygon fill="none" points="4567.334,898.123,4548.784,887.876,4569.674,884.321,4567.334,898.123" style="stroke:#FF0000;stroke-width:1.0;"/></g><!--MD5=[864e5cd6e9a7e5cac925b9b48ad963d7]
reverse link passive to berserk--><g id="link_passive_berserk"><path codeLine="29" d="M4568.794,868.593 C4820.204,888.68 5223.174,926.282 5568.094,983 C5608.144,989.586 5651.444,998.607 5690.474,1007.461 " fill="none" id="passive-backto-berserk" style="stroke:#FF0000;stroke-width:1.0;"/><polygon fill="none" points="4568.084,875.559,4548.704,866.999,4569.194,861.603,4568.084,875.559" style="stroke:#FF0000;stroke-width:1.0;"/></g><!--MD5=[3522508d1cd6b324dd0b2a07603c1d10]
reverse link passive to warlock--><g id="link_passive_warlock"><path codeLine="30" d="M4101.684,919.177 C4095.774,920.519 4089.904,921.797 4084.094,923 C3862.774,968.853 3801.884,944.937 3579.094,983 C3539.514,989.761 3496.744,998.729 3458.044,1007.479 " fill="none" id="passive-backto-warlock" style="stroke:#FF0000;stroke-width:1.0;"/><polygon fill="none" points="4100.184,912.337,4121.264,914.54,4103.414,925.96,4100.184,912.337" style="stroke:#FF0000;stroke-width:1.0;"/></g><!--MD5=[2f1e662193498d7eb052f207aa7ca443]
reverse link passive to rogue--><g id="link_passive_rogue"><path codeLine="31" d="M4137.294,921.849 C4058.934,951.413 3971.984,984.214 3910.304,1007.484 " fill="none" id="passive-backto-rogue" style="stroke:#FF0000;stroke-width:1.0;"/><polygon fill="none" points="4135.304,915.12,4156.484,914.61,4140.244,928.219,4135.304,915.12" style="stroke:#FF0000;stroke-width:1.0;"/></g><!--MD5=[c94909000f7afab7c33e1ae436907e26]
reverse link passive to archer--><g id="link_passive_archer"><path codeLine="32" d="M4325.094,935.004 C4325.094,960.723 4325.094,987.431 4325.094,1007.273 " fill="none" id="passive-backto-archer" style="stroke:#FF0000;stroke-width:1.0;"/><polygon fill="none" points="4318.094,934.741,4325.094,914.741,4332.094,934.741,4318.094,934.741" style="stroke:#FF0000;stroke-width:1.0;"/></g><!--MD5=[b42d464263ba57c36a9766e552ea82ed]
reverse link Hero to passive--><g id="link_Hero_passive"><path codeLine="33" d="M4104.814,612.559 C4158.924,670.636 4221.364,737.659 4265.914,785.483 " fill="none" id="Hero-backto-passive" style="stroke:#181818;stroke-width:1.0;"/><polygon fill="none" points="4095.854,602.948,4097.0216,610.0639,4104.0392,611.7231,4102.8716,604.6071,4095.854,602.948" style="stroke:#181818;stroke-width:1.0;"/></g><!--MD5=[b10366dc514f49d3a7475f1e7f0c839a]
@startuml
low_level_gameplay <|- - high_level_gameplay
low_level_gameplay <|-[#red]- forge
low_level_gameplay <|-[#red]- shop
low_level_gameplay <|-[#red]- library
low_level_gameplay <|-[#red]- equipment
high_level_gameplay <|-[#blue]- battle
low_level_gameplay <|-[#yellow]- attack_spell
low_level_gameplay <|-[#yellow]- attack_target
battle o- - attack_spell
battle o- - attack_target
high_level_gameplay <|-[#blue]- Game
low_level_gameplay <|-[#yellow]- levelup
low_level_gameplay <|-[#yellow]- make_save
low_level_gameplay <|-[#green]- choose_hero
low_level_gameplay <|-[#green]- choose_save
Game o- - battle
Game o- - forge
Game o- - shop
Game o- - library
Game o- - equipment
Game o- - levelup
Game o- - make_save
battle o- - location
location *- - Monster
low_level_gameplay <.. Hero
Hero o- - Equipment
passive <|-[#red]- mage
passive <|-[#red]- warrior
passive <|-[#red]- berserk
passive <|-[#red]- warlock
passive <|-[#red]- rogue
passive <|-[#red]- archer
Hero o- - passive

class low_level_gameplay {
  #std::vector<std::string> commands
  #std::vector<std::string> answers;
  #std::string greetings
  #std::string name
  #bool outflag;
  #int clearscr;
  +std::vector<std::string> post_greetings
  +virtual void execute(int number, Hero *hero)
  +int gameplay(Hero *hero)
}

class high_level_gameplay {
   #std::vector<lowlevel*> lowcommands
}
together {
class forge {
   +void execute(int number, Hero *hero) override
}

class shop {
   +void execute(int number, Hero *hero) override
}

class library {
   +void execute(int number, Hero *hero) override
}

class equipment {
   +void execute(int number, Hero *hero) override
}
}

class battle {
  -bool Attack(int atk_rate, int evade_rate)
  -Location location_data
  -Location* location
  +void execute(int number, Hero *hero) override
}

together {
  class attack_spell {
    +void execute(int number, Hero *hero) override
  }

  class attack_target {
    +void execute(int number, Hero *hero) override
  }
}

class levelup {
   +void execute(int number, Hero *hero) override
}

class make_save {
   +void execute(int number, Hero *hero) override
}

class choose_hero {
   +void execute(int number, Hero *hero) override
}

class choose_save {
   +void execute(int number, Hero *hero) override
}

class Game {
   +void execute(int number, Hero *hero) override
}

class location{
  +std::string name
  +int amount
  +std::vector<std::vector<Monster>> levels
  +std::vector<int> treasure
  +void generate_location()
}

class Monster{
  +std::string name
  +int health
  +int evade
  +int attack
  +int damage
  +int money
  +int exp
  +int level
  +int diff
  +bool dead
  +void rebuild()
  +std::string info()
}

class Hero{
  -std::string name_stat[10]
  -int hlth()
  -int mn()
  -int physdmg()
  -int spldmg()
  -int evd()
  -int atk()
  -int hlthrgn()
  -int mnrgn()
  +std::string name
  +std::string name_stats[4]
  +int health
  +int mana
  +int phys_damage
  +int spell_damage
  +int stats[4]
  +int money
  +int exp
  +int level
  +bool level_cap
  +int cave
  +int revive
  +long long time
  +Equipment Loot[5]
  +int stat[10]
}

class Equipment{
  +int type
  +int tier
  +int rarity
  +std::string info()
  +std::string Stats()
  +int cost()
}

class passive{
  +std::string name
  +std::string description
  +int number
  +virtual int attack_event(bool result, bool dead, Hero *hero)
  +std::string passive_info()
}

class mage {
   +int attack_event(bool result, bool dead, Hero *hero) override
}

class warrior {
   +int attack_event(bool result, bool dead, Hero *hero) override
}

class berserk {
   +int attack_event(bool result, bool dead, Hero *hero) override
}

class warlock {
   +int attack_event(bool result, bool dead, Hero *hero) override
}

class rogue {
   +int attack_event(bool result, bool dead, Hero *hero) override
}

class archer {
   +int attack_event(bool result, bool dead, Hero *hero) override
}
@enduml

PlantUML version 1.2022.5(Sat Apr 30 10:55:52 UTC 2022)
(GPL source distribution)
Java Runtime: Java(TM) SE Runtime Environment
JVM: Java HotSpot(TM) 64-Bit Server VM
Default Encoding: UTF-8
Language: en
Country: US
--></g></svg>