<?xml version="1.0" encoding="UTF-8" standalone="no"?><svg xmlns="http://www.w3.org/2000/svg" xmlns:xlink="http://www.w3.org/1999/xlink" contentStyleType="text/css" height="1595px" preserveAspectRatio="none" style="width:3307px;height:1595px;background:#FFFFFF;" version="1.1" viewBox="0 0 3307 1595" width="3307px" zoomAndPan="magnify"><defs/><g><!--MD5=[b5b243e7102de79db1ccd7a354bb8fb7]
entity ##692462--><!--MD5=[abd70d998cb2e3382df4adaa492f7171]
class low_level_gameplay--><g id="elem_low_level_gameplay"><rect codeLine="27" fill="#F1F1F1" height="194.6719" id="low_level_gameplay" rx="2.5" ry="2.5" style="stroke:#181818;stroke-width:0.5;" width="343" x="1526.1592" y="7"/><ellipse cx="1622.4092" cy="23" fill="#ADD1B2" rx="11" ry="11" style="stroke:#181818;stroke-width:1.0;"/><path d="M1624.753,18.6719 C1623.8155,18.2344 1623.2217,18.0938 1622.3467,18.0938 C1619.7217,18.0938 1617.7217,20.1719 1617.7217,22.8906 L1617.7217,24.0156 C1617.7217,26.5938 1619.8311,28.4844 1622.7217,28.4844 C1623.9405,28.4844 1625.0967,28.1875 1625.8467,27.6406 C1626.4248,27.2344 1626.753,26.7813 1626.753,26.3906 C1626.753,25.9375 1626.3623,25.5469 1625.8936,25.5469 C1625.6748,25.5469 1625.4717,25.625 1625.2842,25.8125 C1624.8311,26.2969 1624.8311,26.2969 1624.6436,26.3906 C1624.2217,26.6563 1623.5342,26.7813 1622.7686,26.7813 C1620.7217,26.7813 1619.4248,25.6875 1619.4248,23.9844 L1619.4248,22.8906 C1619.4248,21.1094 1620.6748,19.7969 1622.4092,19.7969 C1622.9873,19.7969 1623.5967,19.9531 1624.0655,20.2031 C1624.5498,20.4844 1624.7217,20.7031 1624.8155,21.1094 C1624.878,21.5156 1624.9092,21.6406 1625.0498,21.7656 C1625.1905,21.9063 1625.4248,22.0156 1625.6436,22.0156 C1625.9092,22.0156 1626.1748,21.875 1626.3467,21.6563 C1626.4561,21.5 1626.4873,21.3125 1626.4873,20.8906 L1626.4873,19.4688 C1626.4873,19.0313 1626.4717,18.9063 1626.378,18.75 C1626.2217,18.4844 1625.9405,18.3438 1625.6436,18.3438 C1625.3467,18.3438 1625.1436,18.4375 1624.9248,18.75 L1624.753,18.6719 Z " fill="#000000"/><text fill="#000000" font-family="sans-serif" font-size="14" lengthAdjust="spacing" textLength="142" x="1642.9092" y="27.8467">low_level_gameplay</text><line style="stroke:#181818;stroke-width:0.5;" x1="1527.1592" x2="1868.1592" y1="39" y2="39"/><polygon fill="none" points="1537.1592,45,1541.1592,49,1537.1592,53,1533.1592,49" style="stroke:#B38D22;stroke-width:1.0;"/><text fill="#000000" font-family="sans-serif" font-size="14" lengthAdjust="spacing" textLength="259" x="1546.1592" y="55.9951">std::vector&lt;std::string&gt; commands</text><polygon fill="none" points="1537.1592,61.2969,1541.1592,65.2969,1537.1592,69.2969,1533.1592,65.2969" style="stroke:#B38D22;stroke-width:1.0;"/><text fill="#000000" font-family="sans-serif" font-size="14" lengthAdjust="spacing" textLength="243" x="1546.1592" y="72.292">std::vector&lt;std::string&gt; answers;</text><polygon fill="none" points="1537.1592,77.5938,1541.1592,81.5938,1537.1592,85.5938,1533.1592,81.5938" style="stroke:#B38D22;stroke-width:1.0;"/><text fill="#000000" font-family="sans-serif" font-size="14" lengthAdjust="spacing" textLength="148" x="1546.1592" y="88.5889">std::string greetings</text><polygon fill="none" points="1537.1592,93.8906,1541.1592,97.8906,1537.1592,101.8906,1533.1592,97.8906" style="stroke:#B38D22;stroke-width:1.0;"/><text fill="#000000" font-family="sans-serif" font-size="14" lengthAdjust="spacing" textLength="119" x="1546.1592" y="104.8857">std::string name</text><polygon fill="none" points="1537.1592,110.1875,1541.1592,114.1875,1537.1592,118.1875,1533.1592,114.1875" style="stroke:#B38D22;stroke-width:1.0;"/><text fill="#000000" font-family="sans-serif" font-size="14" lengthAdjust="spacing" textLength="92" x="1546.1592" y="121.1826">bool outflag;</text><polygon fill="none" points="1537.1592,126.4844,1541.1592,130.4844,1537.1592,134.4844,1533.1592,130.4844" style="stroke:#B38D22;stroke-width:1.0;"/><text fill="#000000" font-family="sans-serif" font-size="14" lengthAdjust="spacing" textLength="85" x="1546.1592" y="137.4795">int clearscr;</text><ellipse cx="1537.1592" cy="147.7813" fill="none" rx="3" ry="3" style="stroke:#038048;stroke-width:1.0;"/><text fill="#000000" font-family="sans-serif" font-size="14" lengthAdjust="spacing" textLength="290" x="1546.1592" y="153.7764">std::vector&lt;std::string&gt; post_greetings</text><line style="stroke:#181818;stroke-width:0.5;" x1="1527.1592" x2="1868.1592" y1="161.0781" y2="161.0781"/><ellipse cx="1537.1592" cy="172.0781" fill="#84BE84" rx="3" ry="3" style="stroke:#038048;stroke-width:1.0;"/><text fill="#000000" font-family="sans-serif" font-size="14" lengthAdjust="spacing" textLength="317" x="1546.1592" y="178.0732">virtual void execute(int number, Hero *hero)</text><ellipse cx="1537.1592" cy="188.375" fill="#84BE84" rx="3" ry="3" style="stroke:#038048;stroke-width:1.0;"/><text fill="#000000" font-family="sans-serif" font-size="14" lengthAdjust="spacing" textLength="182" x="1546.1592" y="194.3701">int gameplay(Hero *hero)</text></g><!--MD5=[c537c34ecedf2635f440713bf3c697c3]
class high_level_gameplay--><g id="elem_high_level_gameplay"><rect codeLine="39" fill="#F1F1F1" height="64.2969" id="high_level_gameplay" rx="2.5" ry="2.5" style="stroke:#181818;stroke-width:0.5;" width="299" x="1316.1592" y="457.5"/><ellipse cx="1386.9092" cy="473.5" fill="#ADD1B2" rx="11" ry="11" style="stroke:#181818;stroke-width:1.0;"/><path d="M1389.253,469.1719 C1388.3155,468.7344 1387.7217,468.5938 1386.8467,468.5938 C1384.2217,468.5938 1382.2217,470.6719 1382.2217,473.3906 L1382.2217,474.5156 C1382.2217,477.0938 1384.3311,478.9844 1387.2217,478.9844 C1388.4405,478.9844 1389.5967,478.6875 1390.3467,478.1406 C1390.9248,477.7344 1391.253,477.2813 1391.253,476.8906 C1391.253,476.4375 1390.8623,476.0469 1390.3936,476.0469 C1390.1748,476.0469 1389.9717,476.125 1389.7842,476.3125 C1389.3311,476.7969 1389.3311,476.7969 1389.1436,476.8906 C1388.7217,477.1563 1388.0342,477.2813 1387.2686,477.2813 C1385.2217,477.2813 1383.9248,476.1875 1383.9248,474.4844 L1383.9248,473.3906 C1383.9248,471.6094 1385.1748,470.2969 1386.9092,470.2969 C1387.4873,470.2969 1388.0967,470.4531 1388.5655,470.7031 C1389.0498,470.9844 1389.2217,471.2031 1389.3155,471.6094 C1389.378,472.0156 1389.4092,472.1406 1389.5498,472.2656 C1389.6905,472.4063 1389.9248,472.5156 1390.1436,472.5156 C1390.4092,472.5156 1390.6748,472.375 1390.8467,472.1563 C1390.9561,472 1390.9873,471.8125 1390.9873,471.3906 L1390.9873,469.9688 C1390.9873,469.5313 1390.9717,469.4063 1390.878,469.25 C1390.7217,468.9844 1390.4405,468.8438 1390.1436,468.8438 C1389.8467,468.8438 1389.6436,468.9375 1389.4248,469.25 L1389.253,469.1719 Z " fill="#000000"/><text fill="#000000" font-family="sans-serif" font-size="14" lengthAdjust="spacing" textLength="149" x="1407.4092" y="478.3467">high_level_gameplay</text><line style="stroke:#181818;stroke-width:0.5;" x1="1317.1592" x2="1614.1592" y1="489.5" y2="489.5"/><polygon fill="none" points="1327.1592,495.5,1331.1592,499.5,1327.1592,503.5,1323.1592,499.5" style="stroke:#B38D22;stroke-width:1.0;"/><text fill="#000000" font-family="sans-serif" font-size="14" lengthAdjust="spacing" textLength="273" x="1336.1592" y="506.4951">std::vector&lt;lowlevel*&gt; lowcommands</text><line style="stroke:#181818;stroke-width:0.5;" x1="1317.1592" x2="1614.1592" y1="513.7969" y2="513.7969"/></g><!--MD5=[7ba5768608ab52cb39da7e5668075600]
class forge--><g id="elem_forge"><rect codeLine="43" fill="#F1F1F1" height="64.2969" id="forge" rx="2.5" ry="2.5" style="stroke:#181818;stroke-width:0.5;" width="358" x="268.6592" y="1007.5"/><ellipse cx="423.9092" cy="1023.5" fill="#ADD1B2" rx="11" ry="11" style="stroke:#181818;stroke-width:1.0;"/><path d="M426.253,1019.1719 C425.3155,1018.7344 424.7217,1018.5938 423.8467,1018.5938 C421.2217,1018.5938 419.2217,1020.6719 419.2217,1023.3906 L419.2217,1024.5156 C419.2217,1027.0938 421.3311,1028.9844 424.2217,1028.9844 C425.4405,1028.9844 426.5967,1028.6875 427.3467,1028.1406 C427.9248,1027.7344 428.253,1027.2813 428.253,1026.8906 C428.253,1026.4375 427.8623,1026.0469 427.3936,1026.0469 C427.1748,1026.0469 426.9717,1026.125 426.7842,1026.3125 C426.3311,1026.7969 426.3311,1026.7969 426.1436,1026.8906 C425.7217,1027.1563 425.0342,1027.2813 424.2686,1027.2813 C422.2217,1027.2813 420.9248,1026.1875 420.9248,1024.4844 L420.9248,1023.3906 C420.9248,1021.6094 422.1748,1020.2969 423.9092,1020.2969 C424.4873,1020.2969 425.0967,1020.4531 425.5655,1020.7031 C426.0498,1020.9844 426.2217,1021.2031 426.3155,1021.6094 C426.378,1022.0156 426.4092,1022.1406 426.5498,1022.2656 C426.6905,1022.4063 426.9248,1022.5156 427.1436,1022.5156 C427.4092,1022.5156 427.6748,1022.375 427.8467,1022.1563 C427.9561,1022 427.9873,1021.8125 427.9873,1021.3906 L427.9873,1019.9688 C427.9873,1019.5313 427.9717,1019.4063 427.878,1019.25 C427.7217,1018.9844 427.4405,1018.8438 427.1436,1018.8438 C426.8467,1018.8438 426.6436,1018.9375 426.4248,1019.25 L426.253,1019.1719 Z " fill="#000000"/><text fill="#000000" font-family="sans-serif" font-size="14" lengthAdjust="spacing" textLength="39" x="444.4092" y="1028.3467">forge</text><line style="stroke:#181818;stroke-width:0.5;" x1="269.6592" x2="625.6592" y1="1039.5" y2="1039.5"/><line style="stroke:#181818;stroke-width:0.5;" x1="269.6592" x2="625.6592" y1="1047.5" y2="1047.5"/><ellipse cx="279.6592" cy="1058.5" fill="#84BE84" rx="3" ry="3" style="stroke:#038048;stroke-width:1.0;"/><text fill="#000000" font-family="sans-serif" font-size="14" lengthAdjust="spacing" textLength="332" x="288.6592" y="1064.4951">void execute(int number, Hero *hero) override</text></g><!--MD5=[b66c46f79aa3923247c6d0f7784d45f1]
class shop--><g id="elem_shop"><rect codeLine="47" fill="#F1F1F1" height="64.2969" id="shop" rx="2.5" ry="2.5" style="stroke:#181818;stroke-width:0.5;" width="358" x="661.6592" y="1007.5"/><ellipse cx="818.9092" cy="1023.5" fill="#ADD1B2" rx="11" ry="11" style="stroke:#181818;stroke-width:1.0;"/><path d="M821.253,1019.1719 C820.3155,1018.7344 819.7217,1018.5938 818.8467,1018.5938 C816.2217,1018.5938 814.2217,1020.6719 814.2217,1023.3906 L814.2217,1024.5156 C814.2217,1027.0938 816.3311,1028.9844 819.2217,1028.9844 C820.4405,1028.9844 821.5967,1028.6875 822.3467,1028.1406 C822.9248,1027.7344 823.253,1027.2813 823.253,1026.8906 C823.253,1026.4375 822.8623,1026.0469 822.3936,1026.0469 C822.1748,1026.0469 821.9717,1026.125 821.7842,1026.3125 C821.3311,1026.7969 821.3311,1026.7969 821.1436,1026.8906 C820.7217,1027.1563 820.0342,1027.2813 819.2686,1027.2813 C817.2217,1027.2813 815.9248,1026.1875 815.9248,1024.4844 L815.9248,1023.3906 C815.9248,1021.6094 817.1748,1020.2969 818.9092,1020.2969 C819.4873,1020.2969 820.0967,1020.4531 820.5655,1020.7031 C821.0498,1020.9844 821.2217,1021.2031 821.3155,1021.6094 C821.378,1022.0156 821.4092,1022.1406 821.5498,1022.2656 C821.6905,1022.4063 821.9248,1022.5156 822.1436,1022.5156 C822.4092,1022.5156 822.6748,1022.375 822.8467,1022.1563 C822.9561,1022 822.9873,1021.8125 822.9873,1021.3906 L822.9873,1019.9688 C822.9873,1019.5313 822.9717,1019.4063 822.878,1019.25 C822.7217,1018.9844 822.4405,1018.8438 822.1436,1018.8438 C821.8467,1018.8438 821.6436,1018.9375 821.4248,1019.25 L821.253,1019.1719 Z " fill="#000000"/><text fill="#000000" font-family="sans-serif" font-size="14" lengthAdjust="spacing" textLength="35" x="839.4092" y="1028.3467">shop</text><line style="stroke:#181818;stroke-width:0.5;" x1="662.6592" x2="1018.6592" y1="1039.5" y2="1039.5"/><line style="stroke:#181818;stroke-width:0.5;" x1="662.6592" x2="1018.6592" y1="1047.5" y2="1047.5"/><ellipse cx="672.6592" cy="1058.5" fill="#84BE84" rx="3" ry="3" style="stroke:#038048;stroke-width:1.0;"/><text fill="#000000" font-family="sans-serif" font-size="14" lengthAdjust="spacing" textLength="332" x="681.6592" y="1064.4951">void execute(int number, Hero *hero) override</text></g><!--MD5=[ba1befc50e6de48c221bc2393455d8f9]
class library--><g id="elem_library"><rect codeLine="51" fill="#F1F1F1" height="64.2969" id="library" rx="2.5" ry="2.5" style="stroke:#181818;stroke-width:0.5;" width="358" x="1447.6592" y="1007.5"/><ellipse cx="1599.4092" cy="1023.5" fill="#ADD1B2" rx="11" ry="11" style="stroke:#181818;stroke-width:1.0;"/><path d="M1601.753,1019.1719 C1600.8155,1018.7344 1600.2217,1018.5938 1599.3467,1018.5938 C1596.7217,1018.5938 1594.7217,1020.6719 1594.7217,1023.3906 L1594.7217,1024.5156 C1594.7217,1027.0938 1596.8311,1028.9844 1599.7217,1028.9844 C1600.9405,1028.9844 1602.0967,1028.6875 1602.8467,1028.1406 C1603.4248,1027.7344 1603.753,1027.2813 1603.753,1026.8906 C1603.753,1026.4375 1603.3623,1026.0469 1602.8936,1026.0469 C1602.6748,1026.0469 1602.4717,1026.125 1602.2842,1026.3125 C1601.8311,1026.7969 1601.8311,1026.7969 1601.6436,1026.8906 C1601.2217,1027.1563 1600.5342,1027.2813 1599.7686,1027.2813 C1597.7217,1027.2813 1596.4248,1026.1875 1596.4248,1024.4844 L1596.4248,1023.3906 C1596.4248,1021.6094 1597.6748,1020.2969 1599.4092,1020.2969 C1599.9873,1020.2969 1600.5967,1020.4531 1601.0655,1020.7031 C1601.5498,1020.9844 1601.7217,1021.2031 1601.8155,1021.6094 C1601.878,1022.0156 1601.9092,1022.1406 1602.0498,1022.2656 C1602.1905,1022.4063 1602.4248,1022.5156 1602.6436,1022.5156 C1602.9092,1022.5156 1603.1748,1022.375 1603.3467,1022.1563 C1603.4561,1022 1603.4873,1021.8125 1603.4873,1021.3906 L1603.4873,1019.9688 C1603.4873,1019.5313 1603.4717,1019.4063 1603.378,1019.25 C1603.2217,1018.9844 1602.9405,1018.8438 1602.6436,1018.8438 C1602.3467,1018.8438 1602.1436,1018.9375 1601.9248,1019.25 L1601.753,1019.1719 Z " fill="#000000"/><text fill="#000000" font-family="sans-serif" font-size="14" lengthAdjust="spacing" textLength="46" x="1619.9092" y="1028.3467">library</text><line style="stroke:#181818;stroke-width:0.5;" x1="1448.6592" x2="1804.6592" y1="1039.5" y2="1039.5"/><line style="stroke:#181818;stroke-width:0.5;" x1="1448.6592" x2="1804.6592" y1="1047.5" y2="1047.5"/><ellipse cx="1458.6592" cy="1058.5" fill="#84BE84" rx="3" ry="3" style="stroke:#038048;stroke-width:1.0;"/><text fill="#000000" font-family="sans-serif" font-size="14" lengthAdjust="spacing" textLength="332" x="1467.6592" y="1064.4951">void execute(int number, Hero *hero) override</text></g><!--MD5=[6465e5d94f0b70b9e572742fe94501e7]
class equipment--><g id="elem_equipment"><rect codeLine="55" fill="#F1F1F1" height="64.2969" id="equipment" rx="2.5" ry="2.5" style="stroke:#181818;stroke-width:0.5;" width="358" x="1840.6592" y="1007.5"/><ellipse cx="1975.9092" cy="1023.5" fill="#ADD1B2" rx="11" ry="11" style="stroke:#181818;stroke-width:1.0;"/><path d="M1978.253,1019.1719 C1977.3155,1018.7344 1976.7217,1018.5938 1975.8467,1018.5938 C1973.2217,1018.5938 1971.2217,1020.6719 1971.2217,1023.3906 L1971.2217,1024.5156 C1971.2217,1027.0938 1973.3311,1028.9844 1976.2217,1028.9844 C1977.4405,1028.9844 1978.5967,1028.6875 1979.3467,1028.1406 C1979.9248,1027.7344 1980.253,1027.2813 1980.253,1026.8906 C1980.253,1026.4375 1979.8623,1026.0469 1979.3936,1026.0469 C1979.1748,1026.0469 1978.9717,1026.125 1978.7842,1026.3125 C1978.3311,1026.7969 1978.3311,1026.7969 1978.1436,1026.8906 C1977.7217,1027.1563 1977.0342,1027.2813 1976.2686,1027.2813 C1974.2217,1027.2813 1972.9248,1026.1875 1972.9248,1024.4844 L1972.9248,1023.3906 C1972.9248,1021.6094 1974.1748,1020.2969 1975.9092,1020.2969 C1976.4873,1020.2969 1977.0967,1020.4531 1977.5655,1020.7031 C1978.0498,1020.9844 1978.2217,1021.2031 1978.3155,1021.6094 C1978.378,1022.0156 1978.4092,1022.1406 1978.5498,1022.2656 C1978.6905,1022.4063 1978.9248,1022.5156 1979.1436,1022.5156 C1979.4092,1022.5156 1979.6748,1022.375 1979.8467,1022.1563 C1979.9561,1022 1979.9873,1021.8125 1979.9873,1021.3906 L1979.9873,1019.9688 C1979.9873,1019.5313 1979.9717,1019.4063 1979.878,1019.25 C1979.7217,1018.9844 1979.4405,1018.8438 1979.1436,1018.8438 C1978.8467,1018.8438 1978.6436,1018.9375 1978.4248,1019.25 L1978.253,1019.1719 Z " fill="#000000"/><text fill="#000000" font-family="sans-serif" font-size="14" lengthAdjust="spacing" textLength="79" x="1996.4092" y="1028.3467">equipment</text><line style="stroke:#181818;stroke-width:0.5;" x1="1841.6592" x2="2197.6592" y1="1039.5" y2="1039.5"/><line style="stroke:#181818;stroke-width:0.5;" x1="1841.6592" x2="2197.6592" y1="1047.5" y2="1047.5"/><ellipse cx="1851.6592" cy="1058.5" fill="#84BE84" rx="3" ry="3" style="stroke:#038048;stroke-width:1.0;"/><text fill="#000000" font-family="sans-serif" font-size="14" lengthAdjust="spacing" textLength="332" x="1860.6592" y="1064.4951">void execute(int number, Hero *hero) override</text></g><!--MD5=[3026d852bb0876305595206c59471727]
class battle--><g id="elem_battle"><rect codeLine="58" fill="#F1F1F1" height="113.1875" id="battle" rx="2.5" ry="2.5" style="stroke:#181818;stroke-width:0.5;" width="358" x="1054.6592" y="983"/><ellipse cx="1206.9092" cy="999" fill="#ADD1B2" rx="11" ry="11" style="stroke:#181818;stroke-width:1.0;"/><path d="M1209.253,994.6719 C1208.3155,994.2344 1207.7217,994.0938 1206.8467,994.0938 C1204.2217,994.0938 1202.2217,996.1719 1202.2217,998.8906 L1202.2217,1000.0156 C1202.2217,1002.5938 1204.3311,1004.4844 1207.2217,1004.4844 C1208.4405,1004.4844 1209.5967,1004.1875 1210.3467,1003.6406 C1210.9248,1003.2344 1211.253,1002.7813 1211.253,1002.3906 C1211.253,1001.9375 1210.8623,1001.5469 1210.3936,1001.5469 C1210.1748,1001.5469 1209.9717,1001.625 1209.7842,1001.8125 C1209.3311,1002.2969 1209.3311,1002.2969 1209.1436,1002.3906 C1208.7217,1002.6563 1208.0342,1002.7813 1207.2686,1002.7813 C1205.2217,1002.7813 1203.9248,1001.6875 1203.9248,999.9844 L1203.9248,998.8906 C1203.9248,997.1094 1205.1748,995.7969 1206.9092,995.7969 C1207.4873,995.7969 1208.0967,995.9531 1208.5655,996.2031 C1209.0498,996.4844 1209.2217,996.7031 1209.3155,997.1094 C1209.378,997.5156 1209.4092,997.6406 1209.5498,997.7656 C1209.6905,997.9063 1209.9248,998.0156 1210.1436,998.0156 C1210.4092,998.0156 1210.6748,997.875 1210.8467,997.6563 C1210.9561,997.5 1210.9873,997.3125 1210.9873,996.8906 L1210.9873,995.4688 C1210.9873,995.0313 1210.9717,994.9063 1210.878,994.75 C1210.7217,994.4844 1210.4405,994.3438 1210.1436,994.3438 C1209.8467,994.3438 1209.6436,994.4375 1209.4248,994.75 L1209.253,994.6719 Z " fill="#000000"/><text fill="#000000" font-family="sans-serif" font-size="14" lengthAdjust="spacing" textLength="45" x="1227.4092" y="1003.8467">battle</text><line style="stroke:#181818;stroke-width:0.5;" x1="1055.6592" x2="1411.6592" y1="1015" y2="1015"/><rect fill="none" height="6" style="stroke:#C82930;stroke-width:1.0;" width="6" x="1062.6592" y="1023"/><text fill="#000000" font-family="sans-serif" font-size="14" lengthAdjust="spacing" textLength="163" x="1074.6592" y="1031.9951">Location location_data</text><rect fill="none" height="6" style="stroke:#C82930;stroke-width:1.0;" width="6" x="1062.6592" y="1039.2969"/><text fill="#000000" font-family="sans-serif" font-size="14" lengthAdjust="spacing" textLength="131" x="1074.6592" y="1048.292">Location* location</text><line style="stroke:#181818;stroke-width:0.5;" x1="1055.6592" x2="1411.6592" y1="1055.5938" y2="1055.5938"/><rect fill="#F24D5C" height="6" style="stroke:#C82930;stroke-width:1.0;" width="6" x="1062.6592" y="1063.5938"/><text fill="#000000" font-family="sans-serif" font-size="14" lengthAdjust="spacing" textLength="292" x="1074.6592" y="1072.5889">bool Attack(int atk_rate, int evade_rate)</text><ellipse cx="1065.6592" cy="1082.8906" fill="#84BE84" rx="3" ry="3" style="stroke:#038048;stroke-width:1.0;"/><text fill="#000000" font-family="sans-serif" font-size="14" lengthAdjust="spacing" textLength="332" x="1074.6592" y="1088.8857">void execute(int number, Hero *hero) override</text></g><!--MD5=[af2f9f8b180e2923141b14ab9599112d]
class attack_type--><g id="elem_attack_type"><rect codeLine="65" fill="#F1F1F1" height="64.2969" id="attack_type" rx="2.5" ry="2.5" style="stroke:#181818;stroke-width:0.5;" width="358" x="44.6592" y="1188.5"/><ellipse cx="175.4092" cy="1204.5" fill="#ADD1B2" rx="11" ry="11" style="stroke:#181818;stroke-width:1.0;"/><path d="M177.753,1200.1719 C176.8155,1199.7344 176.2217,1199.5938 175.3467,1199.5938 C172.7217,1199.5938 170.7217,1201.6719 170.7217,1204.3906 L170.7217,1205.5156 C170.7217,1208.0938 172.8311,1209.9844 175.7217,1209.9844 C176.9405,1209.9844 178.0967,1209.6875 178.8467,1209.1406 C179.4248,1208.7344 179.753,1208.2813 179.753,1207.8906 C179.753,1207.4375 179.3623,1207.0469 178.8936,1207.0469 C178.6748,1207.0469 178.4717,1207.125 178.2842,1207.3125 C177.8311,1207.7969 177.8311,1207.7969 177.6436,1207.8906 C177.2217,1208.1563 176.5342,1208.2813 175.7686,1208.2813 C173.7217,1208.2813 172.4248,1207.1875 172.4248,1205.4844 L172.4248,1204.3906 C172.4248,1202.6094 173.6748,1201.2969 175.4092,1201.2969 C175.9873,1201.2969 176.5967,1201.4531 177.0655,1201.7031 C177.5498,1201.9844 177.7217,1202.2031 177.8155,1202.6094 C177.878,1203.0156 177.9092,1203.1406 178.0498,1203.2656 C178.1905,1203.4063 178.4248,1203.5156 178.6436,1203.5156 C178.9092,1203.5156 179.1748,1203.375 179.3467,1203.1563 C179.4561,1203 179.4873,1202.8125 179.4873,1202.3906 L179.4873,1200.9688 C179.4873,1200.5313 179.4717,1200.4063 179.378,1200.25 C179.2217,1199.9844 178.9405,1199.8438 178.6436,1199.8438 C178.3467,1199.8438 178.1436,1199.9375 177.9248,1200.25 L177.753,1200.1719 Z " fill="#000000"/><text fill="#000000" font-family="sans-serif" font-size="14" lengthAdjust="spacing" textLength="88" x="195.9092" y="1209.3467">attack_type</text><line style="stroke:#181818;stroke-width:0.5;" x1="45.6592" x2="401.6592" y1="1220.5" y2="1220.5"/><line style="stroke:#181818;stroke-width:0.5;" x1="45.6592" x2="401.6592" y1="1228.5" y2="1228.5"/><ellipse cx="55.6592" cy="1239.5" fill="#84BE84" rx="3" ry="3" style="stroke:#038048;stroke-width:1.0;"/><text fill="#000000" font-family="sans-serif" font-size="14" lengthAdjust="spacing" textLength="332" x="64.6592" y="1245.4951">void execute(int number, Hero *hero) override</text></g><!--MD5=[09b78c6047db83a9355d1ba77fb814fc]
class attack_spell--><g id="elem_attack_spell"><rect codeLine="69" fill="#F1F1F1" height="64.2969" id="attack_spell" rx="2.5" ry="2.5" style="stroke:#181818;stroke-width:0.5;" width="358" x="594.6592" y="1188.5"/><ellipse cx="725.4092" cy="1204.5" fill="#ADD1B2" rx="11" ry="11" style="stroke:#181818;stroke-width:1.0;"/><path d="M727.753,1200.1719 C726.8155,1199.7344 726.2217,1199.5938 725.3467,1199.5938 C722.7217,1199.5938 720.7217,1201.6719 720.7217,1204.3906 L720.7217,1205.5156 C720.7217,1208.0938 722.8311,1209.9844 725.7217,1209.9844 C726.9405,1209.9844 728.0967,1209.6875 728.8467,1209.1406 C729.4248,1208.7344 729.753,1208.2813 729.753,1207.8906 C729.753,1207.4375 729.3623,1207.0469 728.8936,1207.0469 C728.6748,1207.0469 728.4717,1207.125 728.2842,1207.3125 C727.8311,1207.7969 727.8311,1207.7969 727.6436,1207.8906 C727.2217,1208.1563 726.5342,1208.2813 725.7686,1208.2813 C723.7217,1208.2813 722.4248,1207.1875 722.4248,1205.4844 L722.4248,1204.3906 C722.4248,1202.6094 723.6748,1201.2969 725.4092,1201.2969 C725.9873,1201.2969 726.5967,1201.4531 727.0655,1201.7031 C727.5498,1201.9844 727.7217,1202.2031 727.8155,1202.6094 C727.878,1203.0156 727.9092,1203.1406 728.0498,1203.2656 C728.1905,1203.4063 728.4248,1203.5156 728.6436,1203.5156 C728.9092,1203.5156 729.1748,1203.375 729.3467,1203.1563 C729.4561,1203 729.4873,1202.8125 729.4873,1202.3906 L729.4873,1200.9688 C729.4873,1200.5313 729.4717,1200.4063 729.378,1200.25 C729.2217,1199.9844 728.9405,1199.8438 728.6436,1199.8438 C728.3467,1199.8438 728.1436,1199.9375 727.9248,1200.25 L727.753,1200.1719 Z " fill="#000000"/><text fill="#000000" font-family="sans-serif" font-size="14" lengthAdjust="spacing" textLength="88" x="745.9092" y="1209.3467">attack_spell</text><line style="stroke:#181818;stroke-width:0.5;" x1="595.6592" x2="951.6592" y1="1220.5" y2="1220.5"/><line style="stroke:#181818;stroke-width:0.5;" x1="595.6592" x2="951.6592" y1="1228.5" y2="1228.5"/><ellipse cx="605.6592" cy="1239.5" fill="#84BE84" rx="3" ry="3" style="stroke:#038048;stroke-width:1.0;"/><text fill="#000000" font-family="sans-serif" font-size="14" lengthAdjust="spacing" textLength="332" x="614.6592" y="1245.4951">void execute(int number, Hero *hero) override</text></g><!--MD5=[f126f6e1b8de651b71cbc5cba5a356cb]
class attack_target--><g id="elem_attack_target"><rect codeLine="73" fill="#F1F1F1" height="64.2969" id="attack_target" rx="2.5" ry="2.5" style="stroke:#181818;stroke-width:0.5;" width="358" x="1950.6592" y="1188.5"/><ellipse cx="2075.4092" cy="1204.5" fill="#ADD1B2" rx="11" ry="11" style="stroke:#181818;stroke-width:1.0;"/><path d="M2077.753,1200.1719 C2076.8155,1199.7344 2076.2217,1199.5938 2075.3467,1199.5938 C2072.7217,1199.5938 2070.7217,1201.6719 2070.7217,1204.3906 L2070.7217,1205.5156 C2070.7217,1208.0938 2072.8311,1209.9844 2075.7217,1209.9844 C2076.9405,1209.9844 2078.0967,1209.6875 2078.8467,1209.1406 C2079.4248,1208.7344 2079.753,1208.2813 2079.753,1207.8906 C2079.753,1207.4375 2079.3623,1207.0469 2078.8936,1207.0469 C2078.6748,1207.0469 2078.4717,1207.125 2078.2842,1207.3125 C2077.8311,1207.7969 2077.8311,1207.7969 2077.6436,1207.8906 C2077.2217,1208.1563 2076.5342,1208.2813 2075.7686,1208.2813 C2073.7217,1208.2813 2072.4248,1207.1875 2072.4248,1205.4844 L2072.4248,1204.3906 C2072.4248,1202.6094 2073.6748,1201.2969 2075.4092,1201.2969 C2075.9873,1201.2969 2076.5967,1201.4531 2077.0655,1201.7031 C2077.5498,1201.9844 2077.7217,1202.2031 2077.8155,1202.6094 C2077.878,1203.0156 2077.9092,1203.1406 2078.0498,1203.2656 C2078.1905,1203.4063 2078.4248,1203.5156 2078.6436,1203.5156 C2078.9092,1203.5156 2079.1748,1203.375 2079.3467,1203.1563 C2079.4561,1203 2079.4873,1202.8125 2079.4873,1202.3906 L2079.4873,1200.9688 C2079.4873,1200.5313 2079.4717,1200.4063 2079.378,1200.25 C2079.2217,1199.9844 2078.9405,1199.8438 2078.6436,1199.8438 C2078.3467,1199.8438 2078.1436,1199.9375 2077.9248,1200.25 L2077.753,1200.1719 Z " fill="#000000"/><text fill="#000000" font-family="sans-serif" font-size="14" lengthAdjust="spacing" textLength="100" x="2095.9092" y="1209.3467">attack_target</text><line style="stroke:#181818;stroke-width:0.5;" x1="1951.6592" x2="2307.6592" y1="1220.5" y2="1220.5"/><line style="stroke:#181818;stroke-width:0.5;" x1="1951.6592" x2="2307.6592" y1="1228.5" y2="1228.5"/><ellipse cx="1961.6592" cy="1239.5" fill="#84BE84" rx="3" ry="3" style="stroke:#038048;stroke-width:1.0;"/><text fill="#000000" font-family="sans-serif" font-size="14" lengthAdjust="spacing" textLength="332" x="1970.6592" y="1245.4951">void execute(int number, Hero *hero) override</text></g><!--MD5=[b6dcce5e5ef3c84b0b048d11301373dd]
class Game--><g id="elem_Game"><rect codeLine="86" fill="#F1F1F1" height="64.2969" id="Game" rx="2.5" ry="2.5" style="stroke:#181818;stroke-width:0.5;" width="358" x="1286.6592" y="818"/><ellipse cx="1440.4092" cy="834" fill="#ADD1B2" rx="11" ry="11" style="stroke:#181818;stroke-width:1.0;"/><path d="M1442.753,829.6719 C1441.8155,829.2344 1441.2217,829.0938 1440.3467,829.0938 C1437.7217,829.0938 1435.7217,831.1719 1435.7217,833.8906 L1435.7217,835.0156 C1435.7217,837.5938 1437.8311,839.4844 1440.7217,839.4844 C1441.9405,839.4844 1443.0967,839.1875 1443.8467,838.6406 C1444.4248,838.2344 1444.753,837.7813 1444.753,837.3906 C1444.753,836.9375 1444.3623,836.5469 1443.8936,836.5469 C1443.6748,836.5469 1443.4717,836.625 1443.2842,836.8125 C1442.8311,837.2969 1442.8311,837.2969 1442.6436,837.3906 C1442.2217,837.6563 1441.5342,837.7813 1440.7686,837.7813 C1438.7217,837.7813 1437.4248,836.6875 1437.4248,834.9844 L1437.4248,833.8906 C1437.4248,832.1094 1438.6748,830.7969 1440.4092,830.7969 C1440.9873,830.7969 1441.5967,830.9531 1442.0655,831.2031 C1442.5498,831.4844 1442.7217,831.7031 1442.8155,832.1094 C1442.878,832.5156 1442.9092,832.6406 1443.0498,832.7656 C1443.1905,832.9063 1443.4248,833.0156 1443.6436,833.0156 C1443.9092,833.0156 1444.1748,832.875 1444.3467,832.6563 C1444.4561,832.5 1444.4873,832.3125 1444.4873,831.8906 L1444.4873,830.4688 C1444.4873,830.0313 1444.4717,829.9063 1444.378,829.75 C1444.2217,829.4844 1443.9405,829.3438 1443.6436,829.3438 C1443.3467,829.3438 1443.1436,829.4375 1442.9248,829.75 L1442.753,829.6719 Z " fill="#000000"/><text fill="#000000" font-family="sans-serif" font-size="14" lengthAdjust="spacing" textLength="42" x="1460.9092" y="838.8467">Game</text><line style="stroke:#181818;stroke-width:0.5;" x1="1287.6592" x2="1643.6592" y1="850" y2="850"/><line style="stroke:#181818;stroke-width:0.5;" x1="1287.6592" x2="1643.6592" y1="858" y2="858"/><ellipse cx="1297.6592" cy="869" fill="#84BE84" rx="3" ry="3" style="stroke:#038048;stroke-width:1.0;"/><text fill="#000000" font-family="sans-serif" font-size="14" lengthAdjust="spacing" textLength="332" x="1306.6592" y="874.9951">void execute(int number, Hero *hero) override</text></g><!--MD5=[c3e90ddf025068297a002399d3e6c720]
class levelup--><g id="elem_levelup"><rect codeLine="78" fill="#F1F1F1" height="64.2969" id="levelup" rx="2.5" ry="2.5" style="stroke:#181818;stroke-width:0.5;" width="358" x="2233.6592" y="1007.5"/><ellipse cx="2382.4092" cy="1023.5" fill="#ADD1B2" rx="11" ry="11" style="stroke:#181818;stroke-width:1.0;"/><path d="M2384.753,1019.1719 C2383.8155,1018.7344 2383.2217,1018.5938 2382.3467,1018.5938 C2379.7217,1018.5938 2377.7217,1020.6719 2377.7217,1023.3906 L2377.7217,1024.5156 C2377.7217,1027.0938 2379.8311,1028.9844 2382.7217,1028.9844 C2383.9405,1028.9844 2385.0967,1028.6875 2385.8467,1028.1406 C2386.4248,1027.7344 2386.753,1027.2813 2386.753,1026.8906 C2386.753,1026.4375 2386.3623,1026.0469 2385.8936,1026.0469 C2385.6748,1026.0469 2385.4717,1026.125 2385.2842,1026.3125 C2384.8311,1026.7969 2384.8311,1026.7969 2384.6436,1026.8906 C2384.2217,1027.1563 2383.5342,1027.2813 2382.7686,1027.2813 C2380.7217,1027.2813 2379.4248,1026.1875 2379.4248,1024.4844 L2379.4248,1023.3906 C2379.4248,1021.6094 2380.6748,1020.2969 2382.4092,1020.2969 C2382.9873,1020.2969 2383.5967,1020.4531 2384.0655,1020.7031 C2384.5498,1020.9844 2384.7217,1021.2031 2384.8155,1021.6094 C2384.878,1022.0156 2384.9092,1022.1406 2385.0498,1022.2656 C2385.1905,1022.4063 2385.4248,1022.5156 2385.6436,1022.5156 C2385.9092,1022.5156 2386.1748,1022.375 2386.3467,1022.1563 C2386.4561,1022 2386.4873,1021.8125 2386.4873,1021.3906 L2386.4873,1019.9688 C2386.4873,1019.5313 2386.4717,1019.4063 2386.378,1019.25 C2386.2217,1018.9844 2385.9405,1018.8438 2385.6436,1018.8438 C2385.3467,1018.8438 2385.1436,1018.9375 2384.9248,1019.25 L2384.753,1019.1719 Z " fill="#000000"/><text fill="#000000" font-family="sans-serif" font-size="14" lengthAdjust="spacing" textLength="52" x="2402.9092" y="1028.3467">levelup</text><line style="stroke:#181818;stroke-width:0.5;" x1="2234.6592" x2="2590.6592" y1="1039.5" y2="1039.5"/><line style="stroke:#181818;stroke-width:0.5;" x1="2234.6592" x2="2590.6592" y1="1047.5" y2="1047.5"/><ellipse cx="2244.6592" cy="1058.5" fill="#84BE84" rx="3" ry="3" style="stroke:#038048;stroke-width:1.0;"/><text fill="#000000" font-family="sans-serif" font-size="14" lengthAdjust="spacing" textLength="332" x="2253.6592" y="1064.4951">void execute(int number, Hero *hero) override</text></g><!--MD5=[7c8749bc6a4f5e454677f8d5c80a2093]
class choose_hero--><g id="elem_choose_hero"><rect codeLine="82" fill="#F1F1F1" height="64.2969" id="choose_hero" rx="2.5" ry="2.5" style="stroke:#181818;stroke-width:0.5;" width="358" x="2697.6592" y="457.5"/><ellipse cx="2826.9092" cy="473.5" fill="#ADD1B2" rx="11" ry="11" style="stroke:#181818;stroke-width:1.0;"/><path d="M2829.253,469.1719 C2828.3155,468.7344 2827.7217,468.5938 2826.8467,468.5938 C2824.2217,468.5938 2822.2217,470.6719 2822.2217,473.3906 L2822.2217,474.5156 C2822.2217,477.0938 2824.3311,478.9844 2827.2217,478.9844 C2828.4405,478.9844 2829.5967,478.6875 2830.3467,478.1406 C2830.9248,477.7344 2831.253,477.2813 2831.253,476.8906 C2831.253,476.4375 2830.8623,476.0469 2830.3936,476.0469 C2830.1748,476.0469 2829.9717,476.125 2829.7842,476.3125 C2829.3311,476.7969 2829.3311,476.7969 2829.1436,476.8906 C2828.7217,477.1563 2828.0342,477.2813 2827.2686,477.2813 C2825.2217,477.2813 2823.9248,476.1875 2823.9248,474.4844 L2823.9248,473.3906 C2823.9248,471.6094 2825.1748,470.2969 2826.9092,470.2969 C2827.4873,470.2969 2828.0967,470.4531 2828.5655,470.7031 C2829.0498,470.9844 2829.2217,471.2031 2829.3155,471.6094 C2829.378,472.0156 2829.4092,472.1406 2829.5498,472.2656 C2829.6905,472.4063 2829.9248,472.5156 2830.1436,472.5156 C2830.4092,472.5156 2830.6748,472.375 2830.8467,472.1563 C2830.9561,472 2830.9873,471.8125 2830.9873,471.3906 L2830.9873,469.9688 C2830.9873,469.5313 2830.9717,469.4063 2830.878,469.25 C2830.7217,468.9844 2830.4405,468.8438 2830.1436,468.8438 C2829.8467,468.8438 2829.6436,468.9375 2829.4248,469.25 L2829.253,469.1719 Z " fill="#000000"/><text fill="#000000" font-family="sans-serif" font-size="14" lengthAdjust="spacing" textLength="91" x="2847.4092" y="478.3467">choose_hero</text><line style="stroke:#181818;stroke-width:0.5;" x1="2698.6592" x2="3054.6592" y1="489.5" y2="489.5"/><line style="stroke:#181818;stroke-width:0.5;" x1="2698.6592" x2="3054.6592" y1="497.5" y2="497.5"/><ellipse cx="2708.6592" cy="508.5" fill="#84BE84" rx="3" ry="3" style="stroke:#038048;stroke-width:1.0;"/><text fill="#000000" font-family="sans-serif" font-size="14" lengthAdjust="spacing" textLength="332" x="2717.6592" y="514.4951">void execute(int number, Hero *hero) override</text></g><!--MD5=[91479ea48b7ac5e240af5b8b7c66443f]
class location--><g id="elem_location"><rect codeLine="90" fill="#F1F1F1" height="129.4844" id="location" rx="2.5" ry="2.5" style="stroke:#181818;stroke-width:0.5;" width="334" x="1066.6592" y="1156"/><ellipse cx="1200.4092" cy="1172" fill="#ADD1B2" rx="11" ry="11" style="stroke:#181818;stroke-width:1.0;"/><path d="M1202.753,1167.6719 C1201.8155,1167.2344 1201.2217,1167.0938 1200.3467,1167.0938 C1197.7217,1167.0938 1195.7217,1169.1719 1195.7217,1171.8906 L1195.7217,1173.0156 C1195.7217,1175.5938 1197.8311,1177.4844 1200.7217,1177.4844 C1201.9405,1177.4844 1203.0967,1177.1875 1203.8467,1176.6406 C1204.4248,1176.2344 1204.753,1175.7813 1204.753,1175.3906 C1204.753,1174.9375 1204.3623,1174.5469 1203.8936,1174.5469 C1203.6748,1174.5469 1203.4717,1174.625 1203.2842,1174.8125 C1202.8311,1175.2969 1202.8311,1175.2969 1202.6436,1175.3906 C1202.2217,1175.6563 1201.5342,1175.7813 1200.7686,1175.7813 C1198.7217,1175.7813 1197.4248,1174.6875 1197.4248,1172.9844 L1197.4248,1171.8906 C1197.4248,1170.1094 1198.6748,1168.7969 1200.4092,1168.7969 C1200.9873,1168.7969 1201.5967,1168.9531 1202.0655,1169.2031 C1202.5498,1169.4844 1202.7217,1169.7031 1202.8155,1170.1094 C1202.878,1170.5156 1202.9092,1170.6406 1203.0498,1170.7656 C1203.1905,1170.9063 1203.4248,1171.0156 1203.6436,1171.0156 C1203.9092,1171.0156 1204.1748,1170.875 1204.3467,1170.6563 C1204.4561,1170.5 1204.4873,1170.3125 1204.4873,1169.8906 L1204.4873,1168.4688 C1204.4873,1168.0313 1204.4717,1167.9063 1204.378,1167.75 C1204.2217,1167.4844 1203.9405,1167.3438 1203.6436,1167.3438 C1203.3467,1167.3438 1203.1436,1167.4375 1202.9248,1167.75 L1202.753,1167.6719 Z " fill="#000000"/><text fill="#000000" font-family="sans-serif" font-size="14" lengthAdjust="spacing" textLength="58" x="1220.9092" y="1176.8467">location</text><line style="stroke:#181818;stroke-width:0.5;" x1="1067.6592" x2="1399.6592" y1="1188" y2="1188"/><ellipse cx="1077.6592" cy="1199" fill="none" rx="3" ry="3" style="stroke:#038048;stroke-width:1.0;"/><text fill="#000000" font-family="sans-serif" font-size="14" lengthAdjust="spacing" textLength="119" x="1086.6592" y="1204.9951">std::string name</text><ellipse cx="1077.6592" cy="1215.2969" fill="none" rx="3" ry="3" style="stroke:#038048;stroke-width:1.0;"/><text fill="#000000" font-family="sans-serif" font-size="14" lengthAdjust="spacing" textLength="79" x="1086.6592" y="1221.292">int amount</text><ellipse cx="1077.6592" cy="1231.5938" fill="none" rx="3" ry="3" style="stroke:#038048;stroke-width:1.0;"/><text fill="#000000" font-family="sans-serif" font-size="14" lengthAdjust="spacing" textLength="308" x="1086.6592" y="1237.5889">std::vector&lt;std::vector&lt;Monster&gt;&gt; levels</text><ellipse cx="1077.6592" cy="1247.8906" fill="none" rx="3" ry="3" style="stroke:#038048;stroke-width:1.0;"/><text fill="#000000" font-family="sans-serif" font-size="14" lengthAdjust="spacing" textLength="186" x="1086.6592" y="1253.8857">std::vector&lt;int&gt; treasure</text><line style="stroke:#181818;stroke-width:0.5;" x1="1067.6592" x2="1399.6592" y1="1261.1875" y2="1261.1875"/><ellipse cx="1077.6592" cy="1272.1875" fill="#84BE84" rx="3" ry="3" style="stroke:#038048;stroke-width:1.0;"/><text fill="#000000" font-family="sans-serif" font-size="14" lengthAdjust="spacing" textLength="175" x="1086.6592" y="1278.1826">void generate_location()</text></g><!--MD5=[d2c4278637bdc93ab6ebd71329cfa63c]
class Monster--><g id="elem_Monster"><rect codeLine="98" fill="#F1F1F1" height="243.5625" id="Monster" rx="2.5" ry="2.5" style="stroke:#181818;stroke-width:0.5;" width="145" x="1161.1592" y="1345"/><ellipse cx="1200.4592" cy="1361" fill="#ADD1B2" rx="11" ry="11" style="stroke:#181818;stroke-width:1.0;"/><path d="M1202.803,1356.6719 C1201.8655,1356.2344 1201.2717,1356.0938 1200.3967,1356.0938 C1197.7717,1356.0938 1195.7717,1358.1719 1195.7717,1360.8906 L1195.7717,1362.0156 C1195.7717,1364.5938 1197.8811,1366.4844 1200.7717,1366.4844 C1201.9905,1366.4844 1203.1467,1366.1875 1203.8967,1365.6406 C1204.4748,1365.2344 1204.803,1364.7813 1204.803,1364.3906 C1204.803,1363.9375 1204.4123,1363.5469 1203.9436,1363.5469 C1203.7248,1363.5469 1203.5217,1363.625 1203.3342,1363.8125 C1202.8811,1364.2969 1202.8811,1364.2969 1202.6936,1364.3906 C1202.2717,1364.6563 1201.5842,1364.7813 1200.8186,1364.7813 C1198.7717,1364.7813 1197.4748,1363.6875 1197.4748,1361.9844 L1197.4748,1360.8906 C1197.4748,1359.1094 1198.7248,1357.7969 1200.4592,1357.7969 C1201.0373,1357.7969 1201.6467,1357.9531 1202.1155,1358.2031 C1202.5998,1358.4844 1202.7717,1358.7031 1202.8655,1359.1094 C1202.928,1359.5156 1202.9592,1359.6406 1203.0998,1359.7656 C1203.2405,1359.9063 1203.4748,1360.0156 1203.6936,1360.0156 C1203.9592,1360.0156 1204.2248,1359.875 1204.3967,1359.6563 C1204.5061,1359.5 1204.5373,1359.3125 1204.5373,1358.8906 L1204.5373,1357.4688 C1204.5373,1357.0313 1204.5217,1356.9063 1204.428,1356.75 C1204.2717,1356.4844 1203.9905,1356.3438 1203.6936,1356.3438 C1203.3967,1356.3438 1203.1936,1356.4375 1202.9748,1356.75 L1202.803,1356.6719 Z " fill="#000000"/><text fill="#000000" font-family="sans-serif" font-size="14" lengthAdjust="spacing" textLength="59" x="1219.8592" y="1365.8467">Monster</text><line style="stroke:#181818;stroke-width:0.5;" x1="1162.1592" x2="1305.1592" y1="1377" y2="1377"/><ellipse cx="1172.1592" cy="1388" fill="none" rx="3" ry="3" style="stroke:#038048;stroke-width:1.0;"/><text fill="#000000" font-family="sans-serif" font-size="14" lengthAdjust="spacing" textLength="119" x="1181.1592" y="1393.9951">std::string name</text><ellipse cx="1172.1592" cy="1404.2969" fill="none" rx="3" ry="3" style="stroke:#038048;stroke-width:1.0;"/><text fill="#000000" font-family="sans-serif" font-size="14" lengthAdjust="spacing" textLength="70" x="1181.1592" y="1410.292">int health</text><ellipse cx="1172.1592" cy="1420.5938" fill="none" rx="3" ry="3" style="stroke:#038048;stroke-width:1.0;"/><text fill="#000000" font-family="sans-serif" font-size="14" lengthAdjust="spacing" textLength="67" x="1181.1592" y="1426.5889">int evade</text><ellipse cx="1172.1592" cy="1436.8906" fill="none" rx="3" ry="3" style="stroke:#038048;stroke-width:1.0;"/><text fill="#000000" font-family="sans-serif" font-size="14" lengthAdjust="spacing" textLength="71" x="1181.1592" y="1442.8857">int attack</text><ellipse cx="1172.1592" cy="1453.1875" fill="none" rx="3" ry="3" style="stroke:#038048;stroke-width:1.0;"/><text fill="#000000" font-family="sans-serif" font-size="14" lengthAdjust="spacing" textLength="81" x="1181.1592" y="1459.1826">int damage</text><ellipse cx="1172.1592" cy="1469.4844" fill="none" rx="3" ry="3" style="stroke:#038048;stroke-width:1.0;"/><text fill="#000000" font-family="sans-serif" font-size="14" lengthAdjust="spacing" textLength="73" x="1181.1592" y="1475.4795">int money</text><ellipse cx="1172.1592" cy="1485.7813" fill="none" rx="3" ry="3" style="stroke:#038048;stroke-width:1.0;"/><text fill="#000000" font-family="sans-serif" font-size="14" lengthAdjust="spacing" textLength="51" x="1181.1592" y="1491.7764">int exp</text><ellipse cx="1172.1592" cy="1502.0781" fill="none" rx="3" ry="3" style="stroke:#038048;stroke-width:1.0;"/><text fill="#000000" font-family="sans-serif" font-size="14" lengthAdjust="spacing" textLength="58" x="1181.1592" y="1508.0732">int level</text><ellipse cx="1172.1592" cy="1518.375" fill="none" rx="3" ry="3" style="stroke:#038048;stroke-width:1.0;"/><text fill="#000000" font-family="sans-serif" font-size="14" lengthAdjust="spacing" textLength="49" x="1181.1592" y="1524.3701">int diff</text><ellipse cx="1172.1592" cy="1534.6719" fill="none" rx="3" ry="3" style="stroke:#038048;stroke-width:1.0;"/><text fill="#000000" font-family="sans-serif" font-size="14" lengthAdjust="spacing" textLength="71" x="1181.1592" y="1540.667">bool dead</text><line style="stroke:#181818;stroke-width:0.5;" x1="1162.1592" x2="1305.1592" y1="1547.9688" y2="1547.9688"/><ellipse cx="1172.1592" cy="1558.9688" fill="#84BE84" rx="3" ry="3" style="stroke:#038048;stroke-width:1.0;"/><text fill="#000000" font-family="sans-serif" font-size="14" lengthAdjust="spacing" textLength="94" x="1181.1592" y="1564.9639">void rebuild()</text><ellipse cx="1172.1592" cy="1575.2656" fill="#84BE84" rx="3" ry="3" style="stroke:#038048;stroke-width:1.0;"/><text fill="#000000" font-family="sans-serif" font-size="14" lengthAdjust="spacing" textLength="117" x="1181.1592" y="1581.2607">std::string info()</text></g><!--MD5=[666ab4d123c8a4db535fefed801ea066]
class Hero--><g id="elem_Hero"><rect codeLine="113" fill="#F1F1F1" height="455.4219" id="Hero" rx="2.5" ry="2.5" style="stroke:#181818;stroke-width:0.5;" width="209" x="3091.1592" y="262"/><ellipse cx="3174.4092" cy="278" fill="#ADD1B2" rx="11" ry="11" style="stroke:#181818;stroke-width:1.0;"/><path d="M3176.753,273.6719 C3175.8155,273.2344 3175.2217,273.0938 3174.3467,273.0938 C3171.7217,273.0938 3169.7217,275.1719 3169.7217,277.8906 L3169.7217,279.0156 C3169.7217,281.5938 3171.8311,283.4844 3174.7217,283.4844 C3175.9405,283.4844 3177.0967,283.1875 3177.8467,282.6406 C3178.4248,282.2344 3178.753,281.7813 3178.753,281.3906 C3178.753,280.9375 3178.3623,280.5469 3177.8936,280.5469 C3177.6748,280.5469 3177.4717,280.625 3177.2842,280.8125 C3176.8311,281.2969 3176.8311,281.2969 3176.6436,281.3906 C3176.2217,281.6563 3175.5342,281.7813 3174.7686,281.7813 C3172.7217,281.7813 3171.4248,280.6875 3171.4248,278.9844 L3171.4248,277.8906 C3171.4248,276.1094 3172.6748,274.7969 3174.4092,274.7969 C3174.9873,274.7969 3175.5967,274.9531 3176.0655,275.2031 C3176.5498,275.4844 3176.7217,275.7031 3176.8155,276.1094 C3176.878,276.5156 3176.9092,276.6406 3177.0498,276.7656 C3177.1905,276.9063 3177.4248,277.0156 3177.6436,277.0156 C3177.9092,277.0156 3178.1748,276.875 3178.3467,276.6563 C3178.4561,276.5 3178.4873,276.3125 3178.4873,275.8906 L3178.4873,274.4688 C3178.4873,274.0313 3178.4717,273.9063 3178.378,273.75 C3178.2217,273.4844 3177.9405,273.3438 3177.6436,273.3438 C3177.3467,273.3438 3177.1436,273.4375 3176.9248,273.75 L3176.753,273.6719 Z " fill="#000000"/><text fill="#000000" font-family="sans-serif" font-size="14" lengthAdjust="spacing" textLength="34" x="3194.9092" y="282.8467">Hero</text><line style="stroke:#181818;stroke-width:0.5;" x1="3092.1592" x2="3299.1592" y1="294" y2="294"/><rect fill="none" height="6" style="stroke:#C82930;stroke-width:1.0;" width="6" x="3099.1592" y="302"/><text fill="#000000" font-family="sans-serif" font-size="14" lengthAdjust="spacing" textLength="183" x="3111.1592" y="310.9951">std::string name_stat[10]</text><ellipse cx="3102.1592" cy="321.2969" fill="none" rx="3" ry="3" style="stroke:#038048;stroke-width:1.0;"/><text fill="#000000" font-family="sans-serif" font-size="14" lengthAdjust="spacing" textLength="119" x="3111.1592" y="327.292">std::string name</text><ellipse cx="3102.1592" cy="337.5938" fill="none" rx="3" ry="3" style="stroke:#038048;stroke-width:1.0;"/><text fill="#000000" font-family="sans-serif" font-size="14" lengthAdjust="spacing" textLength="180" x="3111.1592" y="343.5889">std::string name_stats[4]</text><ellipse cx="3102.1592" cy="353.8906" fill="none" rx="3" ry="3" style="stroke:#038048;stroke-width:1.0;"/><text fill="#000000" font-family="sans-serif" font-size="14" lengthAdjust="spacing" textLength="70" x="3111.1592" y="359.8857">int health</text><ellipse cx="3102.1592" cy="370.1875" fill="none" rx="3" ry="3" style="stroke:#038048;stroke-width:1.0;"/><text fill="#000000" font-family="sans-serif" font-size="14" lengthAdjust="spacing" textLength="63" x="3111.1592" y="376.1826">int mana</text><ellipse cx="3102.1592" cy="386.4844" fill="none" rx="3" ry="3" style="stroke:#038048;stroke-width:1.0;"/><text fill="#000000" font-family="sans-serif" font-size="14" lengthAdjust="spacing" textLength="122" x="3111.1592" y="392.4795">int phys_damage</text><ellipse cx="3102.1592" cy="402.7813" fill="none" rx="3" ry="3" style="stroke:#038048;stroke-width:1.0;"/><text fill="#000000" font-family="sans-serif" font-size="14" lengthAdjust="spacing" textLength="122" x="3111.1592" y="408.7764">int spell_damage</text><ellipse cx="3102.1592" cy="419.0781" fill="none" rx="3" ry="3" style="stroke:#038048;stroke-width:1.0;"/><text fill="#000000" font-family="sans-serif" font-size="14" lengthAdjust="spacing" textLength="78" x="3111.1592" y="425.0732">int stats[4]</text><ellipse cx="3102.1592" cy="435.375" fill="none" rx="3" ry="3" style="stroke:#038048;stroke-width:1.0;"/><text fill="#000000" font-family="sans-serif" font-size="14" lengthAdjust="spacing" textLength="73" x="3111.1592" y="441.3701">int money</text><ellipse cx="3102.1592" cy="451.6719" fill="none" rx="3" ry="3" style="stroke:#038048;stroke-width:1.0;"/><text fill="#000000" font-family="sans-serif" font-size="14" lengthAdjust="spacing" textLength="51" x="3111.1592" y="457.667">int exp</text><ellipse cx="3102.1592" cy="467.9688" fill="none" rx="3" ry="3" style="stroke:#038048;stroke-width:1.0;"/><text fill="#000000" font-family="sans-serif" font-size="14" lengthAdjust="spacing" textLength="58" x="3111.1592" y="473.9639">int level</text><ellipse cx="3102.1592" cy="484.2656" fill="none" rx="3" ry="3" style="stroke:#038048;stroke-width:1.0;"/><text fill="#000000" font-family="sans-serif" font-size="14" lengthAdjust="spacing" textLength="103" x="3111.1592" y="490.2607">bool level_cap</text><ellipse cx="3102.1592" cy="500.5625" fill="none" rx="3" ry="3" style="stroke:#038048;stroke-width:1.0;"/><text fill="#000000" font-family="sans-serif" font-size="14" lengthAdjust="spacing" textLength="57" x="3111.1592" y="506.5576">int cave</text><ellipse cx="3102.1592" cy="516.8594" fill="none" rx="3" ry="3" style="stroke:#038048;stroke-width:1.0;"/><text fill="#000000" font-family="sans-serif" font-size="14" lengthAdjust="spacing" textLength="68" x="3111.1592" y="522.8545">int revive</text><ellipse cx="3102.1592" cy="533.1563" fill="none" rx="3" ry="3" style="stroke:#038048;stroke-width:1.0;"/><text fill="#000000" font-family="sans-serif" font-size="14" lengthAdjust="spacing" textLength="104" x="3111.1592" y="539.1514">long long time</text><ellipse cx="3102.1592" cy="549.4531" fill="none" rx="3" ry="3" style="stroke:#038048;stroke-width:1.0;"/><text fill="#000000" font-family="sans-serif" font-size="14" lengthAdjust="spacing" textLength="135" x="3111.1592" y="555.4482">Equipment Loot[5]</text><ellipse cx="3102.1592" cy="565.75" fill="none" rx="3" ry="3" style="stroke:#038048;stroke-width:1.0;"/><text fill="#000000" font-family="sans-serif" font-size="14" lengthAdjust="spacing" textLength="81" x="3111.1592" y="571.7451">int stat[10]</text><line style="stroke:#181818;stroke-width:0.5;" x1="3092.1592" x2="3299.1592" y1="579.0469" y2="579.0469"/><rect fill="#F24D5C" height="6" style="stroke:#C82930;stroke-width:1.0;" width="6" x="3099.1592" y="587.0469"/><text fill="#000000" font-family="sans-serif" font-size="14" lengthAdjust="spacing" textLength="63" x="3111.1592" y="596.042">int hlth()</text><rect fill="#F24D5C" height="6" style="stroke:#C82930;stroke-width:1.0;" width="6" x="3099.1592" y="603.3438"/><text fill="#000000" font-family="sans-serif" font-size="14" lengthAdjust="spacing" textLength="57" x="3111.1592" y="612.3389">int mn()</text><rect fill="#F24D5C" height="6" style="stroke:#C82930;stroke-width:1.0;" width="6" x="3099.1592" y="619.6406"/><text fill="#000000" font-family="sans-serif" font-size="14" lengthAdjust="spacing" textLength="100" x="3111.1592" y="628.6357">int physdmg()</text><rect fill="#F24D5C" height="6" style="stroke:#C82930;stroke-width:1.0;" width="6" x="3099.1592" y="635.9375"/><text fill="#000000" font-family="sans-serif" font-size="14" lengthAdjust="spacing" textLength="87" x="3111.1592" y="644.9326">int spldmg()</text><rect fill="#F24D5C" height="6" style="stroke:#C82930;stroke-width:1.0;" width="6" x="3099.1592" y="652.2344"/><text fill="#000000" font-family="sans-serif" font-size="14" lengthAdjust="spacing" textLength="60" x="3111.1592" y="661.2295">int evd()</text><rect fill="#F24D5C" height="6" style="stroke:#C82930;stroke-width:1.0;" width="6" x="3099.1592" y="668.5313"/><text fill="#000000" font-family="sans-serif" font-size="14" lengthAdjust="spacing" textLength="58" x="3111.1592" y="677.5264">int atk()</text><rect fill="#F24D5C" height="6" style="stroke:#C82930;stroke-width:1.0;" width="6" x="3099.1592" y="684.8281"/><text fill="#000000" font-family="sans-serif" font-size="14" lengthAdjust="spacing" textLength="87" x="3111.1592" y="693.8232">int hlthrgn()</text><rect fill="#F24D5C" height="6" style="stroke:#C82930;stroke-width:1.0;" width="6" x="3099.1592" y="701.125"/><text fill="#000000" font-family="sans-serif" font-size="14" lengthAdjust="spacing" textLength="81" x="3111.1592" y="710.1201">int mnrgn()</text></g><!--MD5=[ffbe56a7748d828ba7d90b566e12a2a0]
class Equipment--><g id="elem_Equipment"><rect codeLine="141" fill="#F1F1F1" height="145.7813" id="Equipment" rx="2.5" ry="2.5" style="stroke:#181818;stroke-width:0.5;" width="153" x="3119.1592" y="777"/><ellipse cx="3153.0592" cy="793" fill="#ADD1B2" rx="11" ry="11" style="stroke:#181818;stroke-width:1.0;"/><path d="M3155.403,788.6719 C3154.4655,788.2344 3153.8717,788.0938 3152.9967,788.0938 C3150.3717,788.0938 3148.3717,790.1719 3148.3717,792.8906 L3148.3717,794.0156 C3148.3717,796.5938 3150.4811,798.4844 3153.3717,798.4844 C3154.5905,798.4844 3155.7467,798.1875 3156.4967,797.6406 C3157.0748,797.2344 3157.403,796.7813 3157.403,796.3906 C3157.403,795.9375 3157.0123,795.5469 3156.5436,795.5469 C3156.3248,795.5469 3156.1217,795.625 3155.9342,795.8125 C3155.4811,796.2969 3155.4811,796.2969 3155.2936,796.3906 C3154.8717,796.6563 3154.1842,796.7813 3153.4186,796.7813 C3151.3717,796.7813 3150.0748,795.6875 3150.0748,793.9844 L3150.0748,792.8906 C3150.0748,791.1094 3151.3248,789.7969 3153.0592,789.7969 C3153.6373,789.7969 3154.2467,789.9531 3154.7155,790.2031 C3155.1998,790.4844 3155.3717,790.7031 3155.4655,791.1094 C3155.528,791.5156 3155.5592,791.6406 3155.6998,791.7656 C3155.8405,791.9063 3156.0748,792.0156 3156.2936,792.0156 C3156.5592,792.0156 3156.8248,791.875 3156.9967,791.6563 C3157.1061,791.5 3157.1373,791.3125 3157.1373,790.8906 L3157.1373,789.4688 C3157.1373,789.0313 3157.1217,788.9063 3157.028,788.75 C3156.8717,788.4844 3156.5905,788.3438 3156.2936,788.3438 C3155.9967,788.3438 3155.7936,788.4375 3155.5748,788.75 L3155.403,788.6719 Z " fill="#000000"/><text fill="#000000" font-family="sans-serif" font-size="14" lengthAdjust="spacing" textLength="79" x="3171.2592" y="797.8467">Equipment</text><line style="stroke:#181818;stroke-width:0.5;" x1="3120.1592" x2="3271.1592" y1="809" y2="809"/><ellipse cx="3130.1592" cy="820" fill="none" rx="3" ry="3" style="stroke:#038048;stroke-width:1.0;"/><text fill="#000000" font-family="sans-serif" font-size="14" lengthAdjust="spacing" textLength="58" x="3139.1592" y="825.9951">int type</text><ellipse cx="3130.1592" cy="836.2969" fill="none" rx="3" ry="3" style="stroke:#038048;stroke-width:1.0;"/><text fill="#000000" font-family="sans-serif" font-size="14" lengthAdjust="spacing" textLength="50" x="3139.1592" y="842.292">int tier</text><ellipse cx="3130.1592" cy="852.5938" fill="none" rx="3" ry="3" style="stroke:#038048;stroke-width:1.0;"/><text fill="#000000" font-family="sans-serif" font-size="14" lengthAdjust="spacing" textLength="63" x="3139.1592" y="858.5889">int rarity</text><line style="stroke:#181818;stroke-width:0.5;" x1="3120.1592" x2="3271.1592" y1="865.8906" y2="865.8906"/><ellipse cx="3130.1592" cy="876.8906" fill="#84BE84" rx="3" ry="3" style="stroke:#038048;stroke-width:1.0;"/><text fill="#000000" font-family="sans-serif" font-size="14" lengthAdjust="spacing" textLength="117" x="3139.1592" y="882.8857">std::string info()</text><ellipse cx="3130.1592" cy="893.1875" fill="#84BE84" rx="3" ry="3" style="stroke:#038048;stroke-width:1.0;"/><text fill="#000000" font-family="sans-serif" font-size="14" lengthAdjust="spacing" textLength="127" x="3139.1592" y="899.1826">std::string Stats()</text><ellipse cx="3130.1592" cy="909.4844" fill="#84BE84" rx="3" ry="3" style="stroke:#038048;stroke-width:1.0;"/><text fill="#000000" font-family="sans-serif" font-size="14" lengthAdjust="spacing" textLength="65" x="3139.1592" y="915.4795">int cost()</text></g><!--MD5=[bfad6224f16331e25c8d1fade7766d0c]
reverse link low_level_gameplay to high_level_gameplay--><g id="link_low_level_gameplay_high_level_gameplay"><path codeLine="1" d="M1628.6092,219.49 C1579.0592,301.29 1515.7692,405.78 1484.6592,457.14 " fill="none" id="low_level_gameplay-backto-high_level_gameplay" style="stroke:#181818;stroke-width:1.0;"/><polygon fill="none" points="1622.7692,215.63,1639.1192,202.15,1634.7392,222.88,1622.7692,215.63" style="stroke:#181818;stroke-width:1.0;"/></g><!--MD5=[1b1e067986bdfb5ba05a87c1f9db8d79]
reverse link low_level_gameplay to forge--><g id="link_low_level_gameplay_forge"><path codeLine="2" d="M1506.6292,201.49 C1266.0592,265.24 1161.2892,136.67 956.6592,262 C654.5912,447 496.0572,886.554 457.2162,1007.329 " fill="none" id="low_level_gameplay-backto-forge" style="stroke:#FF0000;stroke-width:1.0;"/><polygon fill="none" points="1504.9392,194.69,1526.0892,196,1508.7492,208.17,1504.9392,194.69" style="stroke:#FF0000;stroke-width:1.0;"/></g><!--MD5=[bb0afc011a56c9b013b790c03b110645]
reverse link low_level_gameplay to shop--><g id="link_low_level_gameplay_shop"><path codeLine="3" d="M1507.1592,201.41 C1412.4392,233.54 1370.4492,206.43 1298.6592,262 C1027.9232,471.57 885.4592,889.954 849.7322,1007.274 " fill="none" id="low_level_gameplay-backto-shop" style="stroke:#FF0000;stroke-width:1.0;"/><polygon fill="none" points="1504.9692,194.76,1526.1492,194.43,1509.7992,207.9,1504.9692,194.76" style="stroke:#FF0000;stroke-width:1.0;"/></g><!--MD5=[e9a133f286c487d7459b30f8c1fa65db]
reverse link low_level_gameplay to library--><g id="link_low_level_gameplay_library"><path codeLine="4" d="M1701.6292,222.48 C1704.9792,382.05 1703.7792,676.318 1661.6592,923 C1656.6892,952.122 1646.5692,984.202 1638.4892,1007.148 " fill="none" id="low_level_gameplay-backto-library" style="stroke:#FF0000;stroke-width:1.0;"/><polygon fill="none" points="1694.6292,222.45,1701.1692,202.29,1708.6192,222.12,1694.6292,222.45" style="stroke:#FF0000;stroke-width:1.0;"/></g><!--MD5=[d0dc3ac3be080f6bdc5c7db760db9d94]
reverse link low_level_gameplay to equipment--><g id="link_low_level_gameplay_equipment"><path codeLine="5" d="M1737.6492,221.38 C1811.7992,436.21 1966.8792,885.555 2008.9392,1007.436 " fill="none" id="low_level_gameplay-backto-equipment" style="stroke:#FF0000;stroke-width:1.0;"/><polygon fill="none" points="1730.9692,223.46,1731.0592,202.27,1744.1992,218.89,1730.9692,223.46" style="stroke:#FF0000;stroke-width:1.0;"/></g><!--MD5=[9648fef21d3cbb385ba04971c3e7e5d5]
reverse link high_level_gameplay to battle--><g id="link_high_level_gameplay_battle"><path codeLine="6" d="M1423.3392,536.87 C1377.0792,590.457 1304.7492,683.327 1268.6592,777 C1242.5992,844.64 1235.3892,928.581 1233.6692,982.822 " fill="none" id="high_level_gameplay-backto-battle" style="stroke:#0000FF;stroke-width:1.0;"/><polygon fill="none" points="1418.3392,531.96,1436.7892,521.55,1428.8592,541.2,1418.3392,531.96" style="stroke:#0000FF;stroke-width:1.0;"/></g><!--MD5=[2d4618f613dcba988f57f51b57d8fab3]
reverse link low_level_gameplay to attack_type--><g id="link_low_level_gameplay_attack_type"><path codeLine="7" d="M1506.0792,200.59 C1303.3592,232.3 372.9432,171.81 276.6592,262 C6,515.52 166.2252,1052.783 212.4112,1188.069 " fill="none" id="low_level_gameplay-backto-attack_type" style="stroke:#FFFF00;stroke-width:1.0;"/><polygon fill="none" points="1504.9692,193.68,1525.9592,196.56,1507.7492,207.4,1504.9692,193.68" style="stroke:#FFFF00;stroke-width:1.0;"/></g><!--MD5=[1bfb67b43a9e9db263146c0426719325]
reverse link low_level_gameplay to attack_spell--><g id="link_low_level_gameplay_attack_spell"><path codeLine="8" d="M1506.4392,201.18 C1274.4892,250.79 736.1202,145.89 569.6592,262 C406.9112,375.52 127.5232,940.4 250.6592,1096 C272.6052,1123.732 452.0242,1161.937 594.6792,1188.481 " fill="none" id="low_level_gameplay-backto-attack_spell" style="stroke:#FFFF00;stroke-width:1.0;"/><polygon fill="none" points="1504.8392,194.37,1525.9292,196.44,1508.1492,207.97,1504.8392,194.37" style="stroke:#FFFF00;stroke-width:1.0;"/></g><!--MD5=[9aa9006fa7d90b2c899d0c78f08a3fb6]
reverse link low_level_gameplay to attack_target--><g id="link_low_level_gameplay_attack_target"><path codeLine="9" d="M1888.3192,167.94 C1945.4992,191.99 2006.1292,223.22 2055.6592,262 C2373.6192,510.98 2478.8892,600.573 2608.6592,983 C2624.7992,1030.559 2639.4192,1056.301 2608.6592,1096 C2571.4092,1144.071 2428.7792,1176.752 2308.7592,1196.358 " fill="none" id="low_level_gameplay-backto-attack_target" style="stroke:#FFFF00;stroke-width:1.0;"/><polygon fill="none" points="1885.3392,174.29,1869.4892,160.23,1890.6492,161.33,1885.3392,174.29" style="stroke:#FFFF00;stroke-width:1.0;"/></g><!--MD5=[6941b4497fa3ec937ef69523a21f40f1]
reverse link battle to attack_type--><g id="link_battle_attack_type"><path codeLine="10" d="M1041.6712,1094.957 C1039.9942,1095.311 1038.3232,1095.659 1036.6592,1096 C834.6812,1137.396 780.4002,1124.406 576.6592,1156 C514.5112,1165.637 446.4552,1177.554 386.8272,1188.452 " fill="none" id="battle-backto-attack_type" style="stroke:#181818;stroke-width:1.0;"/><polygon fill="none" points="1054.6192,1092.127,1047.9035,1089.5004,1042.8959,1094.6892,1049.6116,1097.3159,1054.6192,1092.127" style="stroke:#181818;stroke-width:1.0;"/></g><!--MD5=[47aa8678bd84794fb74cae8cac2893db]
reverse link battle to attack_spell--><g id="link_battle_attack_spell"><path codeLine="11" d="M1078.4492,1100.897 C1002.8942,1130.298 915.2562,1164.4 853.4012,1188.47 " fill="none" id="battle-backto-attack_spell" style="stroke:#181818;stroke-width:1.0;"/><polygon fill="none" points="1090.9492,1096.033,1083.9071,1094.481,1079.766,1100.3845,1086.8081,1101.9365,1090.9492,1096.033" style="stroke:#181818;stroke-width:1.0;"/></g><!--MD5=[b62ba88de7bdd604f08744522f3a2ad4]
reverse link battle to attack_target--><g id="link_battle_attack_target"><path codeLine="12" d="M1425.7692,1095.102 C1427.0692,1095.404 1428.3692,1095.704 1429.6592,1096 C1605.4292,1136.282 1808.6092,1170.816 1950.6392,1193.039 " fill="none" id="battle-backto-attack_target" style="stroke:#181818;stroke-width:1.0;"/><polygon fill="none" points="1412.9192,1092.044,1417.8283,1097.3261,1424.5922,1094.8261,1419.6831,1089.544,1412.9192,1092.044" style="stroke:#181818;stroke-width:1.0;"/></g><!--MD5=[f8915a4f0b9349e1da9875c2fe0d748a]
reverse link high_level_gameplay to Game--><g id="link_high_level_gameplay_Game"><path codeLine="13" d="M1465.6592,542.09 C1465.6592,617.664 1465.6592,756.159 1465.6592,817.885 " fill="none" id="high_level_gameplay-backto-Game" style="stroke:#0000FF;stroke-width:1.0;"/><polygon fill="none" points="1458.6592,541.69,1465.6592,521.69,1472.6592,541.69,1458.6592,541.69" style="stroke:#0000FF;stroke-width:1.0;"/></g><!--MD5=[cba82b0412e9dd9cf0017a405f81e1d5]
reverse link low_level_gameplay to levelup--><g id="link_low_level_gameplay_levelup"><path codeLine="14" d="M1816.3292,216.89 C1830.6592,231.69 1844.7692,246.95 1857.6592,262 C2090.5592,533.78 2325.5492,899.733 2393.2992,1007.457 " fill="none" id="low_level_gameplay-backto-levelup" style="stroke:#FFFF00;stroke-width:1.0;"/><polygon fill="none" points="1810.9992,221.45,1801.9692,202.28,1820.9792,211.64,1810.9992,221.45" style="stroke:#FFFF00;stroke-width:1.0;"/></g><!--MD5=[a27453deac0bcd27a1cf9c57d634b56f]
reverse link low_level_gameplay to choose_hero--><g id="link_low_level_gameplay_choose_hero"><path codeLine="15" d="M1889.3992,121.25 C2133.4292,143.86 2539.1292,190.8 2670.6592,262 C2757.3692,308.94 2826.5792,406.78 2858.1192,457.11 " fill="none" id="low_level_gameplay-backto-choose_hero" style="stroke:#008000;stroke-width:1.0;"/><polygon fill="none" points="1888.4892,128.2,1869.2092,119.4,1889.7592,114.25,1888.4892,128.2" style="stroke:#008000;stroke-width:1.0;"/></g><!--MD5=[7f563b41751e6e64b6ad55dc128a10db]
reverse link Game to battle--><g id="link_Game_battle"><path codeLine="16" d="M1416.7192,890.552 C1383.4992,917.397 1339.1092,953.273 1302.3592,982.974 " fill="none" id="Game-backto-battle" style="stroke:#181818;stroke-width:1.0;"/><polygon fill="none" points="1427.0892,882.172,1419.9084,882.8322,1417.7559,889.7146,1424.9368,889.0544,1427.0892,882.172" style="stroke:#181818;stroke-width:1.0;"/></g><!--MD5=[b50bad0a6b322f0d0a42da38c4b48718]
reverse link Game to forge--><g id="link_Game_forge"><path codeLine="17" d="M1273.6292,875.376 C1106.2692,898.154 857.5422,935.714 643.6592,983 C612.4942,989.89 578.9432,998.82 548.5622,1007.495 " fill="none" id="Game-backto-forge" style="stroke:#181818;stroke-width:1.0;"/><polygon fill="none" points="1286.5392,873.625,1280.0571,870.4656,1274.6476,875.2339,1281.1297,878.3934,1286.5392,873.625" style="stroke:#181818;stroke-width:1.0;"/></g><!--MD5=[a3c79fc4cc3220c78f6ab71bc6081d74]
reverse link Game to shop--><g id="link_Game_shop"><path codeLine="18" d="M1349.6392,885.807 C1233.2992,920.708 1055.8492,973.944 944.1572,1007.451 " fill="none" id="Game-backto-shop" style="stroke:#181818;stroke-width:1.0;"/><polygon fill="none" points="1362.0992,882.067,1355.2018,879.9633,1350.6071,885.5211,1357.5045,887.6248,1362.0992,882.067" style="stroke:#181818;stroke-width:1.0;"/></g><!--MD5=[6a83892e676a1d1d229f1da27de8724d]
reverse link Game to library--><g id="link_Game_library"><path codeLine="19" d="M1501.4292,892.663 C1531.2092,927.339 1572.9392,975.942 1599.8892,1007.327 " fill="none" id="Game-backto-library" style="stroke:#181818;stroke-width:1.0;"/><polygon fill="none" points="1492.6092,882.383,1493.48,889.5413,1500.4226,891.4907,1499.5518,884.3324,1492.6092,882.383" style="stroke:#181818;stroke-width:1.0;"/></g><!--MD5=[ec46c7af935e516da145ebfb30b68ddb]
reverse link Game to equipment--><g id="link_Game_equipment"><path codeLine="20" d="M1570.0592,886.335 C1673.1192,921.215 1829.1692,974.03 1927.6892,1007.373 " fill="none" id="Game-backto-equipment" style="stroke:#181818;stroke-width:1.0;"/><polygon fill="none" points="1557.4492,882.067,1561.8486,887.7806,1568.8148,885.9171,1564.4154,880.2035,1557.4492,882.067" style="stroke:#181818;stroke-width:1.0;"/></g><!--MD5=[e067ec3664aa790014e28f657cd90b77]
reverse link Game to levelup--><g id="link_Game_levelup"><path codeLine="21" d="M1657.8592,879.38 C1810.0092,903.155 2027.4792,940.047 2215.6592,983 C2246.4892,990.037 2279.6992,998.89 2309.8992,1007.444 " fill="none" id="Game-backto-levelup" style="stroke:#181818;stroke-width:1.0;"/><polygon fill="none" points="1644.7292,877.335,1650.0424,882.2104,1656.5863,879.1811,1651.2731,874.3057,1644.7292,877.335" style="stroke:#181818;stroke-width:1.0;"/></g><!--MD5=[a23ffe802c89e037946b0a1defc55189]
reverse link battle to location--><g id="link_battle_location"><path codeLine="22" d="M1233.6592,1109.305 C1233.6592,1124.573 1233.6592,1140.69 1233.6592,1155.745 " fill="none" id="battle-backto-location" style="stroke:#181818;stroke-width:1.0;"/><polygon fill="none" points="1233.6592,1096.156,1229.6592,1102.156,1233.6592,1108.156,1237.6592,1102.156,1233.6592,1096.156" style="stroke:#181818;stroke-width:1.0;"/></g><!--MD5=[01bd4432c93d57c7617936e57cce24e5]
reverse link location to Monster--><g id="link_location_Monster"><path codeLine="23" d="M1233.6592,1298.387 C1233.6592,1313.203 1233.6592,1329.056 1233.6592,1344.883 " fill="none" id="location-backto-Monster" style="stroke:#181818;stroke-width:1.0;"/><polygon fill="#181818" points="1233.6592,1285.101,1229.6592,1291.101,1233.6592,1297.101,1237.6592,1291.101,1233.6592,1285.101" style="stroke:#181818;stroke-width:1.0;"/></g><!--MD5=[0405f8612b51faf148f3495b39169715]
reverse link low_level_gameplay to Hero--><g id="link_low_level_gameplay_Hero"><path codeLine="24" d="M1874.6192,105.75 C2200.7892,109.39 2881.0392,132.77 3072.6592,262 C3079.0592,266.32 3085.1592,271.08 3090.9592,276.21 " fill="none" id="low_level_gameplay-backto-Hero" style="stroke:#181818;stroke-width:1.0;stroke-dasharray:7.0,7.0;"/><polygon fill="#181818" points="1869.3592,105.69,1878.3129,109.7926,1874.3589,105.7471,1878.4043,101.7931,1869.3592,105.69" style="stroke:#181818;stroke-width:1.0;"/></g><!--MD5=[9623f8f6266fe2e78619c480a61cd7a4]
reverse link Hero to Equipment--><g id="link_Hero_Equipment"><path codeLine="25" d="M3195.6592,730.39 C3195.6592,746.851 3195.6592,762.539 3195.6592,776.8 " fill="none" id="Hero-backto-Equipment" style="stroke:#181818;stroke-width:1.0;"/><polygon fill="none" points="3195.6592,717.035,3191.6592,723.035,3195.6592,729.035,3199.6592,723.035,3195.6592,717.035" style="stroke:#181818;stroke-width:1.0;"/></g><!--MD5=[3fb1968205c62780f036a1a0fb8957fb]
@startuml
low_level_gameplay <|- - high_level_gameplay
low_level_gameplay <|-[#red]- forge
low_level_gameplay <|-[#red]- shop
low_level_gameplay <|-[#red]- library
low_level_gameplay <|-[#red]- equipment
high_level_gameplay <|-[#blue]- battle
low_level_gameplay <|-[#yellow]- attack_type
low_level_gameplay <|-[#yellow]- attack_spell
low_level_gameplay <|-[#yellow]- attack_target
battle o- - attack_type
battle o- - attack_spell
battle o- - attack_target
high_level_gameplay <|-[#blue]- Game
low_level_gameplay <|-[#yellow]- levelup
low_level_gameplay <|-[#green]- choose_hero
Game o- - battle
Game o- - forge
Game o- - shop
Game o- - library
Game o- - equipment
Game o- - levelup
battle o- - location
location *- - Monster
low_level_gameplay <.. Hero
Hero o- - Equipment

class low_level_gameplay {
  #std::vector<std::string> commands
  #std::vector<std::string> answers;
  #std::string greetings
  #std::string name
  #bool outflag;
  #int clearscr;
  +std::vector<std::string> post_greetings
  +virtual void execute(int number, Hero *hero)
  +int gameplay(Hero *hero)
}

class high_level_gameplay {
   #std::vector<lowlevel*> lowcommands
}

class forge {
   +void execute(int number, Hero *hero) override
}

class shop {
   +void execute(int number, Hero *hero) override
}

class library {
   +void execute(int number, Hero *hero) override
}

class equipment {
   +void execute(int number, Hero *hero) override
}
  class battle {
    -bool Attack(int atk_rate, int evade_rate)
    -Location location_data
    -Location* location
    +void execute(int number, Hero *hero) override
  }
together {
  class attack_type {
    +void execute(int number, Hero *hero) override
  }

  class attack_spell {
    +void execute(int number, Hero *hero) override
  }

  class attack_target {
    +void execute(int number, Hero *hero) override
  }
}

class levelup {
   +void execute(int number, Hero *hero) override
}

class choose_hero {
   +void execute(int number, Hero *hero) override
}

class Game {
   +void execute(int number, Hero *hero) override
}

class location{
  +std::string name
  +int amount
  +std::vector<std::vector<Monster>> levels
  +std::vector<int> treasure
  +void generate_location()
}

class Monster{
  +std::string name
  +int health
  +int evade
  +int attack
  +int damage
  +int money
  +int exp
  +int level
  +int diff
  +bool dead
  +void rebuild()
  +std::string info()
}

class Hero{
  -std::string name_stat[10]
  -int hlth()
  -int mn()
  -int physdmg()
  -int spldmg()
  -int evd()
  -int atk()
  -int hlthrgn()
  -int mnrgn()
  +std::string name
  +std::string name_stats[4]
  +int health
  +int mana
  +int phys_damage
  +int spell_damage
  +int stats[4]
  +int money
  +int exp
  +int level
  +bool level_cap
  +int cave
  +int revive
  +long long time
  +Equipment Loot[5]
  +int stat[10]
}

class Equipment{
  +int type
  +int tier
  +int rarity
  +std::string info()
  +std::string Stats()
  +int cost()
}
@enduml

PlantUML version 1.2022.4beta2(Unknown compile time)
(GPL source distribution)
Java Runtime: Java(TM) SE Runtime Environment
JVM: Java HotSpot(TM) 64-Bit Server VM
Default Encoding: UTF-8
Language: en
Country: US
--></g></svg>